<?xml version="1.0" encoding="utf-8"?>
<!-- Generator: Adobe Illustrator 21.0.1, SVG Export Plug-In . SVG Version: 6.00 Build 0)  -->
<svg version="1.1" id="Layer_1" xmlns="http://www.w3.org/2000/svg" xmlns:xlink="http://www.w3.org/1999/xlink" x="0px" y="0px"
	 viewBox="0 0 500 500" style="enable-background:new 0 0 500 500;" xml:space="preserve">
<style type="text/css">
	.st0{fill:#D72D4E;enable-background:new    ;}
	.st1{fill:#FFFFFF;}
	.st2{fill:#F2F2F2;}
	.st3{fill:#D9D8D7;}
	.st4{fill:#405263;}
	.st5{fill:#242D3C;}
</style>
<g>
	<circle class="st0" cx="249.2" cy="250.1" r="249.6"/>
	<polygon class="st1" points="249.2,415.2 177.8,373.9 177.8,291.4 249.2,332.6 	"/>
	<polygon class="st2" points="249.2,250.1 177.8,291.4 249.2,332.6 320.7,291.4 	"/>
	<polygon class="st3" points="249.2,415.2 320.7,373.9 320.7,291.4 249.2,332.6 	"/>
	<polygon class="st4" points="320.7,291.4 249.2,250.1 249.2,167.6 320.7,208.9 	"/>
	<polygon class="st5" points="320.7,126.3 249.2,167.6 320.7,208.9 392.2,167.6 	"/>
	<polygon class="st3" points="320.7,291.4 392.2,250.1 392.2,167.6 320.7,208.9 	"/>
	<g>
		<path class="st5" d="M177.8,292.4c-0.2,0-0.3,0-0.5-0.1L105.8,251c-0.3-0.2-0.5-0.5-0.5-0.8v-82.5c0-0.3,0.2-0.7,0.5-0.8
			c0.3-0.2,0.7-0.2,1,0l71.5,41.3c0.3,0.2,0.5,0.5,0.5,0.8v82.5c0,0.3-0.2,0.7-0.5,0.8C178.1,292.3,177.9,292.4,177.8,292.4z
			 M107.2,249.6l69.5,40.2v-80.3l-69.6-40.1C107.2,169.3,107.2,249.6,107.2,249.6z"/>
		<path class="st5" d="M177.8,209.8c-0.2,0-0.3,0-0.5-0.1l-71.5-41.3c-0.3-0.2-0.5-0.5-0.5-0.8s0.2-0.7,0.5-0.8l71.5-41.3
			c0.3-0.2,0.7-0.2,1,0l71.5,41.3c0.3,0.2,0.5,0.5,0.5,0.8s-0.2,0.7-0.5,0.8l-71.5,41.3C178.1,209.8,177.9,209.8,177.8,209.8z
			 M108.2,167.6l69.6,40.1l69.5-40.1l-69.5-40.2L108.2,167.6z"/>
		<path class="st5" d="M249.2,251.1c-0.2,0-0.3,0-0.5-0.1l-5-2.9c-0.5-0.3-0.6-0.9-0.4-1.3c0.3-0.5,0.9-0.6,1.3-0.4l5,2.9
			c0.5,0.3,0.6,0.9,0.4,1.3C249.9,250.9,249.6,251.1,249.2,251.1z"/>
		<path class="st5" d="M235.4,243.1c-0.2,0-0.3,0-0.5-0.1l-8.8-5.1c-0.5-0.3-0.6-0.9-0.4-1.3c0.3-0.5,0.9-0.6,1.3-0.4l8.8,5.1
			c0.5,0.3,0.6,0.9,0.3,1.3C236.1,242.9,235.8,243.1,235.4,243.1z M217.9,233c-0.2,0-0.3,0-0.5-0.1l-8.8-5.1
			c-0.5-0.3-0.6-0.9-0.4-1.3c0.3-0.5,0.9-0.6,1.3-0.4l8.8,5.1c0.5,0.3,0.6,0.9,0.4,1.3C218.5,232.8,218.2,233,217.9,233z
			 M200.3,222.8c-0.2,0-0.3,0-0.5-0.1l-8.8-5.1c-0.5-0.3-0.6-0.9-0.4-1.3c0.3-0.5,0.9-0.6,1.3-0.4l8.8,5.1c0.5,0.3,0.6,0.9,0.4,1.3
			C201,222.7,200.6,222.8,200.3,222.8z"/>
		<path class="st5" d="M182.7,212.7c-0.2,0-0.3,0-0.5-0.1l-4.5-2.6l-4.5,2.6c-0.5,0.3-1,0.1-1.3-0.4s-0.1-1,0.4-1.3l5-2.9
			c0.3-0.2,0.7-0.2,1,0l5,2.9c0.5,0.3,0.6,0.9,0.4,1.3C183.4,212.5,183.1,212.7,182.7,212.7z"/>
		<path class="st5" d="M120.1,243.1c-0.3,0-0.7-0.2-0.8-0.5c-0.3-0.5-0.1-1,0.4-1.3l8.8-5.1c0.5-0.3,1.1-0.1,1.3,0.4s0.1,1-0.4,1.3
			l-8.8,5.1C120.4,243.1,120.2,243.1,120.1,243.1z M137.6,233c-0.3,0-0.7-0.2-0.8-0.5c-0.3-0.5-0.1-1,0.4-1.3l8.8-5.1
			c0.5-0.3,1.1-0.1,1.3,0.4c0.3,0.5,0.1,1-0.4,1.3l-8.8,5.1C138,232.9,137.8,233,137.6,233z M155.2,222.8c-0.3,0-0.7-0.2-0.8-0.5
			c-0.3-0.5-0.1-1,0.3-1.3l8.8-5.1c0.5-0.3,1-0.1,1.3,0.4s0.1,1-0.3,1.3l-8.8,5.1C155.5,222.8,155.4,222.8,155.2,222.8z"/>
		<path class="st5" d="M106.3,251.1c-0.3,0-0.7-0.2-0.8-0.5c-0.3-0.5-0.1-1.1,0.4-1.3l5-2.9c0.5-0.3,1-0.1,1.3,0.4s0.1,1-0.4,1.3
			l-5,2.9C106.6,251,106.4,251.1,106.3,251.1z"/>
		<path class="st5" d="M177.8,292.4c-0.2,0-0.3,0-0.5-0.1c-0.3-0.2-0.5-0.5-0.5-0.8V209c0-0.3,0.2-0.7,0.5-0.8l71.5-41.3
			c0.3-0.2,0.7-0.2,1,0s0.5,0.5,0.5,0.8v82.5c0,0.3-0.2,0.7-0.5,0.8l-71.5,41.3C178.1,292.3,177.9,292.4,177.8,292.4z M178.7,209.4
			v80.3l69.5-40.2v-80.3L178.7,209.4z"/>
		<path class="st5" d="M177.8,133.1c-0.5,0-1-0.4-1-1v-5.8c0-0.5,0.4-1,1-1c0.5,0,1,0.4,1,1v5.8
			C178.7,132.6,178.3,133.1,177.8,133.1z"/>
		<path class="st5" d="M177.8,193.9L177.8,193.9c-0.5,0-1-0.4-1-1v-10.1c0-0.5,0.4-1,1-1l0,0c0.5,0,1,0.4,1,1v10.1
			C178.7,193.5,178.3,193.9,177.8,193.9z M177.8,173.6c-0.5,0-1-0.4-1-1v-10.1c0-0.5,0.4-1,1-1s1,0.4,1,1v10.1
			C178.7,173.2,178.3,173.6,177.8,173.6z M177.8,153.3c-0.5,0-1-0.4-1-1v-10.1c0-0.5,0.4-1,1-1c0.5,0,1,0.4,1,1v10.1
			C178.7,152.9,178.3,153.3,177.8,153.3z"/>
		<path class="st5" d="M177.8,209.8c-0.5,0-1-0.4-1-1V203c0-0.5,0.4-1,1-1c0.5,0,1,0.4,1,1v5.8C178.7,209.4,178.3,209.8,177.8,209.8
			z"/>
	</g>
</g>
</svg>
