<?xml version="1.0" encoding="utf-8"?>
<!-- Generator: Adobe Illustrator 21.0.1, SVG Export Plug-In . SVG Version: 6.00 Build 0)  -->
<svg version="1.1" id="Layer_1" xmlns="http://www.w3.org/2000/svg" xmlns:xlink="http://www.w3.org/1999/xlink" x="0px" y="0px"
	 viewBox="0 0 500 500" style="enable-background:new 0 0 500 500;" xml:space="preserve">
<style type="text/css">
	.st0{fill:#D72D4E;enable-background:new    ;}
	.st1{fill:#1E2834;}
	.st2{fill:#FFFFFF;}
	.st3{fill:#D72D4E;}
	.st4{fill:#405263;}
</style>
<g>
	<path class="st0" d="M249.8-0.8c138.3,0,250.4,112.1,250.4,250.4S388.1,500,249.8,500S-0.6,387.9-0.6,249.6S111.5-0.8,249.8-0.8z"
		/>
	<g>
		<path class="st1" d="M397,125.4H106.5c-11.9,0-21.6,9.7-21.6,21.6v27.1h333.9V147C418.6,135.1,409,125.4,397,125.4z"/>
		<path class="st2" d="M283.9,170.4L273.1,154h-60.3l-10.9,16.4h-117v181.9c0,11.9,9.7,21.6,21.6,21.6h290.7
			c11.9,0,21.6-9.7,21.6-21.6V170.4H283.9z"/>
		<polygon class="st3" points="107.1,170.3 189.1,170.3 178.3,154 118,154 		"/>
		<path class="st3" d="M387.8,139.4c5.4,0,9.7,4.4,9.7,9.7c0,5.4-4.3,9.7-9.7,9.7c-5.4,0-9.7-4.3-9.7-9.7
			C378.1,143.8,382.4,139.4,387.8,139.4z"/>
		<path class="st2" d="M350.6,139.4c5.4,0,9.7,4.4,9.7,9.7c0,5.4-4.3,9.7-9.7,9.7c-5.4,0-9.7-4.3-9.7-9.7
			C340.9,143.8,345.2,139.4,350.6,139.4z"/>
		<polygon class="st1" points="142.4,321.3 135.6,315.3 211.1,233.7 293.6,286.3 357.5,206.7 364.6,212.3 295.6,298.2 212.5,245.2 
					"/>
		<path class="st4" d="M139.2,299.9c10.3,0,18.6,8.3,18.6,18.6s-8.3,18.6-18.6,18.6s-18.6-8.3-18.6-18.6S128.9,299.9,139.2,299.9z"
			/>
		<path class="st4" d="M211.8,221c10.3,0,18.6,8.3,18.6,18.6s-8.3,18.6-18.6,18.6s-18.6-8.3-18.6-18.6S201.6,221,211.8,221z"/>
		<path class="st4" d="M294.6,273.7c10.3,0,18.6,8.3,18.6,18.6c0,10.3-8.3,18.6-18.6,18.6s-18.6-8.3-18.6-18.6
			S284.3,273.7,294.6,273.7z"/>
		<path class="st4" d="M361,190.9c10.3,0,18.6,8.3,18.6,18.6s-8.3,18.6-18.6,18.6s-18.6-8.3-18.6-18.6
			C342.5,199.2,350.8,190.9,361,190.9z"/>
	</g>
</g>
</svg>
