<?xml version="1.0" encoding="utf-8"?>
<!-- Generator: Adobe Illustrator 21.0.1, SVG Export Plug-In . SVG Version: 6.00 Build 0)  -->
<svg version="1.1" id="Layer_1" xmlns="http://www.w3.org/2000/svg" xmlns:xlink="http://www.w3.org/1999/xlink" x="0px" y="0px"
	 viewBox="0 0 500 500" style="enable-background:new 0 0 500 500;" xml:space="preserve">
<style type="text/css">
	.st0{fill:#D72D4E;enable-background:new    ;}
	.st1{fill:#1E2834;}
	.st2{fill:#FFFFFF;}
	.st3{fill:#D72D4E;}
	.st4{fill:url(#SVGID_1_);}
	.st5{fill:url(#SVGID_2_);}
	.st6{fill:url(#SVGID_3_);}
</style>
<g>
	<circle class="st0" cx="250" cy="249.3" r="245"/>
	<path class="st1" d="M392.1,127.8H107.9c-11.6,0-21.2,9.5-21.2,21.1v26.5h326.7v-26.5C413.3,137.3,403.9,127.8,392.1,127.8z"/>
	<path class="st2" d="M281.4,171.8l-10.6-16h-59l-10.7,16H86.7v178c0,11.6,9.5,21.1,21.2,21.1h284.4c11.6,0,21.1-9.5,21.1-21.1v-178
		L281.4,171.8L281.4,171.8z"/>
	<polygon class="st3" points="108.4,171.7 188.7,171.7 178.1,155.8 119.1,155.8 	"/>
	<path class="st3" d="M383.1,141.5c5.2,0,9.5,4.3,9.5,9.5c0,5.3-4.3,9.5-9.5,9.5c-5.3,0-9.5-4.3-9.5-9.5S377.9,141.5,383.1,141.5z"
		/>
	<path class="st2" d="M346.7,141.5c5.2,0,9.5,4.3,9.5,9.5c0,5.3-4.3,9.5-9.5,9.5c-5.3,0-9.5-4.3-9.5-9.5S341.5,141.5,346.7,141.5z"
		/>
	<g>
		
			<linearGradient id="SVGID_1_" gradientUnits="userSpaceOnUse" x1="143.8" y1="531.3" x2="203.4" y2="531.3" gradientTransform="matrix(1 0 0 1 0 -266)">
			<stop  offset="0" style="stop-color:#191C27"/>
			<stop  offset="1" style="stop-color:#192432"/>
		</linearGradient>
		<path class="st4" d="M143.8,273.7v-16.8l59.6-28v18L164,265.1l39.3,18.6v18L143.8,273.7z"/>
		
			<linearGradient id="SVGID_2_" gradientUnits="userSpaceOnUse" x1="215.7" y1="537.2" x2="284.4" y2="537.2" gradientTransform="matrix(1 0 0 1 0 -266)">
			<stop  offset="0" style="stop-color:#191C27"/>
			<stop  offset="1" style="stop-color:#192432"/>
		</linearGradient>
		<path class="st5" d="M267,215h17.4L233,327.4h-17.3L267,215z"/>
		
			<linearGradient id="SVGID_3_" gradientUnits="userSpaceOnUse" x1="296.669" y1="531.3" x2="356.269" y2="531.3" gradientTransform="matrix(1 0 0 1 0 -266)">
			<stop  offset="0" style="stop-color:#191C27"/>
			<stop  offset="1" style="stop-color:#192432"/>
		</linearGradient>
		<path class="st6" d="M356.2,256.9v16.8l-59.6,28v-18.1L336,265l-39.3-18.1v-18L356.2,256.9z"/>
	</g>
</g>
</svg>
