<?xml version="1.0" encoding="utf-8"?>
<!-- Generator: Adobe Illustrator 21.0.1, SVG Export Plug-In . SVG Version: 6.00 Build 0)  -->
<svg version="1.1" id="Layer_1" xmlns="http://www.w3.org/2000/svg" xmlns:xlink="http://www.w3.org/1999/xlink" x="0px" y="0px"
	 viewBox="0 0 500 500" style="enable-background:new 0 0 500 500;" xml:space="preserve">
<style type="text/css">
	.st0{fill:#D72D4E;enable-background:new    ;}
	.st1{fill:#1E2834;}
	.st2{fill:#FFFFFF;}
</style>
<g>
	<path class="st0" d="M249.8,1.1c137.5,0,248.9,111.4,248.9,248.9S387.3,498.9,249.8,498.9S0.9,387.5,0.9,250S112.3,1.1,249.8,1.1z"
		/>
	<path class="st1" d="M377.3,192.2v-30.5h-15c-1.5-6.3-3.9-12.3-7.2-17.8l10.7-10.9l-21-21.5l-10.7,10.9c-5.3-3.4-11.2-5.8-17.4-7.4
		V99.6H287V115c-6.2,1.6-12.1,4-17.4,7.4l-10.7-10.9l-21,21.5l10.7,10.9c-3.3,5.4-5.6,11.5-7.2,17.8h-15v30.5h15
		c1.5,6.3,3.9,12.3,7.2,17.8l-10.7,10.9l21,21.5l10.7-10.9c5.3,3.4,11.2,5.8,17.4,7.4v15.4h29.7V239c6.2-1.6,12-4,17.4-7.4
		l10.7,10.9l21-21.5l-10.7-11c3.3-5.4,5.6-11.5,7.2-17.8H377.3L377.3,192.2z M301.8,221.6c-5.8,0-11.3-1.2-16.3-3.3
		c-10.1-4.2-18.4-12.2-23-22.3c-2.7-5.7-4.1-12.1-4.1-19c0-24.6,19.5-44.5,43.5-44.5s43.5,20,43.5,44.5
		C345.2,201.6,325.8,221.6,301.8,221.6z"/>
	<path class="st2" d="M199.9,184.3l29.5,100.2c1,3.5,4.1,5.8,7.7,5.8h129.2c3.6,0,6.6-2.4,7.7-5.8l29.5-100.2
		c1.6-5.3-2.3-10.6-7.7-10.6H207.6C202.3,173.8,198.4,179.1,199.9,184.3z"/>
	<path class="st1" d="M234.2,342.4c18.4,0,33.3,15.3,33.3,34.2c0,18.9-14.9,34.2-33.3,34.2s-33.3-15.3-33.3-34.2
		C200.9,357.7,215.8,342.4,234.2,342.4z"/>
	<path class="st2" d="M234.2,394.5c-9.7,0-17.6-8.1-17.6-18.1s7.9-18.1,17.6-18.1c9.7,0,17.6,8.1,17.6,18.1S244,394.5,234.2,394.5z"
		/>
	<path class="st1" d="M331.2,342.4c18.4,0,33.3,15.3,33.3,34.2c0,18.9-14.9,34.2-33.3,34.2s-33.3-15.3-33.3-34.2
		C297.9,357.7,312.8,342.4,331.2,342.4z"/>
	<path class="st2" d="M331.2,394.5c-9.7,0-17.6-8.1-17.6-18.1s7.9-18.1,17.6-18.1s17.6,8.1,17.6,18.1S340.9,394.5,331.2,394.5z"/>
	<path class="st2" d="M365.7,327.7H198.5l-45-151.5c-5-16.9-20.1-28.4-37.4-28.4h-15.8c-4.2,0-7.5-3.5-7.5-7.6l0,0
		c0-4.2,3.4-7.6,7.5-7.6H116c23.8,0,44.7,15.9,51.7,39.2l41.8,140.6h156.1c4.2,0,7.5,3.5,7.5,7.6l0,0
		C373.1,324.3,369.8,327.7,365.7,327.7z"/>
	<g>
		<rect x="228.9" y="194" class="st1" width="145.9" height="12.1"/>
		<rect x="244.5" y="226" class="st1" width="114.8" height="12.1"/>
		<rect x="263" y="258" class="st1" width="77.4" height="12"/>
	</g>
</g>
</svg>
