<?xml version="1.0" encoding="utf-8"?>
<!-- Generator: Adobe Illustrator 21.0.1, SVG Export Plug-In . SVG Version: 6.00 Build 0)  -->
<svg version="1.1" id="Layer_1" xmlns="http://www.w3.org/2000/svg" xmlns:xlink="http://www.w3.org/1999/xlink" x="0px" y="0px"
	 viewBox="0 0 500 500" style="enable-background:new 0 0 500 500;" xml:space="preserve">
<style type="text/css">
	.st0{fill:#D72D4E;enable-background:new    ;}
	.st1{fill:#1E2834;}
	.st2{fill:#FFFFFF;}
</style>
<g>
	<circle class="st0" cx="249.2" cy="249.6" r="251.4"/>
	<rect x="150.6" y="108.7" class="st1" width="29.3" height="56.2"/>
	<polygon class="st2" points="369.2,208 368.8,207.6 249.2,122.9 129.6,207.6 129.2,208 129.6,208 129.6,350.6 368.8,350.6 
		368.8,208 	"/>
	<g>
		<polygon class="st1" points="368.8,208 417.5,208 249.2,88.9 80.9,208 129.6,208 249.2,122.9 		"/>
		<rect x="143.5" y="98" class="st2" width="43.6" height="17.8"/>
	</g>
	<rect x="117.3" y="347.8" class="st1" width="263.3" height="23.4"/>
	<g>
		<path class="st1" d="M281.3,235.2c-0.4-0.4-1-0.6-1.7-0.6h-12.3c-0.8-4-2.4-7.4-4.6-10.4h16.8c0.7,0,1.2-0.2,1.7-0.6
			c0.4-0.4,0.6-1,0.6-1.7v-7.3c0-0.7-0.2-1.2-0.6-1.7c-0.4-0.4-1-0.6-1.7-0.6h-59.9c-0.7,0-1.2,0.2-1.7,0.6c-0.4,0.4-0.6,1-0.6,1.7
			v9.6c0,0.6,0.2,1.2,0.7,1.6c0.5,0.5,1,0.7,1.6,0.7H230c10.1,0,16.6,2.7,19.3,8.1h-29.7c-0.7,0-1.2,0.2-1.7,0.6
			c-0.4,0.4-0.6,1-0.6,1.7v7.3c0,0.7,0.2,1.2,0.6,1.7s1,0.6,1.7,0.6h30.7c-1.1,3.9-3.5,6.9-7.4,9c-3.9,2.1-9,3.1-15.3,3.1h-8.1
			c-0.6,0-1.2,0.2-1.6,0.7c-0.5,0.5-0.7,1-0.7,1.6v9.1c0,0.6,0.2,1.1,0.6,1.6c9.2,9.8,21.2,23.5,35.8,41.1c0.4,0.6,1,0.9,1.8,0.9h14
			c1,0,1.7-0.4,2.1-1.3c0.5-0.9,0.4-1.7-0.3-2.4c-14-17.2-25-30-33-38.6c8.2-1,14.8-3.6,19.9-7.9c5.1-4.3,8.2-9.9,9.3-16.8h12.1
			c0.7,0,1.2-0.2,1.7-0.6c0.4-0.4,0.6-1,0.6-1.7V237C281.9,236.2,281.7,235.7,281.3,235.2z"/>
	</g>
</g>
</svg>
