<?xml version="1.0" encoding="utf-8"?>
<!-- Generator: Adobe Illustrator 21.0.1, SVG Export Plug-In . SVG Version: 6.00 Build 0)  -->
<svg version="1.1" id="Layer_1" xmlns="http://www.w3.org/2000/svg" xmlns:xlink="http://www.w3.org/1999/xlink" x="0px" y="0px"
	 viewBox="0 0 500 500" style="enable-background:new 0 0 500 500;" xml:space="preserve">
<style type="text/css">
	.st0{fill:#D72D4E;enable-background:new    ;}
	.st1{fill:#1E2834;}
	.st2{fill:#E6E9EE;}
	.st3{fill:#FFFFFF;}
</style>
<g>
	<circle class="st0" cx="249.4" cy="250.1" r="249.7"/>
	<path class="st1" d="M124,276.1l21.3,105.7c1.1,5.2,5.7,9.1,11.1,9.1h23.4c6.6,0,11.9-5.7,11.3-12.3L182,276.1H124z"/>
	<path class="st2" d="M384.9,274.5l-39.9,9.4V206l39.9,9.4c6.1,1.5,10.5,6.9,10.5,13.2v32.8C395.4,267.6,391.1,273.1,384.9,274.5z"
		/>
	<path class="st3" d="M341.5,109.2c-36.3,0-69.2,14.2-93.6,37.4c-19.7,18.8-45.2,30.2-72.2,33.1l-32.8,3.7
		c-31.4,3.5-55.1,30-55.1,61.5l0,0c0,31.6,23.7,58.1,55.1,61.5l32.8,3.7c27,3,52.5,14.4,72.2,33.1c24.3,23.1,57.3,37.4,93.6,37.4
		c0.1,0,0.1,0,0.2,0c9.9,0,17.7-8.3,17.7-18.1V127.3c0-9.9-7.8-18.1-17.7-18.1C341.7,109.2,341.6,109.2,341.5,109.2z"/>
	<path class="st1" d="M341.5,109.2c-6,0-11.9,0.4-17.7,1.2v269c5.8,0.8,11.7,1.2,17.7,1.2c0.1,0,0.1,0,0.2,0
		c9.9,0,17.7-8.3,17.7-18.1V127.3c0-9.9-7.8-18.1-17.7-18.1C341.7,109.2,341.6,109.2,341.5,109.2z"/>
</g>
</svg>
