<?xml version="1.0" encoding="utf-8"?>
<!-- Generator: Adobe Illustrator 21.0.1, SVG Export Plug-In . SVG Version: 6.00 Build 0)  -->
<svg version="1.1" id="Layer_1" xmlns="http://www.w3.org/2000/svg" xmlns:xlink="http://www.w3.org/1999/xlink" x="0px" y="0px"
	 viewBox="0 0 500 500" style="enable-background:new 0 0 500 500;" xml:space="preserve">
<style type="text/css">
	.st0{fill:#D72D4E;}
	.st1{fill:#324A5E;}
	.st2{fill:#FFFFFF;}
</style>
<g>
	<path class="st0" d="M249.2,14.3c129.8,0,235,105.2,235,235c0,129.8-105.2,235-235,235c-129.8,0-235-105.2-235-235
		C14.1,119.6,119.4,14.3,249.2,14.3z"/>
	<path class="st1" d="M374.3,158.3c-2.2-3.3-7-4.1-10.4-1.5l-114.7,83.6l-116.6-77.4c-3.3-2.2-7.8-1.5-10.4,2.2
		c-2.2,3.3-1.5,7.8,2.2,10.4l116.2,77.3l-38.5,136.2c-1.1,4.1,1.1,8.1,5.2,8.9c0.7,0.4,1.5,0.4,1.9,0.4c3.3,0,6.3-2.2,7-5.2
		l39.2-139.2l117-85.1C375.7,166.1,376.5,161.6,374.3,158.3z"/>
	<path class="st2" d="M249.2,185c35.6,0,64.4,28.8,64.4,64.4c0,35.6-28.8,64.4-64.4,64.4c-35.6,0-64.4-28.8-64.4-64.4
		C184.8,213.8,213.6,185,249.2,185z"/>
	<path class="st0" d="M249.2,204.6c24.7,0,44.8,20.1,44.8,44.8c0,24.7-20,44.8-44.8,44.8s-44.8-20-44.8-44.8
		C204.4,224.6,224.4,204.6,249.2,204.6z"/>
	<g>
		<path class="st2" d="M368.3,126.9c19.8,0,35.9,16.1,35.9,35.9c0,19.8-16.1,35.9-35.9,35.9c-19.8,0-35.9-16.1-35.9-35.9
			C332.4,142.9,348.5,126.9,368.3,126.9z"/>
		<path class="st2" d="M128.5,133.1c19.8,0,35.9,16.1,35.9,35.9c0,19.8-16.1,35.9-35.9,35.9S92.6,188.9,92.6,169
			C92.6,149.2,108.7,133.1,128.5,133.1z"/>
		<path class="st2" d="M209.2,354.8c19.8,0,35.9,16.1,35.9,35.9c0,19.8-16.1,35.9-35.9,35.9s-35.9-16.1-35.9-35.9
			C173.3,370.9,189.4,354.8,209.2,354.8z"/>
	</g>
</g>
</svg>
