<?xml version="1.0" encoding="utf-8"?>
<!-- Generator: Adobe Illustrator 21.0.1, SVG Export Plug-In . SVG Version: 6.00 Build 0)  -->
<svg version="1.1" id="Layer_1" xmlns="http://www.w3.org/2000/svg" xmlns:xlink="http://www.w3.org/1999/xlink" x="0px" y="0px"
	 viewBox="0 0 500 500" style="enable-background:new 0 0 500 500;" xml:space="preserve">
<style type="text/css">
	.st0{fill:#D72D4E;}
	.st1{fill:#F2F2F2;}
	.st2{fill:#4CDBC4;}
	.st3{fill:#324A5E;}
	.st4{fill:#2B3B4E;}
	.st5{fill:#E6E9EE;}
	.st6{fill:#ACB3BA;}
	.st7{fill:#CCCCCC;}
	.st8{fill:#DBDBDB;}
	.st9{fill:#D63A5F;}
	.st10{fill:#54C0EB;}
</style>
<g>
	<path class="st0" d="M249.3,6.9c133.9,0,242.5,108.6,242.5,242.5c0,133.9-108.6,242.5-242.5,242.5C115.3,491.8,6.8,383.3,6.8,249.4
		C6.8,115.5,115.3,6.9,249.3,6.9z"/>
	<path class="st1" d="M265.5,103.1H117.4c-3.8,0-7.2,3-7.2,7.2v270.9c0,3.8,3,7.2,7.2,7.2h194.7c3.8,0,7.2-3,7.2-7.2V156.9
		c0-1.9-0.8-3.8-2.3-4.9l-46.2-47C269.3,103.9,267.4,103.1,265.5,103.1z"/>
	<path class="st2" d="M372.8,127.4h-24.6v-17c0-3.8,3-7.2,7.2-7.2h10.2c3.8,0,7.2,3,7.2,7.2L372.8,127.4L372.8,127.4z"/>
	<polygon class="st0" points="395.5,230.4 389,230.4 389,152 380.3,152 380.3,143.7 395.5,143.7 	"/>
	<path class="st3" d="M380.3,299V132.7c0-3-1.9-5.3-4.2-5.3h-30.7c-2.3,0-4.2,2.3-4.2,5.3V299c0,13.6,1.5,26.9,3.8,40.2h31.5
		C378.8,325.9,380.3,312.6,380.3,299z"/>
	<path class="st4" d="M360.6,388c1.5-3,2.6-6.1,4.2-9.1h-8C358,382,359.1,385,360.6,388z"/>
	<path class="st5" d="M344.7,339.2c2.6,13.6,6.4,27.3,11.7,39.8h8c5.3-12.5,9.1-26.1,11.7-39.8H344.7z"/>
	<rect x="348.1" y="160.7" class="st6" width="9.1" height="145.1"/>
	<path class="st7" d="M275.8,153.9h41.3c0.8,0,1.1-1.1,0.8-1.5l-47.7-47.7c-0.8-0.8-1.5,0-1.5,0.8v41.3
		C268.6,150.5,271.6,153.9,275.8,153.9z"/>
	<rect x="127.3" y="128.9" class="st2" width="104.2" height="14.8"/>
	<g>
		<rect x="127.3" y="177.4" class="st8" width="174.6" height="7.2"/>
		<rect x="127.3" y="197.5" class="st8" width="174.6" height="7.2"/>
		<rect x="127.3" y="217.9" class="st8" width="127.3" height="7.2"/>
		<rect x="127.3" y="238.4" class="st8" width="157.6" height="7.2"/>
		<rect x="127.3" y="258.8" class="st8" width="168.2" height="7.2"/>
		<rect x="127.3" y="279.3" class="st8" width="127.3" height="7.2"/>
		<rect x="127.3" y="299.4" class="st8" width="174.6" height="7.2"/>
	</g>
	<polygon class="st0" points="179.9,348.6 175,343.7 177.6,336.5 171.2,334.2 171.2,327.4 164,327.4 161,321 154.9,323.6 150,318.7 
		145.1,324 137.9,321.3 135.6,327.4 129.2,327.4 129.2,335 122.3,338 125,344.1 120.1,348.6 125.4,353.9 122.7,360.7 129.2,363.4 
		129.2,369.8 136.4,369.8 139.4,376.7 145.5,374 150,378.5 155.3,373.2 162.1,376.3 164.8,369.8 171.2,369.8 171.2,362.6 178,359.6 
		175.4,353.5 	"/>
	<path class="st9" d="M150,326.6c12.1,0,22,9.8,22,22c0,12.1-9.8,22-22,22c-12.1,0-22-9.8-22-22C128,336.5,137.9,326.6,150,326.6z"
		/>
	<path class="st10" d="M229.5,369.5L229.5,369.5c-1.9,0-3-0.8-3.8-2.3c-1.1-1.9-0.4-4.9,1.5-6.4c0.4-0.4,1.1-0.8,1.5-1.1
		c0.4,0,0.4-0.4,0.8-0.4c1.9-1.5,2.7-4.2,3.4-6.8c1.5-6.8,2.6-13.6,3.4-21.6c0-0.8,0.8-1.5,1.5-1.5s1.5,0.4,1.9,1.5
		c1.5,6.4,2.6,12.9,3.8,19.3c0.8-0.8,1.5-1.1,2.6-1.9c0.8-0.8,1.9-0.4,2.3,0c0,0,0,0,0,0.4l5.7-3.4c0.4-0.4,1.1-0.4,1.9,0
		c0.4,0.4,0.8,0.8,0.8,1.5c0,0.8,0,1.1,0,1.9c0.4,0,0.8,0,0.8,0.4c0.4,0.4,0.8,1.1,0.8,1.5c0,0.4,0,0.8-0.4,1.5
		c3-2.3,5.7-4.5,8.3-6.8c6.1-5.3,12.5-10.6,20.1-14.4c0.8-0.4,1.9,0,2.3,0.8c0.4,0.8,0,1.9-0.8,2.3c-6.8,3.8-13.3,9.1-19.3,14
		c-4.5,3.8-9.1,7.6-14.4,11c-1.1,1.1-2.7,2.3-4.2,3.4c-3,1.9-6.8,3-11,3.4c-0.8,0-1.5,0-1.9,0l0,0c-1.1,0-1.9-0.8-1.9-1.9
		c0-1.1,0.8-1.9,1.5-1.9c0.8,0,1.1,0,1.9,0c1.9-0.4,3.8-1.1,6.4-2.3c1.5-0.8,2.7-1.5,4.2-2.3c-0.4-0.4-0.4-0.8,0-1.1
		c0.4-2.3,1.5-4.2,3.4-5.7c0-0.4,0-0.4,0-0.8l-3,1.9c-0.4,0.4-1.5,0.8-2.6,0.8c-0.4,0-0.4,0-0.8-0.4c-1.9,1.5-4.2,3-6.4,4.5
		c-0.8,0.4-1.9,0.4-2.3-0.4c-0.4-0.4-0.8-1.1-0.4-1.9c0-0.8,0.8-1.9,1.5-2.3c0.4,0,0.4-0.4,0.8-0.4l0.4-0.4v-0.4
		c-0.4-2.6-0.8-5.3-1.5-8.3c-0.4,3.8-1.1,7.6-2.3,11c-0.8,3.4-1.9,6.8-4.9,8.7c-0.4,0.4-0.8,0.4-1.1,0.8c-0.4,0.4-0.8,0.4-1.1,0.8
		c-0.8,0.8-0.8,1.5-0.8,2.3c0,0,0.4,0.4,0.8,0.4c0.4-0.8,1.9-1.1,2.6-0.4c0.8,0.4,1.1,1.5,0.8,2.3
		C232.2,369.1,231.1,369.5,229.5,369.5z"/>
</g>
</svg>
