<?xml version="1.0" encoding="utf-8"?>
<!-- Generator: Adobe Illustrator 21.0.1, SVG Export Plug-In . SVG Version: 6.00 Build 0)  -->
<svg version="1.1" id="Layer_1" xmlns="http://www.w3.org/2000/svg" xmlns:xlink="http://www.w3.org/1999/xlink" x="0px" y="0px"
	 viewBox="0 0 500 500" style="enable-background:new 0 0 500 500;" xml:space="preserve">
<style type="text/css">
	.st0{fill:#D72D4E;}
	.st1{fill:#B5F1F4;}
	.st2{fill:#84DBFF;}
	.st3{fill:#00A49A;}
	.st4{fill:#2C9984;}
	.st5{fill:#FFFFFF;}
	.st6{fill:#E6E6E6;}
</style>
<g>
	<path class="st0" d="M249.7,10.1C381.9,10.1,489,117.2,489,249.4c0,132.1-107.1,239.3-239.3,239.3
		c-132.1,0-239.3-107.1-239.3-239.3C10.5,117.2,117.6,10.1,249.7,10.1z"/>
	<path class="st1" d="M341.9,226.8l-163.6,45.7c-5.4,1.5-11-1.7-12.5-7.1l-25.3-90.3c-1.5-5.4,1.7-11,7.1-12.5l163.6-45.7
		c5.4-1.5,11,1.6,12.6,7.1l25.2,90.3C350.5,219.6,347.3,225.2,341.9,226.8z"/>
	<path class="st2" d="M349,214.2l-25.3-90.3c-1.5-5.4-7.1-8.6-12.5-7.1l-80.7,22.6l29,110.4l82.5-23.1
		C347.3,225.2,350.5,219.6,349,214.2z"/>
	
		<rect x="157.6" y="147.4" transform="matrix(0.9631 -0.2692 0.2692 0.9631 -43.3694 73.0604)" class="st3" width="174.1" height="94.6"/>
	<polygon class="st4" points="315.8,125.7 232.9,148.9 256.9,240.3 341.3,216.7 	"/>
	<path class="st1" d="M223.1,200.7c-5.7-20.2-0.5-39.4,11.4-42.7c12-3.4,26.2,10.3,31.9,30.6c5.7,20.2,0.6,39.4-11.4,42.7
		C243,234.7,228.7,221,223.1,200.7z"/>
	<path class="st2" d="M266.4,188.6c-5.5-19.8-19.3-33.3-31.1-30.8l19.3,73.6c0.1,0,0.3,0,0.4-0.1C266.9,228,272,208.8,266.4,188.6z"
		/>
	<path class="st3" d="M252.3,186.9c1.1-0.3,1.8-1.5,1.5-2.6l-0.4-1.4c-1.2-4.3-6.2-6.6-11.3-5.4l-0.2-0.5c-0.3-1.1-1.5-1.8-2.6-1.5
		c-1.1,0.3-1.8,1.5-1.5,2.6l0.2,0.5c-5,1.5-8.1,6.2-6.9,10.5l0.8,2.8c1.2,4.3,6.2,6.6,11.3,5.4l2.9,10.4c-2.7,0.6-5.5-0.4-6-2.4
		l-0.4-1.4c-0.3-1.1-1.5-1.8-2.6-1.5c-1.1,0.3-1.8,1.5-1.5,2.6l0.4,1.4c1.2,4.3,6.2,6.6,11.3,5.4l0.2,0.5c0.3,1.1,1.5,1.8,2.6,1.5
		c1.1-0.3,1.8-1.5,1.5-2.6l-0.2-0.5c5-1.5,8.1-6.2,6.9-10.4l-0.8-2.8c-1.2-4.3-6.2-6.6-11.3-5.4l-2.9-10.4c2.7-0.6,5.4,0.4,6,2.4
		l0.4,1.4C250,186.6,251.2,187.2,252.3,186.9z M236.1,190.8l-0.8-2.8c-0.6-2,1.2-4.3,3.9-5.2l2.9,10.4
		C239.3,193.8,236.6,192.7,236.1,190.8z M253.4,198.5l0.8,2.8c0.5,2-1.2,4.3-3.9,5.2l-2.9-10.4C250.1,195.5,252.8,196.6,253.4,198.5
		z"/>
	<path class="st4" d="M250.1,213.9c1.1-0.3,1.8-1.5,1.5-2.6l-0.2-0.5c5-1.5,8.1-6.2,6.9-10.4l-0.8-2.8c-1.2-4.3-6.2-6.6-11.3-5.4
		l-2.9-10.4c2.7-0.6,5.5,0.4,6,2.4l0.4,1.4c0.3,1.1,1.5,1.8,2.6,1.5c1.1-0.3,1.8-1.5,1.5-2.6l-0.4-1.4c-1.2-4.3-6.2-6.6-11.3-5.4
		l-0.2-0.5c-0.3-1-1.2-1.6-2.1-1.6l10.1,38.5C250,213.9,250,213.9,250.1,213.9z M253.4,198.5l0.8,2.8c0.6,2-1.2,4.3-3.9,5.2
		l-2.9-10.4C250.1,195.5,252.8,196.6,253.4,198.5z"/>
	<path class="st5" d="M327.2,368.5H143.4V209h183.8c15.9,0,28.9,12.9,28.9,28.9v101.8C356.1,355.6,343.2,368.5,327.2,368.5z"/>
	<path class="st6" d="M327.2,209h-78v159.5h78c15.9,0,28.9-12.9,28.9-28.9V237.9C356.1,222,343.2,209,327.2,209z"/>
</g>
</svg>
