<?xml version="1.0" encoding="utf-8"?>
<!-- Generator: Adobe Illustrator 21.0.1, SVG Export Plug-In . SVG Version: 6.00 Build 0)  -->
<svg version="1.1" id="Layer_1" xmlns="http://www.w3.org/2000/svg" xmlns:xlink="http://www.w3.org/1999/xlink" x="0px" y="0px"
	 viewBox="0 0 500 500" style="enable-background:new 0 0 500 500;" xml:space="preserve">
<style type="text/css">
	.st0{fill:#D72D4E;enable-background:new    ;}
	.st1{fill:#E7ECED;}
	.st2{fill:#C7CAC7;}
	.st3{fill:#1E2834;}
</style>
<g>
	<circle class="st0" cx="249.2" cy="250" r="242"/>
	<g>
		<g>
			<path class="st1" d="M306.1,213.6c-3.8,0-6.9-3.1-6.9-6.9v-66.2c0-25.1-22.4-45.5-49.9-45.5s-49.9,20.4-49.9,45.5v66.2
				c0,3.8-3.1,6.9-6.9,6.9c-3.8,0-6.9-3.1-6.9-6.9v-66.2c0-32.7,28.6-59.3,63.8-59.3s63.8,26.6,63.8,59.3v66.2
				C313,210.5,309.9,213.6,306.1,213.6z"/>
		</g>
		<path class="st1" d="M249.2,190.4c59.6,0,108,48.4,108,108s-48.4,108-108,108s-108-48.4-108-108
			C141.2,238.7,189.6,190.4,249.2,190.4z"/>
		<path class="st2" d="M357.2,298.4c0-59.6-48.4-108-108-108v216C308.9,406.4,357.2,358,357.2,298.4z"/>
		<path class="st3" d="M249.2,326.8L249.2,326.8c-9.4,0-17.1-7.7-17.1-17v-34.1c0-9.4,7.7-17.1,17.1-17.1l0,0
			c9.4,0,17.1,7.7,17.1,17.1v34.1C266.3,319.1,258.6,326.8,249.2,326.8z"/>
	</g>
</g>
</svg>
