<?xml version="1.0" encoding="UTF-8" standalone="no"?>
<!-- Created with Inkscape (http://www.inkscape.org/) -->

<svg
   xmlns:dc="http://purl.org/dc/elements/1.1/"
   xmlns:cc="http://creativecommons.org/ns#"
   xmlns:rdf="http://www.w3.org/1999/02/22-rdf-syntax-ns#"
   xmlns:svg="http://www.w3.org/2000/svg"
   xmlns="http://www.w3.org/2000/svg"
   xmlns:sodipodi="http://sodipodi.sourceforge.net/DTD/sodipodi-0.dtd"
   xmlns:inkscape="http://www.inkscape.org/namespaces/inkscape"
   id="svg2"
   version="1.1"
   inkscape:version="0.91 r13725"
   xml:space="preserve"
   width="625"
   height="625"
   viewBox="0 0 625 625"
   sodipodi:docname="edu-pricing.svg"><metadata
     id="metadata8"><rdf:RDF><cc:Work
         rdf:about=""><dc:format>image/svg+xml</dc:format><dc:type
           rdf:resource="http://purl.org/dc/dcmitype/StillImage" /><dc:title></dc:title></cc:Work></rdf:RDF></metadata><defs
     id="defs6" /><sodipodi:namedview
     pagecolor="#ffffff"
     bordercolor="#666666"
     borderopacity="1"
     objecttolerance="10"
     gridtolerance="10"
     guidetolerance="10"
     inkscape:pageopacity="0"
     inkscape:pageshadow="2"
     inkscape:window-width="1366"
     inkscape:window-height="715"
     id="namedview4"
     showgrid="false"
     inkscape:zoom="0.53400705"
     inkscape:cx="303.85106"
     inkscape:cy="162.29945"
     inkscape:window-x="0"
     inkscape:window-y="21"
     inkscape:window-maximized="1"
     inkscape:current-layer="g12" /><g
     id="g10"
     inkscape:groupmode="layer"
     inkscape:label="ink_ext_XXXXXX"
     transform="matrix(1.25,0,0,-1.25,0,625)"><g
       id="g12"
       transform="scale(0.1,0.1)"><path
         d="m 4469.26,2568.14 c 37.87,0 68.57,30.7 68.57,68.56 0,-37.86 30.69,-68.56 68.56,-68.56 -37.87,0 -68.56,-30.7 -68.56,-68.56 0,37.86 -30.7,68.56 -68.57,68.56"
         style="fill:#ffffff;fill-opacity:1;fill-rule:nonzero;stroke:none"
         id="path36"
         inkscape:connector-curvature="0" /><path
         d="m 4475.36,1169.76 c 37.87,0 68.57,30.69 68.57,68.56 0,-37.87 30.69,-68.56 68.56,-68.56 -37.87,0 -68.56,-30.7 -68.56,-68.57 0,37.87 -30.7,68.57 -68.57,68.57"
         style="fill:#ffffff;fill-opacity:1;fill-rule:nonzero;stroke:none"
         id="path38"
         inkscape:connector-curvature="0" /><path
         d="m 4385.57,3805.47 c 53.53,0 96.92,43.39 96.92,96.92 0,-53.53 43.4,-96.92 96.93,-96.92 -53.53,0 -96.93,-43.4 -96.93,-96.92 0,53.52 -43.39,96.92 -96.92,96.92"
         style="fill:#ffffff;fill-opacity:1;fill-rule:nonzero;stroke:none"
         id="path40"
         inkscape:connector-curvature="0" /><path
         d="m 1194.89,3083.94 c 53.53,0 96.92,43.39 96.92,96.92 0,-53.53 43.39,-96.92 96.92,-96.92 -53.53,0 -96.92,-43.4 -96.92,-96.93 0,53.53 -43.39,96.93 -96.92,96.93"
         style="fill:#ffffff;fill-opacity:1;fill-rule:nonzero;stroke:none"
         id="path42"
         inkscape:connector-curvature="0" /><path
         d="m 1599.95,4462.76 c 25.24,0 45.7,20.46 45.7,45.7 0,-25.24 20.46,-45.7 45.7,-45.7 -25.24,0 -45.7,-20.46 -45.7,-45.7 0,25.24 -20.46,45.7 -45.7,45.7"
         style="fill:#ffffff;fill-opacity:1;fill-rule:nonzero;stroke:none"
         id="path44"
         inkscape:connector-curvature="0" /><path
         d="m 294.301,730.41 c 25.238,0 45.699,20.461 45.699,45.699 0,-25.238 20.461,-45.699 45.699,-45.699 -25.238,0 -45.699,-20.461 -45.699,-45.699 0,25.238 -20.461,45.699 -45.699,45.699"
         style="fill:#ffffff;fill-opacity:1;fill-rule:nonzero;stroke:none"
         id="path46"
         inkscape:connector-curvature="0" /><path
         d="m 2404.71,2885.62 -86.21,-1.49 c -50.45,-0.88 -117.2,49.45 -131.49,98.42 -0.51,1.73 -1.1,3.42 -1.88,5.05 l -41.48,87.43 162.81,-54.86 c 62.65,1.09 244.11,206.74 210.18,-18.65 l 0,0 c 1.09,-62.65 -49.28,-114.81 -111.93,-115.9"
         style="fill:#252b4d;fill-opacity:1;fill-rule:nonzero;stroke:none"
         id="path50"
         inkscape:connector-curvature="0" /><path
         d="m 3195.43,2843.9 -823.84,-170.01 -823.84,-170.01 559.16,-628.46 0.12,-0.13 1088.29,968.27 0.11,0.34"
         style="fill:#e03f2b;fill-opacity:1;fill-rule:nonzero;stroke:none"
         id="path52"
         inkscape:connector-curvature="0" /><path
         d="m 2930.75,2045.43 264.57,798.13 -1088.29,-968.27 559.03,-628.33 264.69,798.47"
         style="fill:#e03f2b;fill-opacity:1;fill-rule:nonzero;stroke:none"
         id="path54"
         inkscape:connector-curvature="0" /><path
         d="m 734.488,1860.27 c -26.234,-21.65 -65.047,-17.93 -86.695,8.3 -21.645,26.23 -17.93,65.04 8.305,86.69 26.23,21.65 65.043,17.93 86.691,-8.3 21.645,-26.23 17.93,-65.05 -8.301,-86.69"
         style="fill:#d1e3e4;fill-opacity:1;fill-rule:nonzero;stroke:none"
         id="path56"
         inkscape:connector-curvature="0" /><path
         d="m 1333.99,2277.29 0,0 c -6.83,8.27 -5.65,20.63 2.63,27.46 l 90.34,74.55 c 8.27,6.82 20.63,5.64 27.46,-2.63 l 0,0 c 6.83,-8.28 5.64,-20.64 -2.63,-27.46 l -90.34,-74.55 c -8.27,-6.83 -20.63,-5.65 -27.46,2.63"
         style="fill:#a8a8ad;fill-opacity:1;fill-rule:nonzero;stroke:none"
         id="path58"
         inkscape:connector-curvature="0" /><path
         d="m 1266.36,2200.72 0,0 c -8.13,9.86 -6.72,24.59 3.14,32.72 l 107.66,88.85 c 9.87,8.14 24.59,6.73 32.73,-3.13 l 0,0 c 8.14,-9.86 6.73,-24.59 -3.13,-32.73 l -107.67,-88.85 c -9.86,-8.14 -24.59,-6.73 -32.73,3.14"
         style="fill:#a8a8ad;fill-opacity:1;fill-rule:nonzero;stroke:none"
         id="path60"
         inkscape:connector-curvature="0" /><path
         d="m 1342.63,2237.67 0,0 c -7.95,9.63 -6.57,24.02 3.06,31.98 l 105.2,86.8 c 9.63,7.95 24.02,6.58 31.97,-3.06 l 0,0 c 7.95,-9.64 6.58,-24.03 -3.06,-31.98 l -105.19,-86.8 c -9.64,-7.95 -24.02,-6.58 -31.98,3.06"
         style="fill:#bababe;fill-opacity:1;fill-rule:nonzero;stroke:none"
         id="path62"
         inkscape:connector-curvature="0" /><path
         d="m 1263.06,2155.82 0,0 c -6.83,8.28 -5.65,20.64 2.63,27.46 l 90.33,74.55 c 8.28,6.83 20.64,5.65 27.46,-2.63 l 0,0 c 6.83,-8.27 5.65,-20.63 -2.63,-27.46 l -90.33,-74.55 c -8.28,-6.82 -20.63,-5.64 -27.46,2.63"
         style="fill:#e5e6ee;fill-opacity:1;fill-rule:nonzero;stroke:none"
         id="path64"
         inkscape:connector-curvature="0" /><path
         d="m 1382.79,2229.34 0,0 c -6.83,8.28 -5.64,20.63 2.63,27.46 l 90.34,74.55 c 8.27,6.83 20.63,5.64 27.46,-2.63 l 0,0 c 6.83,-8.27 5.64,-20.63 -2.63,-27.46 l -90.34,-74.55 c -8.27,-6.83 -20.63,-5.64 -27.46,2.63"
         style="fill:#a8a8ad;fill-opacity:1;fill-rule:nonzero;stroke:none"
         id="path66"
         inkscape:connector-curvature="0" /><path
         d="m 1290.89,2128.21 0,0 c -6.83,8.27 -5.65,20.63 2.63,27.46 l 90.33,74.55 c 8.28,6.82 20.63,5.64 27.46,-2.63 l 0,0 c 6.83,-8.28 5.65,-20.64 -2.63,-27.47 l -90.33,-74.54 c -8.28,-6.83 -20.64,-5.65 -27.46,2.63"
         style="fill:#a8a8ad;fill-opacity:1;fill-rule:nonzero;stroke:none"
         id="path68"
         inkscape:connector-curvature="0" /><path
         d="m 1405.16,2202.24 0,0 c -6.83,8.27 -5.65,20.63 2.63,27.46 l 90.34,74.54 c 8.27,6.83 20.63,5.65 27.46,-2.62 l 0,0 c 6.83,-8.28 5.64,-20.64 -2.63,-27.47 l -90.34,-74.54 c -8.27,-6.83 -20.63,-5.65 -27.46,2.63"
         style="fill:#bababe;fill-opacity:1;fill-rule:nonzero;stroke:none"
         id="path70"
         inkscape:connector-curvature="0" /><path
         d="m 1316.59,2117.02 0,0 c -6.83,8.27 -5.64,20.63 2.63,27.46 l 90.34,74.55 c 8.27,6.83 20.63,5.64 27.46,-2.63 l 0,0 c 6.83,-8.28 5.64,-20.63 -2.63,-27.46 l -90.34,-74.55 c -8.27,-6.83 -20.63,-5.65 -27.46,2.63"
         style="fill:#e5e6ee;fill-opacity:1;fill-rule:nonzero;stroke:none"
         id="path72"
         inkscape:connector-curvature="0" /><path
         d="m 1292.48,2233.3 0,0 c -6.83,8.28 -5.65,20.63 2.63,27.46 l 90.33,74.55 c 8.28,6.83 20.64,5.65 27.46,-2.63 l 0,0 c 6.83,-8.27 5.65,-20.63 -2.63,-27.46 l -90.33,-74.55 c -8.28,-6.83 -20.63,-5.64 -27.46,2.63"
         style="fill:#e5e6ee;fill-opacity:1;fill-rule:nonzero;stroke:none"
         id="path74"
         inkscape:connector-curvature="0" /><path
         d="m 1355.64,2315.01 0,0 c -5.36,6.49 -4.43,16.19 2.07,21.55 l 70.9,58.51 c 6.5,5.36 16.2,4.43 21.56,-2.06 l 0,0 c 5.36,-6.5 4.43,-16.19 -2.07,-21.55 l -70.9,-58.52 c -6.5,-5.36 -16.2,-4.43 -21.56,2.07"
         style="fill:#a8a8ad;fill-opacity:1;fill-rule:nonzero;stroke:none"
         id="path76"
         inkscape:connector-curvature="0" /><path
         d="m 1382.28,2223.33 0,0 c -3.77,4.56 -3.12,11.38 1.45,15.15 l 49.85,41.13 c 4.56,3.77 11.38,3.12 15.15,-1.45 l 0,0 c 3.77,-4.56 3.12,-11.38 -1.45,-15.15 l -49.85,-41.14 c -4.56,-3.76 -11.38,-3.11 -15.15,1.46"
         style="fill:#a8a8ad;fill-opacity:1;fill-rule:nonzero;stroke:none"
         id="path78"
         inkscape:connector-curvature="0" /><path
         d="m 1275.96,2219.67 0,0 c -3.76,4.57 -3.11,11.39 1.46,15.16 l 49.84,41.13 c 4.57,3.77 11.39,3.12 15.16,-1.45 l 0,0 c 3.76,-4.56 3.11,-11.38 -1.45,-15.15 l -49.85,-41.14 c -4.57,-3.77 -11.39,-3.11 -15.16,1.45"
         style="fill:#bababe;fill-opacity:1;fill-rule:nonzero;stroke:none"
         id="path80"
         inkscape:connector-curvature="0" /><path
         d="m 1402.76,2180.07 0,0 c -3.76,4.57 -3.11,11.39 1.46,15.15 l 49.84,41.14 c 4.57,3.77 11.39,3.11 15.16,-1.45 l 0,0 c 3.76,-4.57 3.11,-11.39 -1.45,-15.16 l -49.85,-41.13 c -4.57,-3.77 -11.39,-3.12 -15.16,1.45"
         style="fill:#a8a8ad;fill-opacity:1;fill-rule:nonzero;stroke:none"
         id="path82"
         inkscape:connector-curvature="0" /><path
         d="m 1363.11,2102.92 c -29,-23.93 -71.91,-19.82 -95.84,9.18 -23.93,28.99 -19.82,71.9 9.18,95.83 29,23.93 71.9,19.83 95.84,-9.17 23.93,-29 19.82,-71.91 -9.18,-95.84"
         style="fill:#d1e3e4;fill-opacity:1;fill-rule:nonzero;stroke:none"
         id="path84"
         inkscape:connector-curvature="0" /><path
         d="m 1258.18,2131 c -26.86,-22.17 -66.61,-18.36 -88.77,8.5 -22.17,26.86 -18.36,66.61 8.5,88.77 26.86,22.17 66.6,18.36 88.77,-8.5 22.16,-26.86 18.36,-66.61 -8.5,-88.77"
         style="fill:#d1e3e4;fill-opacity:1;fill-rule:nonzero;stroke:none"
         id="path86"
         inkscape:connector-curvature="0" /><path
         d="m 1291.23,1929.97 c -43.64,-36.01 -108.22,-29.83 -144.24,13.81 -36.01,43.65 -29.83,108.23 13.82,144.24 43.64,36.02 108.22,29.83 144.23,-13.81 36.02,-43.64 29.83,-108.22 -13.81,-144.24"
         style="fill:#d1e3e4;fill-opacity:1;fill-rule:nonzero;stroke:none"
         id="path88"
         inkscape:connector-curvature="0" /><path
         d="m 1180.12,1972.51 c -45.51,-37.56 -112.85,-31.11 -150.41,14.4 -37.554,45.51 -31.105,112.85 14.4,150.41 45.51,37.55 112.85,31.1 150.41,-14.41 37.56,-45.51 31.11,-112.85 -14.4,-150.4"
         style="fill:#d1e3e4;fill-opacity:1;fill-rule:nonzero;stroke:none"
         id="path90"
         inkscape:connector-curvature="0" /><path
         d="m 1122.38,1778.22 c -52.97,-43.72 -131.353,-36.21 -175.067,16.76 -43.715,52.98 -36.211,131.36 16.765,175.08 52.972,43.71 131.352,36.21 175.072,-16.77 43.71,-52.97 36.21,-131.35 -16.77,-175.07"
         style="fill:#d1e3e4;fill-opacity:1;fill-rule:nonzero;stroke:none"
         id="path92"
         inkscape:connector-curvature="0" /><path
         d="m 1021.63,1863.84 c -43.087,-35.55 -106.837,-29.45 -142.396,13.64 -35.554,43.08 -29.449,106.84 13.637,142.39 43.086,35.56 106.836,29.45 142.389,-13.63 35.56,-43.09 29.45,-106.84 -13.63,-142.4"
         style="fill:#d1e3e4;fill-opacity:1;fill-rule:nonzero;stroke:none"
         id="path94"
         inkscape:connector-curvature="0" /><path
         d="m 949.898,1701.97 c -77.343,-63.82 -191.781,-52.87 -255.605,24.48 -63.824,77.34 -52.867,191.78 24.477,255.6 77.339,63.83 191.781,52.87 255.605,-24.47 63.825,-77.35 52.865,-191.78 -24.477,-255.61"
         style="fill:#d1e3e4;fill-opacity:1;fill-rule:nonzero;stroke:none"
         id="path96"
         inkscape:connector-curvature="0" /><path
         d="m 760.297,1557.89 c -57.918,-47.79 -143.617,-39.59 -191.414,18.33 -47.797,57.92 -39.59,143.62 18.328,191.41 57.918,47.8 143.617,39.59 191.414,-18.33 47.793,-57.92 39.59,-143.61 -18.328,-191.41"
         style="fill:#d1e3e4;fill-opacity:1;fill-rule:nonzero;stroke:none"
         id="path98"
         inkscape:connector-curvature="0" /><path
         d="m 908.074,1576.81 c -29.668,-24.49 -73.558,-20.28 -98.043,9.38 -24.476,29.67 -20.273,73.56 9.391,98.04 29.664,24.48 73.558,20.28 98.039,-9.38 24.48,-29.67 20.277,-73.56 -9.387,-98.04"
         style="fill:#d1e3e4;fill-opacity:1;fill-rule:nonzero;stroke:none"
         id="path100"
         inkscape:connector-curvature="0" /><path
         d="m 1116.35,1749.06 c 27.83,-33.73 23.05,-83.63 -10.67,-111.46 -33.73,-27.83 -83.64,-23.06 -111.465,10.67 -27.832,33.73 -23.055,83.63 10.675,111.46 33.72,27.84 83.63,23.06 111.46,-10.67"
         style="fill:#d1e3e4;fill-opacity:1;fill-rule:nonzero;stroke:none"
         id="path102"
         inkscape:connector-curvature="0" /><path
         d="m 988.48,1653.2 c -34.273,-28.28 -84.988,-23.42 -113.269,10.85 -28.285,34.27 -23.43,84.99 10.844,113.27 34.273,28.28 84.988,23.43 113.269,-10.85 28.286,-34.27 23.426,-84.98 -10.844,-113.27"
         style="fill:#d1e3e4;fill-opacity:1;fill-rule:nonzero;stroke:none"
         id="path104"
         inkscape:connector-curvature="0" /><path
         d="m 1292.36,2019.09 c -29.16,-24.06 -72.3,-19.93 -96.36,9.23 -24.06,29.15 -19.93,72.3 9.23,96.36 29.15,24.06 72.3,19.93 96.36,-9.23 24.06,-29.16 19.93,-72.3 -9.23,-96.36"
         style="fill:#d1e3e4;fill-opacity:1;fill-rule:nonzero;stroke:none"
         id="path106"
         inkscape:connector-curvature="0" /><path
         d="m 1514.2,2269.12 -94.89,106.65 20.34,105.74 186.67,-209.8 -112.12,-2.59"
         style="fill:#ae3f2b;fill-opacity:1;fill-rule:nonzero;stroke:none"
         id="path108"
         inkscape:connector-curvature="0" /><path
         d="m 1588.02,2265.63 -158.86,178.55 c -6.85,7.69 -6.15,19.59 1.54,26.43 l 0,0 c 7.69,6.84 19.58,6.15 26.43,-1.54 l 158.86,-178.56 c 6.84,-7.69 6.15,-19.58 -1.54,-26.42 l 0,0 c -7.69,-6.84 -19.59,-6.15 -26.43,1.54"
         style="fill:#ff3f2b;fill-opacity:1;fill-rule:nonzero;stroke:none"
         id="path110"
         inkscape:connector-curvature="0" /><path
         d="m 1939.71,505.66 c -24.55,-23.531 -25.37,-62.512 -1.84,-87.07 23.54,-24.551 62.52,-25.371 87.07,-1.828 24.55,23.527 25.38,62.508 1.84,87.07 -23.53,24.547 -62.52,25.367 -87.07,1.828"
         style="fill:#d1e3e4;fill-opacity:1;fill-rule:nonzero;stroke:none"
         id="path112"
         inkscape:connector-curvature="0" /><path
         d="m 2423.63,1052.59 0,0 c 7.42,-7.74 19.84,-8 27.58,-0.58 l 84.55,81.05 c 7.74,7.43 8.01,19.84 0.58,27.59 l 0,0 c -7.42,7.74 -19.83,8 -27.58,0.58 l -84.55,-81.05 c -7.74,-7.43 -8,-19.84 -0.58,-27.59"
         style="fill:#a8a8ad;fill-opacity:1;fill-rule:nonzero;stroke:none"
         id="path114"
         inkscape:connector-curvature="0" /><path
         d="m 2339.71,994.34 0,0 c 8.85,-9.238 23.64,-9.551 32.87,-0.699 l 100.77,96.599 c 9.23,8.85 9.54,23.64 0.7,32.87 l 0,0 c -8.85,9.23 -23.65,9.55 -32.88,0.7 l -100.76,-96.6 c -9.23,-8.85 -9.55,-23.64 -0.7,-32.87"
         style="fill:#a8a8ad;fill-opacity:1;fill-rule:nonzero;stroke:none"
         id="path116"
         inkscape:connector-curvature="0" /><path
         d="m 2385.29,1065.79 0,0 c 8.64,-9.02 23.1,-9.33 32.11,-0.68 l 98.45,94.38 c 9.02,8.64 9.33,23.1 0.68,32.11 l 0,0 c -8.64,9.02 -23.09,9.33 -32.11,0.68 l -98.45,-94.38 c -9.02,-8.64 -9.33,-23.1 -0.68,-32.11"
         style="fill:#bababe;fill-opacity:1;fill-rule:nonzero;stroke:none"
         id="path118"
         inkscape:connector-curvature="0" /><path
         d="m 2294.74,996.27 0,0 c 7.43,-7.739 19.84,-8.008 27.58,-0.579 l 84.55,81.049 c 7.75,7.43 8.01,19.84 0.58,27.58 l 0,0 c -7.42,7.75 -19.83,8.01 -27.58,0.58 l -84.55,-81.05 c -7.74,-7.42 -8,-19.83 -0.58,-27.58"
         style="fill:#e5e6ee;fill-opacity:1;fill-rule:nonzero;stroke:none"
         id="path120"
         inkscape:connector-curvature="0" /><path
         d="m 2381.69,1106.64 0,0 c 7.42,-7.74 19.83,-8 27.58,-0.58 l 84.55,81.05 c 7.74,7.43 8,19.84 0.58,27.58 l 0,0 c -7.43,7.75 -19.84,8.01 -27.58,0.59 l -84.55,-81.06 c -7.75,-7.42 -8.01,-19.83 -0.58,-27.58"
         style="fill:#a8a8ad;fill-opacity:1;fill-rule:nonzero;stroke:none"
         id="path122"
         inkscape:connector-curvature="0" /><path
         d="m 2270.55,1027.12 0,0 c 7.42,-7.74 19.83,-8 27.58,-0.58 l 84.55,81.05 c 7.74,7.43 8,19.84 0.58,27.58 l 0,0 c -7.42,7.75 -19.84,8.01 -27.58,0.59 l -84.55,-81.06 c -7.74,-7.42 -8.01,-19.83 -0.58,-27.58"
         style="fill:#a8a8ad;fill-opacity:1;fill-rule:nonzero;stroke:none"
         id="path124"
         inkscape:connector-curvature="0" /><path
         d="m 2357.37,1132.01 0,0 c 7.42,-7.74 19.83,-8.01 27.58,-0.58 l 84.55,81.05 c 7.74,7.43 8,19.84 0.58,27.58 l 0,0 c -7.42,7.75 -19.84,8.01 -27.58,0.58 l -84.55,-81.05 c -7.74,-7.42 -8.01,-19.83 -0.58,-27.58"
         style="fill:#bababe;fill-opacity:1;fill-rule:nonzero;stroke:none"
         id="path126"
         inkscape:connector-curvature="0" /><path
         d="m 2262.43,1053.96 0,0 c 7.42,-7.75 19.83,-8.01 27.58,-0.59 l 84.55,81.06 c 7.74,7.42 8,19.83 0.58,27.58 l 0,0 c -7.43,7.74 -19.84,8 -27.58,0.58 l -84.55,-81.05 c -7.75,-7.43 -8.01,-19.84 -0.58,-27.58"
         style="fill:#e5e6ee;fill-opacity:1;fill-rule:nonzero;stroke:none"
         id="path128"
         inkscape:connector-curvature="0" /><path
         d="m 2375.12,1016.48 0,0 c 7.42,-7.74 19.83,-8.01 27.58,-0.58 l 84.55,81.05 c 7.74,7.42 8,19.84 0.58,27.58 l 0,0 c -7.43,7.75 -19.84,8.01 -27.58,0.58 l -84.55,-81.05 c -7.75,-7.42 -8.01,-19.84 -0.58,-27.58"
         style="fill:#e5e6ee;fill-opacity:1;fill-rule:nonzero;stroke:none"
         id="path130"
         inkscape:connector-curvature="0" /><path
         d="m 2463.61,1069.71 0,0 c 5.83,-6.08 15.57,-6.28 21.65,-0.45 l 66.36,63.62 c 6.08,5.82 6.29,15.56 0.46,21.64 l 0,0 c -5.83,6.08 -15.57,6.29 -21.65,0.46 l -66.36,-63.62 c -6.08,-5.83 -6.28,-15.57 -0.46,-21.65"
         style="fill:#a8a8ad;fill-opacity:1;fill-rule:nonzero;stroke:none"
         id="path132"
         inkscape:connector-curvature="0" /><path
         d="m 2375.65,1106.83 0,0 c 4.1,-4.27 10.95,-4.42 15.22,-0.32 l 46.66,44.73 c 4.27,4.09 4.41,10.94 0.32,15.21 l 0,0 c -4.1,4.28 -10.95,4.42 -15.22,0.33 l -46.66,-44.73 c -4.27,-4.1 -4.41,-10.94 -0.32,-15.22"
         style="fill:#a8a8ad;fill-opacity:1;fill-rule:nonzero;stroke:none"
         id="path134"
         inkscape:connector-curvature="0" /><path
         d="m 2359.66,1001.66 0,0 c 4.1,-4.269 10.95,-4.422 15.22,-0.32 l 46.65,44.73 c 4.28,4.09 4.42,10.94 0.33,15.22 l 0,0 c -4.1,4.27 -10.95,4.41 -15.22,0.32 l -46.66,-44.73 c -4.27,-4.09 -4.42,-10.94 -0.32,-15.22"
         style="fill:#bababe;fill-opacity:1;fill-rule:nonzero;stroke:none"
         id="path136"
         inkscape:connector-curvature="0" /><path
         d="m 2335.07,1132.21 0,0 c 4.1,-4.27 10.95,-4.42 15.22,-0.32 l 46.66,44.72 c 4.27,4.1 4.41,10.95 0.32,15.22 l 0,0 c -4.1,4.28 -10.95,4.42 -15.22,0.32 l -46.66,-44.72 c -4.27,-4.1 -4.41,-10.95 -0.32,-15.22"
         style="fill:#a8a8ad;fill-opacity:1;fill-rule:nonzero;stroke:none"
         id="path138"
         inkscape:connector-curvature="0" /><path
         d="m 2253.83,1101.8 c -27.14,-26.02 -28.05,-69.12 -2.03,-96.26 26.02,-27.142 69.11,-28.052 96.26,-2.03 27.14,26.02 28.05,69.11 2.03,96.26 -26.02,27.14 -69.12,28.05 -96.26,2.03"
         style="fill:#d1e3e4;fill-opacity:1;fill-rule:nonzero;stroke:none"
         id="path140"
         inkscape:connector-curvature="0" /><path
         d="m 2269.52,994.309 c -25.14,-24.098 -25.98,-64.008 -1.88,-89.149 24.1,-25.148 64.01,-25.988 89.15,-1.89 25.14,24.101 25.99,64.019 1.89,89.16 -24.1,25.14 -64.02,25.98 -89.16,1.879"
         style="fill:#d1e3e4;fill-opacity:1;fill-rule:nonzero;stroke:none"
         id="path142"
         inkscape:connector-curvature="0" /><path
         d="m 2073.7,1050.52 c -40.85,-39.16 -42.22,-104.008 -3.06,-144.86 39.16,-40.851 104.02,-42.219 144.87,-3.058 40.84,39.16 42.21,104.018 3.05,144.858 -39.15,40.85 -104.01,42.22 -144.86,3.06"
         style="fill:#d1e3e4;fill-opacity:1;fill-rule:nonzero;stroke:none"
         id="path144"
         inkscape:connector-curvature="0" /><path
         d="m 2103.02,935.219 c -42.59,-40.84 -44.02,-108.469 -3.19,-151.059 40.84,-42.601 108.47,-44.031 151.06,-3.191 42.6,40.832 44.03,108.461 3.19,151.062 -40.83,42.59 -108.46,44.02 -151.06,3.188"
         style="fill:#d1e3e4;fill-opacity:1;fill-rule:nonzero;stroke:none"
         id="path146"
         inkscape:connector-curvature="0" /><path
         d="m 1903.34,900.469 c -49.58,-47.528 -51.24,-126.25 -3.71,-175.828 47.53,-49.582 126.25,-51.243 175.83,-3.711 49.58,47.531 51.24,126.25 3.71,175.832 -47.53,49.578 -126.25,51.238 -175.83,3.707"
         style="fill:#d1e3e4;fill-opacity:1;fill-rule:nonzero;stroke:none"
         id="path148"
         inkscape:connector-curvature="0" /><path
         d="m 1976.66,790.441 c -40.32,-38.66 -41.68,-102.679 -3.02,-143.011 38.66,-40.328 102.69,-41.68 143.01,-3.02 40.33,38.66 41.68,102.692 3.02,143.012 -38.65,40.328 -102.68,41.68 -143.01,3.019"
         style="fill:#d1e3e4;fill-opacity:1;fill-rule:nonzero;stroke:none"
         id="path150"
         inkscape:connector-curvature="0" /><path
         d="m 1807.55,738.031 c -72.39,-69.402 -74.82,-184.332 -5.42,-256.722 69.39,-72.387 184.33,-74.821 256.71,-5.418 72.39,69.39 74.82,184.328 5.42,256.711 -69.39,72.386 -184.33,74.82 -256.71,5.429"
         style="fill:#d1e3e4;fill-opacity:1;fill-rule:nonzero;stroke:none"
         id="path152"
         inkscape:connector-curvature="0" /><path
         d="m 1642.39,566.469 c -54.21,-51.969 -56.03,-138.039 -4.06,-192.25 51.97,-54.207 138.04,-56.02 192.25,-4.059 54.2,51.969 56.02,138.039 4.06,192.25 -51.97,54.211 -138.04,56.02 -192.25,4.059"
         style="fill:#d1e3e4;fill-opacity:1;fill-rule:nonzero;stroke:none"
         id="path154"
         inkscape:connector-curvature="0" /><path
         d="m 1678.36,711.039 c -27.76,-26.609 -28.69,-70.699 -2.07,-98.457 26.61,-27.773 70.7,-28.703 98.46,-2.082 27.77,26.609 28.7,70.699 2.08,98.461 -26.62,27.769 -70.7,28.699 -98.47,2.078"
         style="fill:#d1e3e4;fill-opacity:1;fill-rule:nonzero;stroke:none"
         id="path156"
         inkscape:connector-curvature="0" /><path
         d="m 1873.68,897.871 c -30.27,31.57 -80.39,32.621 -111.95,2.359 -31.57,-30.261 -32.63,-80.378 -2.37,-111.941 30.26,-31.57 80.39,-32.629 111.95,-2.367 31.57,30.258 32.63,80.379 2.37,111.949"
         style="fill:#d1e3e4;fill-opacity:1;fill-rule:nonzero;stroke:none"
         id="path158"
         inkscape:connector-curvature="0" /><path
         d="m 1763.6,782.02 c -32.08,-30.75 -33.16,-81.688 -2.41,-113.758 30.75,-32.082 81.69,-33.16 113.77,-2.41 32.07,30.75 33.15,81.687 2.4,113.769 -30.75,32.07 -81.69,33.149 -113.76,2.399"
         style="fill:#d1e3e4;fill-opacity:1;fill-rule:nonzero;stroke:none"
         id="path160"
         inkscape:connector-curvature="0" /><path
         d="m 2162.34,1041.28 c -27.29,-26.16 -28.2,-69.491 -2.04,-96.78 26.16,-27.289 69.49,-28.211 96.78,-2.051 27.29,26.172 28.21,69.501 2.04,96.791 -26.16,27.29 -69.49,28.2 -96.78,2.04"
         style="fill:#d1e3e4;fill-opacity:1;fill-rule:nonzero;stroke:none"
         id="path162"
         inkscape:connector-curvature="0" /><path
         d="m 2526.66,1131.17 -94.89,106.65 20.34,105.74 186.67,-209.81 -112.12,-2.58"
         style="fill:#ae3f2b;fill-opacity:1;fill-rule:nonzero;stroke:none"
         id="path164"
         inkscape:connector-curvature="0" /><path
         d="m 1621.18,1599.95 0,0 c -15.53,17.46 -13.96,44.45 3.5,59.99 l 190.6,169.58 c 17.46,15.53 44.46,13.96 59.99,-3.5 l 0,0 c 15.54,-17.46 13.96,-44.46 -3.5,-59.99 l -190.6,-169.58 c -17.46,-15.54 -44.45,-13.96 -59.99,3.5"
         style="fill:#a8a8ad;fill-opacity:1;fill-rule:nonzero;stroke:none"
         id="path166"
         inkscape:connector-curvature="0" /><path
         d="m 1480.18,1427.8 0,0 c -18.51,20.81 -16.64,52.98 4.17,71.49 l 227.17,202.12 c 20.8,18.51 52.98,16.63 71.49,-4.17 l 0,0 c 18.51,-20.81 16.64,-52.99 -4.17,-71.5 l -227.16,-202.11 c -20.81,-18.52 -52.99,-16.64 -71.5,4.17"
         style="fill:#a8a8ad;fill-opacity:1;fill-rule:nonzero;stroke:none"
         id="path168"
         inkscape:connector-curvature="0" /><path
         d="m 1643.2,1514.41 0,0 c -18.09,20.33 -16.25,51.77 4.08,69.85 l 221.94,197.47 c 20.33,18.09 51.76,16.26 69.85,-4.07 l 0,0 c 18.09,-20.33 16.26,-51.77 -4.07,-69.86 l -221.95,-197.46 c -20.33,-18.09 -51.76,-16.26 -69.85,4.07"
         style="fill:#bababe;fill-opacity:1;fill-rule:nonzero;stroke:none"
         id="path170"
         inkscape:connector-curvature="0" /><path
         d="m 1476.62,1329.82 0,0 c -15.54,17.46 -13.96,44.45 3.5,59.98 l 190.6,169.59 c 17.46,15.53 44.45,13.96 59.98,-3.5 l 0,0 c 15.54,-17.46 13.96,-44.46 -3.5,-59.99 l -190.6,-169.58 c -17.46,-15.54 -44.45,-13.96 -59.98,3.5"
         style="fill:#e5e6ee;fill-opacity:1;fill-rule:nonzero;stroke:none"
         id="path172"
         inkscape:connector-curvature="0" /><path
         d="m 1731.29,1499.54 0,0 c -15.53,17.46 -13.96,44.45 3.5,59.98 l 190.6,169.59 c 17.46,15.53 44.46,13.96 59.99,-3.5 l 0,0 c 15.54,-17.46 13.96,-44.46 -3.5,-59.99 l -190.6,-169.58 c -17.46,-15.54 -44.45,-13.96 -59.99,3.5"
         style="fill:#a8a8ad;fill-opacity:1;fill-rule:nonzero;stroke:none"
         id="path174"
         inkscape:connector-curvature="0" /><path
         d="m 1539.43,1271.95 -0.01,0 c -15.53,17.46 -13.95,44.46 3.51,59.99 l 190.6,169.58 c 17.46,15.54 44.45,13.96 59.98,-3.5 l 0,0 c 15.54,-17.46 13.96,-44.45 -3.5,-59.98 l -190.6,-169.59 c -17.46,-15.53 -44.45,-13.95 -59.98,3.5"
         style="fill:#a8a8ad;fill-opacity:1;fill-rule:nonzero;stroke:none"
         id="path176"
         inkscape:connector-curvature="0" /><path
         d="m 1782.17,1442.35 0,0 c -15.53,17.46 -13.95,44.45 3.5,59.99 l 190.61,169.58 c 17.45,15.53 44.45,13.96 59.98,-3.5 l 0,0 c 15.54,-17.46 13.96,-44.45 -3.5,-59.99 l -190.6,-169.58 c -17.46,-15.53 -44.45,-13.96 -59.99,3.5"
         style="fill:#bababe;fill-opacity:1;fill-rule:nonzero;stroke:none"
         id="path178"
         inkscape:connector-curvature="0" /><path
         d="m 1596.28,1249.68 0,0 c -15.53,17.46 -13.95,44.46 3.51,59.99 l 190.6,169.58 c 17.46,15.54 44.45,13.96 59.98,-3.5 l 0,0 c 15.54,-17.46 13.96,-44.45 -3.5,-59.98 l -190.6,-169.59 c -17.46,-15.53 -44.45,-13.96 -59.99,3.5"
         style="fill:#e5e6ee;fill-opacity:1;fill-rule:nonzero;stroke:none"
         id="path180"
         inkscape:connector-curvature="0" /><path
         d="m 1534.38,1500.85 0,0 c -15.53,17.46 -13.96,44.45 3.5,59.98 l 190.6,169.59 c 17.46,15.53 44.46,13.95 59.99,-3.5 l 0,-0.01 c 15.53,-17.45 13.96,-44.45 -3.5,-59.98 l -190.6,-169.58 c -17.46,-15.54 -44.45,-13.96 -59.99,3.5"
         style="fill:#e5e6ee;fill-opacity:1;fill-rule:nonzero;stroke:none"
         id="path182"
         inkscape:connector-curvature="0" /><path
         d="m 1730.66,1486.4 0,0 c -8.57,9.63 -7.7,24.53 1.93,33.1 l 105.18,93.58 c 9.63,8.57 24.53,7.7 33.1,-1.93 l 0,0 c 8.57,-9.64 7.7,-24.53 -1.93,-33.1 l -105.18,-93.58 c -9.63,-8.57 -24.53,-7.7 -33.1,1.93"
         style="fill:#a8a8ad;fill-opacity:1;fill-rule:nonzero;stroke:none"
         id="path184"
         inkscape:connector-curvature="0" /><path
         d="m 1499.54,1469.85 0,0 c -8.57,9.63 -7.7,24.53 1.93,33.1 l 105.18,93.57 c 9.63,8.58 24.53,7.71 33.1,-1.93 l 0,0 c 8.57,-9.63 7.7,-24.53 -1.93,-33.1 l -105.18,-93.57 c -9.63,-8.58 -24.53,-7.71 -33.1,1.93"
         style="fill:#bababe;fill-opacity:1;fill-rule:nonzero;stroke:none"
         id="path186"
         inkscape:connector-curvature="0" /><path
         d="m 1778.75,1393.91 0,0 c -8.57,9.63 -7.7,24.53 1.94,33.1 l 105.17,93.57 c 9.63,8.57 24.53,7.71 33.1,-1.93 l 0,0 c 8.57,-9.63 7.71,-24.53 -1.93,-33.1 l -105.17,-93.58 c -9.64,-8.57 -24.53,-7.7 -33.11,1.94"
         style="fill:#a8a8ad;fill-opacity:1;fill-rule:nonzero;stroke:none"
         id="path188"
         inkscape:connector-curvature="0" /><path
         d="m 1698.68,1222.76 c -61.18,-54.44 -154.92,-48.97 -209.35,12.21 -54.44,61.19 -48.97,154.92 12.21,209.36 61.19,54.44 154.92,48.97 209.36,-12.22 54.44,-61.18 48.97,-154.91 -12.22,-209.35"
         style="fill:#d1e3e4;fill-opacity:1;fill-rule:nonzero;stroke:none"
         id="path190"
         inkscape:connector-curvature="0" /><path
         d="m 1468.01,1275.39 c -56.68,-50.43 -143.5,-45.36 -193.92,11.31 -50.43,56.68 -45.36,143.5 11.31,193.92 56.68,50.42 143.5,45.36 193.92,-11.32 50.43,-56.67 45.36,-143.49 -11.31,-193.91"
         style="fill:#d1e3e4;fill-opacity:1;fill-rule:nonzero;stroke:none"
         id="path192"
         inkscape:connector-curvature="0" /><path
         d="m 1556.23,831.102 c -92.09,-81.93 -233.15,-73.692 -315.08,18.39 -81.93,92.078 -73.7,233.148 18.38,315.078 92.09,81.93 233.15,73.7 315.08,-18.39 81.93,-92.08 73.7,-233.149 -18.38,-315.078"
         style="fill:#d1e3e4;fill-opacity:1;fill-rule:nonzero;stroke:none"
         id="path194"
         inkscape:connector-curvature="0" /><path
         d="m 1310.92,914.691 c -96.02,-85.429 -243.12,-76.851 -328.553,19.18 -85.433,96.019 -76.851,243.119 19.173,328.549 96.02,85.44 243.12,76.85 328.56,-19.17 85.43,-96.02 76.85,-243.12 -19.18,-328.559"
         style="fill:#d1e3e4;fill-opacity:1;fill-rule:nonzero;stroke:none"
         id="path196"
         inkscape:connector-curvature="0" /><path
         d="m 1200.98,496.488 c -111.77,-99.437 -282.992,-89.449 -382.437,22.321 -99.445,111.773 -89.453,282.992 22.316,382.441 111.774,99.44 282.991,89.449 382.441,-22.32 99.44,-111.77 89.45,-282.989 -22.32,-382.442"
         style="fill:#d1e3e4;fill-opacity:1;fill-rule:nonzero;stroke:none"
         id="path198"
         inkscape:connector-curvature="0" /><path
         d="m 1551.47,1034.56 c -61.52,-54.74 -155.76,-49.24 -210.5,12.28 -54.74,61.52 -49.24,155.76 12.29,210.5 61.51,54.73 155.76,49.24 210.49,-12.28 54.74,-61.52 49.24,-155.77 -12.28,-210.5"
         style="fill:#d1e3e4;fill-opacity:1;fill-rule:nonzero;stroke:none"
         id="path200"
         inkscape:connector-curvature="0" /><path
         d="m 1837.22,2026.7 -42.56,-221.3 99.68,-112.04 133.66,118.93 -190.78,214.41"
         style="fill:#e03f2b;fill-opacity:1;fill-rule:nonzero;stroke:none"
         id="path202"
         inkscape:connector-curvature="0" /><path
         d="m 2227.91,1587.59 -199.91,224.7 -133.66,-118.93 98.92,-111.18 234.65,5.41"
         style="fill:#ae3f2b;fill-opacity:1;fill-rule:nonzero;stroke:none"
         id="path204"
         inkscape:connector-curvature="0" /><path
         d="m 2147.76,1574.88 -332.49,373.7 c -14.32,16.1 -12.87,40.99 3.23,55.31 l 0,0 c 16.1,14.32 40.98,12.87 55.31,-3.23 l 332.49,-373.7 c 14.32,-16.1 12.87,-40.99 -3.23,-55.31 l 0,0 c -16.1,-14.32 -40.98,-12.87 -55.31,3.23"
         style="fill:#ff3f2b;fill-opacity:1;fill-rule:nonzero;stroke:none"
         id="path206"
         inkscape:connector-curvature="0" /><path
         d="m 3208.61,3421.2 277.35,-311.73 535.77,476.7 c -64.73,-1.82 -419.34,-18.31 -813.12,-164.97"
         style="fill:#e03f2b;fill-opacity:1;fill-rule:nonzero;stroke:none"
         id="path208"
         inkscape:connector-curvature="0" /><path
         d="m 4032.33,3586.39 c 0,0 -3.69,-0.03 -10.6,-0.22 l -535.77,-476.7 286.49,-322 c 211.89,413.98 259.88,798.92 259.88,798.92"
         style="fill:#ae3f2b;fill-opacity:1;fill-rule:nonzero;stroke:none"
         id="path210"
         inkscape:connector-curvature="0" /><path
         d="M 3208.61,3421.2 C 2994.6,3341.5 2769.04,3223.36 2572.2,3048.22 2191.73,2709.71 1925.74,2334.99 1836.43,2046.79 l 201.1,-226.03 1448.43,1288.71 -277.35,311.73"
         style="fill:#ffffff;fill-opacity:1;fill-rule:nonzero;stroke:none"
         id="path212"
         inkscape:connector-curvature="0" /><path
         d="m 3327.98,2198.76 c 196.85,175.15 340.41,385.43 444.47,588.71 l -286.49,322 -1448.43,-1288.71 210.23,-236.29 c 296.64,55.18 699.76,275.79 1080.22,614.29"
         style="fill:#e5e8e6;fill-opacity:1;fill-rule:nonzero;stroke:none"
         id="path214"
         inkscape:connector-curvature="0" /><path
         d="m 2199.23,1575.97 -376.89,423.6 c -16.23,18.24 -14.59,46.46 3.66,62.69 l 0,0 c 18.25,16.24 46.46,14.59 62.69,-3.66 l 376.89,-423.59 c 16.23,-18.25 14.59,-46.46 -3.66,-62.7 l 0,0 c -18.25,-16.23 -46.46,-14.59 -62.69,3.66"
         style="fill:#e03f2b;fill-opacity:1;fill-rule:nonzero;stroke:none"
         id="path216"
         inkscape:connector-curvature="0" /><path
         d="m 2072.57,1851.94 193.01,-216.93 c 16.23,-18.25 14.59,-46.46 -3.66,-62.7 l 0,0 c -18.25,-16.23 -46.46,-14.59 -62.69,3.66 l -193.02,216.94 66.36,59.03"
         style="fill:#ae3f2b;fill-opacity:1;fill-rule:nonzero;stroke:none"
         id="path218"
         inkscape:connector-curvature="0" /><path
         d="m 2600.49,1127.68 -158.87,178.55 c -6.84,7.69 -6.14,19.59 1.55,26.43 l 0,0 c 7.69,6.84 19.58,6.15 26.42,-1.54 l 158.86,-178.56 c 6.85,-7.69 6.15,-19.58 -1.54,-26.42 l 0,0 c -7.69,-6.85 -19.58,-6.15 -26.42,1.54"
         style="fill:#ff3f2b;fill-opacity:1;fill-rule:nonzero;stroke:none"
         id="path220"
         inkscape:connector-curvature="0" /><path
         d="m 2646.14,1136.71 c 85.87,34.84 185,97.7 279.97,182.19 202.99,180.61 239.21,471.27 239.21,471.27 0,0 -292.9,-2.16 -495.9,-182.77 -94.96,-84.5 -168.93,-175.64 -213.52,-256.87 l 190.24,-213.82"
         style="fill:#ae3f2b;fill-opacity:1;fill-rule:nonzero;stroke:none"
         id="path222"
         inkscape:connector-curvature="0" /><path
         d="m 1633.68,2274.66 c 85.87,34.84 184.99,97.7 279.96,182.2 202.99,180.6 239.21,471.26 239.21,471.26 0,0 -292.9,-2.16 -495.89,-182.77 -94.97,-84.49 -168.93,-175.63 -213.52,-256.87 l 190.24,-213.82"
         style="fill:#ae3f2b;fill-opacity:1;fill-rule:nonzero;stroke:none"
         id="path224"
         inkscape:connector-curvature="0" /><path
         d="M 2625.08,1128.2 2445,1330.59 c -7.75,8.72 -6.97,22.2 1.75,29.96 l 0,0 c 8.72,7.75 22.2,6.97 29.96,-1.75 l 180.07,-202.39 c 7.75,-8.72 6.97,-22.2 -1.75,-29.96 l 0,0 c -8.72,-7.75 -22.2,-6.97 -29.95,1.75"
         style="fill:#e03f2b;fill-opacity:1;fill-rule:nonzero;stroke:none"
         id="path226"
         inkscape:connector-curvature="0" /><path
         d="m 1612.61,2266.15 -180.07,202.39 c -7.76,8.72 -6.97,22.2 1.75,29.96 l 0,0 c 8.71,7.76 22.19,6.97 29.95,-1.75 l 180.07,-202.39 c 7.76,-8.72 6.97,-22.2 -1.74,-29.96 l 0,0 c -8.72,-7.75 -22.2,-6.97 -29.96,1.75"
         style="fill:#e03f2b;fill-opacity:1;fill-rule:nonzero;stroke:none"
         id="path228"
         inkscape:connector-curvature="0" /><path
         d="m 3307.93,2656.71 c -90.97,-80.94 -230.33,-72.81 -311.27,18.17 -80.94,90.97 -72.81,230.33 18.17,311.27 90.97,80.94 230.33,72.81 311.27,-18.17 80.94,-90.97 72.81,-230.33 -18.17,-311.27"
         style="fill:#58acb6;fill-opacity:1;fill-rule:nonzero;stroke:none"
         id="path230"
         inkscape:connector-curvature="0" /><path
         d="m 3326.1,2967.98 c 80.94,-90.97 72.81,-230.33 -18.17,-311.27 -90.97,-80.94 -230.33,-72.81 -311.27,18.17 l 329.44,293.1"
         style="fill:#4999a0;fill-opacity:1;fill-rule:nonzero;stroke:none"
         id="path232"
         inkscape:connector-curvature="0" /><path
         d="m 3004.71,2843.61 c 7.48,-0.19 13.39,-6.41 13.19,-13.89 -0.19,-7.48 -6.41,-13.39 -13.89,-13.2 -7.48,0.2 -13.39,6.42 -13.2,13.9 0.2,7.48 6.42,13.39 13.9,13.19"
         style="fill:#ffffff;fill-opacity:1;fill-rule:nonzero;stroke:none"
         id="path234"
         inkscape:connector-curvature="0" /><path
         d="m 3216.52,2974.67 c -0.01,-0.37 -0.04,-0.75 -0.1,-1.13 -0.76,-5.47 -5.81,-9.29 -11.28,-8.53 -137.55,19.13 -176.04,-87.48 -176.41,-88.56 -1.8,-5.22 -7.5,-7.99 -12.72,-6.19 -5.22,1.81 -8,7.48 -6.18,12.72 0.42,1.24 44.41,123.2 198.07,101.85 5.09,-0.71 8.75,-5.14 8.62,-10.16"
         style="fill:#ffffff;fill-opacity:1;fill-rule:nonzero;stroke:none"
         id="path236"
         inkscape:connector-curvature="0" /><path
         d="m 2361.55,3053.27 c 0,0 8.98,-13.14 24.71,-36.15 15.56,-22.96 37.65,-55.75 63.76,-95.48 26.1,-39.78 56.28,-86.33 87.71,-137.62 15.71,-25.68 31.71,-52.5 47.57,-81.05 7.95,-14.22 15.81,-29.06 23.63,-44.99 l 5.85,-12.32 5.85,-13.34 c 3.96,-10.57 7.92,-18.33 12.04,-38.14 l 1.26,-7.39 0.14,-0.93 c -0.37,4.53 0.67,-7.26 0.55,-6.13 l 0,-2.2 -0.02,-5.87 -0.01,-5.88 -0.04,-3.12 -0.22,-4.13 -1.08,-16.49 -0.65,-8.22 -0.36,-4.06 -0.41,-3.12 c -2.14,-16.75 -4.36,-33.32 -7,-48.93 -5.01,-31.7 -10.7,-61.93 -16.24,-91.25 -11.25,-58.47 -22.61,-112.42 -32.52,-158.64 -10.15,-46.12 -18.6,-84.55 -24.52,-111.46 -6.12,-26.93 -9.62,-42.31 -9.62,-42.31 -7.08,-31.16 -38.08,-50.68 -69.24,-43.6 -29.84,6.78 -49,35.5 -44.35,65.28 l 0.1,0.64 c 0,0 2.43,15.34 6.69,42.2 4.08,26.95 9.91,65.45 16.9,111.65 6.75,46.19 14.42,100.13 21.56,157.59 3.48,28.66 7.04,58.38 9.7,87.82 1.52,14.93 2.43,29.26 3.33,43.54 l 0.17,2.69 0,1.78 0.02,3.48 0.28,6.9 0.12,1.73 c 0.04,0.59 -0.09,1.84 -0.13,2.73 l -0.38,5.86 -0.37,5.85 -0.1,1.47 -0.05,0.73 c -0.1,1.38 0.87,-10.17 0.45,-5.4 l -0.01,-0.21 c -0.03,-0.55 -0.02,-1.11 0.05,-1.65 0.88,-3.56 -0.31,-0.54 -0.56,-0.04 l -2.91,6.09 -4.15,7.86 -4.79,8.52 c -6.73,11.64 -14.21,23.82 -22.14,36.01 -15.73,24.36 -32.45,48.62 -48.97,71.98 -33.1,46.76 -65.49,90.15 -93.45,127.15 -27.99,37.01 -51.73,67.65 -68.37,89.01 -16.64,21.18 -26.14,33.28 -26.14,33.28 l -0.49,0.62 c -31.07,39.56 -24.19,96.83 15.37,127.9 39.57,31.08 96.83,24.2 127.91,-15.37 1.2,-1.53 2.48,-3.29 3.57,-4.87"
         style="fill:#252b4d;fill-opacity:1;fill-rule:nonzero;stroke:none"
         id="path238"
         inkscape:connector-curvature="0" /><path
         d="m 2243.43,3593.2 c 0,0 -267.13,-408.27 -8.06,-662.04 195.65,-191.65 8.06,662.04 8.06,662.04"
         style="fill:#171c33;fill-opacity:1;fill-rule:nonzero;stroke:none"
         id="path240"
         inkscape:connector-curvature="0" /><path
         d="m 2935.58,3917.62 c 0,0 0.52,-0.89 1.54,-2.6 0.75,-1.42 1.87,-3.52 3.33,-6.26 2.65,-5.3 6.13,-12.78 10.06,-22.28 3.82,-9.55 8.09,-21.12 11.96,-34.67 3.73,-13.57 7.68,-28.96 9.93,-46.15 4.97,-34.17 5.24,-75.53 -4.62,-117.86 -4.6,-21.18 -11.55,-42.56 -20.68,-63.17 l -1.68,-3.89 -2.11,-4.39 -1.62,-3.36 -2.5,-4.62 c -1.78,-3.27 -3.54,-6.27 -5.22,-8.89 -1.68,-2.78 -3.48,-5.49 -5.36,-8.14 -7.43,-10.67 -15.95,-20.55 -25.14,-29.45 -18.47,-17.78 -39.31,-31.6 -60.15,-42.6 -20.92,-11.01 -42.12,-18.84 -62.52,-25.39 -20.44,-6.47 -40.29,-11.14 -59.08,-14.75 -18.78,-3.8 -36.53,-6.42 -52.93,-8.36 -32.77,-4.06 -60.12,-5.53 -79.57,-6.27 -9.73,-0.35 -17.5,-0.56 -22.97,-0.57 -5.35,-0.04 -8.9,0.1 -9.28,0.15 -38.23,4.95 -65.21,39.95 -60.26,78.17 4.94,38.23 39.94,65.21 78.17,60.26 -2.52,0.48 33.79,-10.17 88.95,-13.2 27.44,-1.45 59.57,-0.99 91.88,4.51 16.14,2.65 32.12,6.99 47.13,12.65 15.05,5.62 28.88,13.07 40.26,22.31 5.72,4.59 10.88,9.56 15.44,14.93 2.2,2.47 4.72,5.92 6.1,7.86 0.43,0.62 0.77,0.96 1.31,1.8 l 1.9,3.21 0.95,1.6 0.47,0.81 0.24,0.4 c -0.96,-1.86 -0.21,-0.42 -0.4,-0.79 l 0.09,0.18 1.49,2.83 c 8.14,15 14.63,30.4 19.23,45.77 4.27,15.44 6.93,30.73 7.72,45.37 0.54,14.64 -0.23,28.56 -2.26,41.24 -2.15,12.66 -5.08,24.14 -8.65,33.95 -3.5,9.82 -7.15,18.14 -10.66,24.58 -3.39,6.5 -6.49,11.19 -8.54,14.06 -0.96,1.3 -1.71,2.29 -2.21,2.96 -0.22,0.27 -0.16,0.11 -0.22,0.18 -0.17,0.22 -0.25,0.32 -0.25,0.32 -14.59,18.55 -11.39,45.42 7.16,60.01 18.54,14.59 45.41,11.39 60,-7.16 1.14,-1.44 2.17,-2.93 3.09,-4.46 l 0.48,-0.83"
         style="fill:#171c33;fill-opacity:1;fill-rule:nonzero;stroke:none"
         id="path242"
         inkscape:connector-curvature="0" /><path
         d="m 2345.77,3618.89 67.22,-257.56 110.96,241.96 c 3.38,7.08 8,12.92 13.13,17.15 -8.9,6.34 -19.4,10.59 -30.89,12.02 -0.82,0.1 -1.63,0.27 -2.46,0.34 l -130.62,11.44 c -0.84,0.07 -1.66,0.04 -2.49,0.09 -12.16,0.61 -23.79,-2.04 -34.04,-7.23 3.97,-4.92 7.22,-11.11 9.19,-18.21"
         style="fill:#ffffff;fill-opacity:1;fill-rule:nonzero;stroke:none"
         id="path244"
         inkscape:connector-curvature="0" /><path
         d="m 2396.57,3144.39 0,0 c -12.22,1.07 -21.35,11.94 -20.28,24.16 l 34.56,394.71 c 1.07,12.22 11.94,21.34 24.16,20.27 l 0,0 c 12.23,-1.07 21.35,-11.94 20.28,-24.16 l -34.55,-394.71 c -1.08,-12.22 -11.95,-21.34 -24.17,-20.27"
         style="fill:#ee2879;fill-opacity:1;fill-rule:nonzero;stroke:none"
         id="path246"
         inkscape:connector-curvature="0" /><path
         d="m 2434.46,3598.94 0,0 c -26.75,2.34 -46.73,26.15 -44.38,52.9 l 8.45,96.57 c 2.34,26.76 26.15,46.73 52.9,44.39 l 0,0 c 26.76,-2.34 46.73,-26.15 44.39,-52.9 l -8.46,-96.57 c -2.34,-26.76 -26.15,-46.73 -52.9,-44.39"
         style="fill:#ee8e86;fill-opacity:1;fill-rule:nonzero;stroke:none"
         id="path248"
         inkscape:connector-curvature="0" /><path
         d="m 2449.17,3766.96 c -26.75,2.35 -50.07,-12.01 -51.81,-31.9 l -1.82,-20.81 c -1.74,-19.89 18.72,-38.08 45.48,-40.42 26.75,-2.34 50.06,12.01 51.81,31.9 l 1.82,20.81 c 1.74,19.89 -18.73,38.08 -45.48,40.42"
         style="fill:#d0736d;fill-opacity:1;fill-rule:nonzero;stroke:none"
         id="path250"
         inkscape:connector-curvature="0" /><path
         d="m 2694.08,1878.73 -319.94,148.92 38.33,82.36 c 8.16,17.52 28.98,25.12 46.5,16.96 l 174.13,-81.06 c 63.01,-29.32 90.31,-104.18 60.98,-167.18 l 0,0"
         style="fill:#3b2f24;fill-opacity:1;fill-rule:nonzero;stroke:none"
         id="path252"
         inkscape:connector-curvature="0" /><path
         d="m 2688.25,1866.19 -319.95,148.92 5.84,12.54 319.94,-148.92 -5.83,-12.54"
         style="fill:#1d161a;fill-opacity:1;fill-rule:nonzero;stroke:none"
         id="path254"
         inkscape:connector-curvature="0" /><path
         d="m 2460.45,3572.78 c -1.27,-14.45 -14.01,-25.15 -28.47,-23.88 -14.45,1.26 -25.15,14.01 -23.88,28.46 1.26,14.46 14.01,25.15 28.46,23.89 14.46,-1.27 25.15,-14.01 23.89,-28.47"
         style="fill:#c52565;fill-opacity:1;fill-rule:nonzero;stroke:none"
         id="path256"
         inkscape:connector-curvature="0" /><path
         d="m 2546.16,3625.98 c -7.64,2.55 -15.65,4.35 -24.01,5.08 l -15.96,1.4 c 11.49,-1.43 21.99,-5.68 30.89,-12.02 2.91,2.39 5.97,4.26 9.08,5.54"
         style="fill:#171c33;fill-opacity:1;fill-rule:nonzero;stroke:none"
         id="path258"
         inkscape:connector-curvature="0" /><path
         d="m 2336.58,3637.1 c 10.25,5.19 21.88,7.84 34.04,7.23 l -25.9,2.26 c -6.5,0.57 -12.9,0.45 -19.19,-0.15 4,-2.06 7.77,-5.26 11.05,-9.34"
         style="fill:#171c33;fill-opacity:1;fill-rule:nonzero;stroke:none"
         id="path260"
         inkscape:connector-curvature="0" /><path
         d="m 2565.88,3567.03 c 0.02,-0.65 0.04,-1.29 0.05,-1.94 -0.01,0.65 -0.03,1.29 -0.05,1.94"
         style="fill:#ffffff;fill-opacity:1;fill-rule:nonzero;stroke:none"
         id="path262"
         inkscape:connector-curvature="0" /><path
         d="m 2575.9,3610.43 c 2.39,-9.26 1.21,-20.93 -4.05,-31.92 l -5.99,-10.57 -148.28,-261.32 c -1.72,-6.7 -4.55,-12.16 -8.56,-15.09 l -1.16,-2.04 c -0.39,0.2 -0.73,0.49 -1.09,0.74 -0.4,-0.18 -0.78,-0.41 -1.2,-0.54 l -0.79,2.21 c -3.44,3.58 -5.28,9.45 -5.81,16.35 l -99.12,278.9 -5.56,15.66 c -4,14.38 -1.82,28.67 4.68,37.5 -37.18,-13.82 -65.26,-47.98 -68.94,-89.94 l 0,0 c -3.85,-44.04 7.98,-223.7 39.29,-309.91 l -13.01,-148.58 c -3.27,-37.35 24.62,-70.59 61.97,-73.86 l 130.62,-11.44 c 37.36,-3.27 70.6,24.62 73.87,61.97 l 15.11,172.56 c 41.03,86.2 76.98,235.11 80.5,275.26 l 0,0 c 3.31,37.8 -14.01,72.8 -42.48,94.06"
         style="fill:#171c33;fill-opacity:1;fill-rule:nonzero;stroke:none"
         id="path264"
         inkscape:connector-curvature="0" /><path
         d="m 2578.6,3608.3 c 9.48,-17.53 14.13,-37.88 12.27,-59.12 l 0,0 c -3.51,-40.15 -39.46,-189.06 -80.5,-275.26 l -15.11,-172.55 c -3.27,-37.36 -36.51,-65.25 -73.86,-61.98 l -130.62,11.44 c -10.94,0.96 -21.02,4.54 -29.79,9.98 9.28,-23.15 30.9,-40.48 57.32,-42.8 l 130.62,-11.43 c 37.36,-3.27 70.6,24.62 73.87,61.97 l 15.1,172.56 c 41.04,86.2 76.99,235.11 80.5,275.26 l 0,0 c 3.21,36.59 -12.95,70.51 -39.8,91.93"
         style="fill:#161927;fill-opacity:1;fill-rule:nonzero;stroke:none"
         id="path266"
         inkscape:connector-curvature="0" /><path
         d="m 2537.08,3620.44 c -5.13,-4.23 -9.75,-10.07 -13.13,-17.15 l -110.96,-241.96 3.95,-15.13 c 3.34,-11.99 3.7,-27.68 0.64,-39.58 l 148.28,261.32 5.99,10.57 c 5.26,10.99 6.44,22.66 4.05,31.92 -1.79,6.96 -5.6,12.57 -11.26,15.49 -5.59,2.9 -12.12,2.7 -18.48,0.06 -3.11,-1.28 -6.17,-3.15 -9.08,-5.54"
         style="fill:#252b4d;fill-opacity:1;fill-rule:nonzero;stroke:none"
         id="path268"
         inkscape:connector-curvature="0" /><path
         d="m 2406.77,3290.23 c 0.36,-0.25 0.7,-0.54 1.09,-0.74 l 1.16,2.04 c -0.71,-0.52 -1.46,-0.95 -2.25,-1.3"
         style="fill:#252b4d;fill-opacity:1;fill-rule:nonzero;stroke:none"
         id="path270"
         inkscape:connector-curvature="0" /><path
         d="m 2404.78,3291.9 -5.81,16.35 c 0.53,-6.9 2.37,-12.77 5.81,-16.35"
         style="fill:#252b4d;fill-opacity:1;fill-rule:nonzero;stroke:none"
         id="path272"
         inkscape:connector-curvature="0" /><path
         d="m 2294.29,3602.81 5.56,-15.66 99.12,-278.9 5.81,-16.35 0.79,-2.21 c 0.42,0.13 0.8,0.36 1.2,0.54 0.79,0.35 1.54,0.78 2.25,1.3 4.01,2.93 6.84,8.39 8.56,15.09 3.06,11.9 2.7,27.59 -0.64,39.58 l -3.95,15.13 -67.22,257.56 c -1.97,7.1 -5.22,13.29 -9.19,18.21 -3.28,4.08 -7.05,7.28 -11.05,9.34 -5.17,2.66 -10.68,3.44 -15.9,1.81 -4.26,-1.34 -7.85,-4.14 -10.66,-7.94 -6.5,-8.83 -8.68,-23.12 -4.68,-37.5"
         style="fill:#252b4d;fill-opacity:1;fill-rule:nonzero;stroke:none"
         id="path274"
         inkscape:connector-curvature="0" /><path
         d="m 2384.55,3575.55 -44.19,52.67 c -6.53,7.78 -5.5,19.48 2.27,26.01 l 19.6,16.44 c 7.77,6.52 19.48,5.5 26.01,-2.28 l 44.19,-52.67 c 6.52,-7.78 5.5,-19.48 -2.28,-26.01 l -19.59,-16.44 c -7.78,-6.52 -19.49,-5.5 -26.01,2.28"
         style="fill:#ffffff;fill-opacity:1;fill-rule:nonzero;stroke:none"
         id="path276"
         inkscape:connector-curvature="0" /><path
         d="m 2536,3611.09 -52.68,-44.19 c -7.77,-6.52 -19.48,-5.5 -26.01,2.28 l -16.43,19.59 c -6.53,7.78 -5.5,19.48 2.27,26.01 l 52.67,44.19 c 7.78,6.53 19.49,5.5 26.02,-2.28 l 16.43,-19.59 c 6.53,-7.78 5.5,-19.48 -2.27,-26.01"
         style="fill:#ffffff;fill-opacity:1;fill-rule:nonzero;stroke:none"
         id="path278"
         inkscape:connector-curvature="0" /><path
         d="m 2398.3,3217.94 0,0 c -7.85,0.69 -13.72,7.68 -13.03,15.54 l 0,0 c 0.69,7.85 7.68,13.72 15.53,13.03 l 0,0 c 7.86,-0.68 13.72,-7.68 13.04,-15.53 l 0,0 c -0.69,-7.86 -7.68,-13.72 -15.54,-13.04"
         style="fill:#161927;fill-opacity:1;fill-rule:nonzero;stroke:none"
         id="path280"
         inkscape:connector-curvature="0" /><path
         d="m 2392.44,3150.97 0,0 c -7.86,0.69 -13.72,7.68 -13.03,15.53 l 0,0 c 0.68,7.86 7.67,13.72 15.53,13.04 l 0,0 c 7.86,-0.69 13.72,-7.68 13.03,-15.54 l 0,0 c -0.68,-7.85 -7.67,-13.72 -15.53,-13.03"
         style="fill:#161927;fill-opacity:1;fill-rule:nonzero;stroke:none"
         id="path282"
         inkscape:connector-curvature="0" /><path
         d="m 2386.58,3083.99 0,0 c -7.86,0.69 -13.73,7.68 -13.04,15.53 l 0,0 c 0.69,7.86 7.68,13.73 15.54,13.04 l 0,0 c 7.85,-0.69 13.72,-7.68 13.03,-15.54 l 0,0 c -0.69,-7.85 -7.68,-13.72 -15.53,-13.03"
         style="fill:#161927;fill-opacity:1;fill-rule:nonzero;stroke:none"
         id="path284"
         inkscape:connector-curvature="0" /><path
         d="m 2324.7,4059.54 0,0 c -8.09,-13.01 -25.35,-17.03 -38.36,-8.93 l -92.34,57.45 c -13.01,8.09 -17.03,25.36 -8.93,38.36 l 0,0 c 8.09,13.01 25.35,17.03 38.36,8.94 l 92.34,-57.46 c 13.01,-8.1 17.03,-25.36 8.93,-38.36"
         style="fill:#302232;fill-opacity:1;fill-rule:nonzero;stroke:none"
         id="path286"
         inkscape:connector-curvature="0" /><path
         d="m 2334.97,4121.63 0,0 c 3.48,-14.92 -5.89,-29.97 -20.81,-33.44 l -105.92,-24.67 c -14.92,-3.47 -29.97,5.89 -33.44,20.81 l 0,0 c -3.48,14.92 5.89,29.97 20.81,33.44 l 105.92,24.67 c 14.92,3.47 29.97,-5.89 33.44,-20.81"
         style="fill:#302232;fill-opacity:1;fill-rule:nonzero;stroke:none"
         id="path288"
         inkscape:connector-curvature="0" /><path
         d="m 2609.13,4097.38 c 26.33,-113.08 -43.99,-226.09 -157.07,-252.42 -113.07,-26.33 -226.09,43.99 -252.42,157.06 -26.33,113.08 43.99,226.09 157.06,252.43 113.08,26.33 226.09,-43.99 252.43,-157.07"
         style="fill:#302232;fill-opacity:1;fill-rule:nonzero;stroke:none"
         id="path290"
         inkscape:connector-curvature="0" /><path
         d="m 2300.6,3906.67 c 6.32,-27.12 -10.55,-54.23 -37.67,-60.54 -27.13,-6.32 -54.24,10.55 -60.55,37.67 -6.32,27.12 10.55,54.23 37.67,60.55 27.13,6.31 54.23,-10.55 60.55,-37.68"
         style="fill:#f6bfa0;fill-opacity:1;fill-rule:nonzero;stroke:none"
         id="path292"
         inkscape:connector-curvature="0" /><path
         d="m 2659.33,3990.21 c 6.32,-27.12 -10.55,-54.23 -37.67,-60.55 -27.13,-6.31 -54.23,10.55 -60.55,37.68 -6.32,27.12 10.55,54.23 37.67,60.54 27.13,6.32 54.23,-10.55 60.55,-37.67"
         style="fill:#f6bfa0;fill-opacity:1;fill-rule:nonzero;stroke:none"
         id="path294"
         inkscape:connector-curvature="0" /><path
         d="m 2643.91,3986.62 c 4.3,-18.46 -7.18,-36.92 -25.65,-41.22 -18.46,-4.3 -36.91,7.19 -41.21,25.65 -4.3,18.46 7.18,36.92 25.64,41.22 18.47,4.3 36.92,-7.18 41.22,-25.65"
         style="fill:#ee8e86;fill-opacity:1;fill-rule:nonzero;stroke:none"
         id="path296"
         inkscape:connector-curvature="0" /><path
         d="m 2284.92,3903.02 c 4.3,-18.46 -7.18,-36.92 -25.65,-41.22 -18.46,-4.3 -36.91,7.19 -41.21,25.65 -4.3,18.46 7.18,36.92 25.64,41.22 18.47,4.3 36.92,-7.19 41.22,-25.65"
         style="fill:#ee8e86;fill-opacity:1;fill-rule:nonzero;stroke:none"
         id="path298"
         inkscape:connector-curvature="0" /><path
         d="m 2499.72,3723.83 -36.89,-8.59 c -88.77,-20.68 -178.31,35.04 -198.99,123.81 l -42.52,182.61 c -20.67,88.76 35.04,178.3 123.81,198.98 l 36.89,8.59 c 88.77,20.67 178.31,-35.05 198.98,-123.82 l 42.53,-182.6 c 20.67,-88.77 -35.05,-178.31 -123.81,-198.98"
         style="fill:#f6bfa0;fill-opacity:1;fill-rule:nonzero;stroke:none"
         id="path300"
         inkscape:connector-curvature="0" /><path
         d="m 2488.27,4218.98 c 27.11,-22.34 47.41,-53.32 55.94,-89.98 l 42.53,-182.6 c 20.67,-88.77 -35.05,-178.31 -123.82,-198.98 l -36.89,-8.6 c -36.65,-8.53 -73.42,-4.02 -105.43,10.44 38.56,-31.75 90.92,-45.97 143.04,-33.83 l 36.89,8.59 c 88.77,20.67 144.48,110.21 123.81,198.98 l -42.52,182.61 c -12.14,52.11 -48.03,92.81 -93.55,113.37"
         style="fill:#e7ab87;fill-opacity:1;fill-rule:nonzero;stroke:none"
         id="path302"
         inkscape:connector-curvature="0" /><path
         d="m 2381.75,4230.38 -36.89,-8.59 c -73.17,-17.04 -123.81,-80.88 -127.78,-152.51 l 346.69,80.74 c -35.21,62.5 -108.84,97.4 -182.02,80.36"
         style="fill:#302232;fill-opacity:1;fill-rule:nonzero;stroke:none"
         id="path304"
         inkscape:connector-curvature="0" /><path
         d="m 2350.98,4028.52 0,0 c -22.83,-5.32 -45.85,9.01 -51.17,31.83 l -9.66,41.51 c -5.32,22.82 9.01,45.85 31.84,51.16 l 0,0 c 22.82,5.32 45.85,-9.01 51.16,-31.84 l 9.67,-41.5 c 5.31,-22.82 -9.01,-45.85 -31.84,-51.16"
         style="fill:#302232;fill-opacity:1;fill-rule:nonzero;stroke:none"
         id="path306"
         inkscape:connector-curvature="0" /><path
         d="m 2265.34,3888.98 0,0 c -9.13,-2.12 -18.34,3.61 -20.46,12.74 l -36.09,154.94 c -2.12,9.13 3.61,18.34 12.74,20.47 l 0,0 c 9.13,2.12 18.34,-3.61 20.47,-12.74 l 36.08,-154.94 c 2.12,-9.13 -3.61,-18.34 -12.74,-20.47"
         style="fill:#302232;fill-opacity:1;fill-rule:nonzero;stroke:none"
         id="path308"
         inkscape:connector-curvature="0" /><path
         d="m 2600.12,3966.94 0,0 c -9.13,-2.12 -18.34,3.61 -20.46,12.74 l -36.08,154.94 c -2.13,9.13 3.6,18.34 12.73,20.47 l 0,0 c 9.13,2.12 18.34,-3.61 20.47,-12.74 l 36.08,-154.94 c 2.12,-9.13 -3.61,-18.34 -12.74,-20.47"
         style="fill:#302232;fill-opacity:1;fill-rule:nonzero;stroke:none"
         id="path310"
         inkscape:connector-curvature="0" /><path
         d="m 2266.61,4052.62 0,0 c -18.26,-4.25 -36.68,7.21 -40.93,25.47 l -3.87,16.6 c -4.25,18.26 7.21,36.68 25.47,40.94 l 0,0 c 18.26,4.25 36.68,-7.22 40.94,-25.47 l 3.86,-16.61 c 4.25,-18.26 -7.21,-36.68 -25.47,-40.93"
         style="fill:#302232;fill-opacity:1;fill-rule:nonzero;stroke:none"
         id="path312"
         inkscape:connector-curvature="0" /><path
         d="m 2531.94,4103.39 -141.46,-32.94 c -25.7,-5.99 -51.63,10.14 -57.61,35.84 l 0,0 c -5.99,25.7 10.14,51.63 35.84,57.61 l 141.47,32.94 c 25.7,5.99 51.62,-10.14 57.6,-35.84 l 0,0 c 5.99,-25.7 -10.14,-51.62 -35.84,-57.61"
         style="fill:#302232;fill-opacity:1;fill-rule:nonzero;stroke:none"
         id="path314"
         inkscape:connector-curvature="0" /><path
         d="m 2614.18,4227.77 -66.05,-106.16 c -12,-19.28 -37.6,-25.24 -56.88,-13.24 l 0,0 c -19.29,12 -25.25,37.59 -13.25,56.88 l 66.05,106.16 c 12,19.28 37.6,25.24 56.88,13.24 l 0,0 c 19.29,-12 25.25,-37.6 13.25,-56.88"
         style="fill:#302232;fill-opacity:1;fill-rule:nonzero;stroke:none"
         id="path316"
         inkscape:connector-curvature="0" /><path
         d="m 2552.93,4265.33 c 8.88,14.27 27.81,18.68 42.08,9.8 l 0,0 c 14.27,-8.88 18.68,-27.81 9.8,-42.08"
         style="fill:none;stroke:#7a7d98;stroke-width:7.49607992;stroke-linecap:round;stroke-linejoin:miter;stroke-miterlimit:10;stroke-dasharray:none;stroke-opacity:1"
         id="path318"
         inkscape:connector-curvature="0" /><path
         d="M 2542.83,4211.15 2476.77,4105 c -12,-19.29 -37.59,-25.25 -56.88,-13.25 l 0,0 c -19.28,12 -25.24,37.6 -13.24,56.88 l 66.05,106.16 c 12,19.28 37.59,25.25 56.88,13.25 l 0,0 c 19.29,-12 25.25,-37.6 13.25,-56.89"
         style="fill:#302232;fill-opacity:1;fill-rule:nonzero;stroke:none"
         id="path320"
         inkscape:connector-curvature="0" /><path
         d="m 2415.15,3962.06 c 2.3,-9.89 -3.85,-19.78 -13.74,-22.08 -9.89,-2.3 -19.78,3.85 -22.08,13.74 -2.31,9.89 3.84,19.78 13.74,22.08 9.89,2.3 19.77,-3.85 22.08,-13.74"
         style="fill:#302232;fill-opacity:1;fill-rule:nonzero;stroke:none"
         id="path322"
         inkscape:connector-curvature="0" /><path
         d="m 2561.84,3996.22 c 2.31,-9.89 -3.84,-19.77 -13.73,-22.08 -9.89,-2.3 -19.78,3.85 -22.08,13.74 -2.31,9.89 3.84,19.78 13.74,22.08 9.89,2.31 19.77,-3.85 22.07,-13.74"
         style="fill:#302232;fill-opacity:1;fill-rule:nonzero;stroke:none"
         id="path324"
         inkscape:connector-curvature="0" /><path
         d="m 2481.57,4248.71 c 8.88,14.27 27.82,18.68 42.09,9.81 l 0,0 c 14.27,-8.88 18.68,-27.82 9.8,-42.09"
         style="fill:none;stroke:#7a7d98;stroke-width:7.49607992;stroke-linecap:round;stroke-linejoin:miter;stroke-miterlimit:10;stroke-dasharray:none;stroke-opacity:1"
         id="path326"
         inkscape:connector-curvature="0" /><path
         d="m 2496.41,3896.83 0,0 c -11.65,-2.71 -23.39,4.6 -26.1,16.24 l -12.21,52.42 c -2.71,11.65 4.6,23.39 16.24,26.1 l 0,0 c 11.64,2.71 23.38,-4.59 26.1,-16.24 l 12.2,-52.42 c 2.71,-11.64 -4.59,-23.39 -16.23,-26.1"
         style="fill:#ee8e86;fill-opacity:1;fill-rule:nonzero;stroke:none"
         id="path328"
         inkscape:connector-curvature="0" /><path
         d="m 2563.92,4041.13 c -2.72,-0.63 -5.57,0.82 -6.59,3.51 -4.56,11.97 -18,17.99 -29.96,13.45 -2.91,-1.12 -6.21,0.36 -7.33,3.29 -1.11,2.93 0.36,6.21 3.29,7.33 17.82,6.79 37.84,-2.21 44.62,-20.03 1.11,-2.93 -0.36,-6.21 -3.29,-7.32 -0.25,-0.1 -0.49,-0.17 -0.74,-0.23"
         style="fill:#302232;fill-opacity:1;fill-rule:nonzero;stroke:none"
         id="path330"
         inkscape:connector-curvature="0" /><path
         d="m 2368.21,3990.79 c -0.24,-0.06 -0.5,-0.1 -0.76,-0.13 -3.12,-0.29 -5.89,2 -6.19,5.13 -1.79,18.98 12.21,35.89 31.18,37.67 3.13,0.3 5.9,-2 6.19,-5.12 0.3,-3.13 -2.02,-5.91 -5.12,-6.19 -12.77,-1.19 -22.14,-12.55 -20.94,-25.3 0.27,-2.86 -1.63,-5.43 -4.36,-6.06"
         style="fill:#302232;fill-opacity:1;fill-rule:nonzero;stroke:none"
         id="path332"
         inkscape:connector-curvature="0" /><path
         d="m 2257.32,4164.76 -19.74,-31.73 c -1.88,-3.01 -5.88,-3.95 -8.89,-2.07 l 0,0 c -3.02,1.88 -3.95,5.88 -2.07,8.89 l 19.74,31.73 c 1.88,3.01 5.88,3.94 8.89,2.07 l 0,0 c 3.01,-1.88 3.95,-5.88 2.07,-8.89"
         style="fill:#7a7d98;fill-opacity:1;fill-rule:nonzero;stroke:none"
         id="path334"
         inkscape:connector-curvature="0" /><path
         d="m 2475.43,4234.17 0,0 c -2.34,-0.54 -4.69,0.92 -5.24,3.26 l 0,0 c -0.54,2.33 0.92,4.68 3.26,5.23 l 0,0 c 2.33,0.54 4.69,-0.93 5.23,-3.26 l 0,0 c 0.55,-2.33 -0.92,-4.69 -3.25,-5.23"
         style="fill:#7a7d98;fill-opacity:1;fill-rule:nonzero;stroke:none"
         id="path336"
         inkscape:connector-curvature="0" /><path
         d="m 2265.63,4179.86 0,0 c -3.76,-0.88 -7.55,1.48 -8.42,5.24 l 0,0 c -0.88,3.76 1.48,7.54 5.24,8.42 l 0,0 c 3.76,0.87 7.55,-1.48 8.42,-5.24 l 0,0 c 0.88,-3.76 -1.48,-7.55 -5.24,-8.42"
         style="fill:#7a7d98;fill-opacity:1;fill-rule:nonzero;stroke:none"
         id="path338"
         inkscape:connector-curvature="0" /><path
         d="m 2549.04,4251.31 0,0 c -2.34,-0.54 -4.69,0.92 -5.24,3.26 l 0,0 c -0.54,2.33 0.92,4.68 3.26,5.23 l 0,0 c 2.33,0.54 4.69,-0.92 5.23,-3.26 l 0,0 c 0.55,-2.33 -0.92,-4.69 -3.25,-5.23"
         style="fill:#7a7d98;fill-opacity:1;fill-rule:nonzero;stroke:none"
         id="path340"
         inkscape:connector-curvature="0" /><path
         d="m 2890.94,3883.41 0,0 c -30.4,-11.98 -65.08,3.09 -77.07,33.49 l -9.37,23.79 c -11.98,30.41 3.09,65.09 33.49,77.07 l 0,0 c 30.41,11.98 65.09,-3.09 77.07,-33.49 l 9.38,-23.79 c 11.98,-30.41 -3.09,-65.09 -33.5,-77.07"
         style="fill:#f6bfa0;fill-opacity:1;fill-rule:nonzero;stroke:none"
         id="path342"
         inkscape:connector-curvature="0" /><path
         d="m 2834.94,3906.47 -0.52,-0.2 c -7.56,-2.99 -16.19,0.76 -19.17,8.33 l -35.37,89.72 c -2.98,7.57 0.77,16.2 8.34,19.19 l 0.52,0.2 c 7.56,2.99 16.19,-0.76 19.18,-8.33 l 35.36,-89.73 c 2.98,-7.56 -0.77,-16.19 -8.34,-19.18"
         style="fill:#f6bfa0;fill-opacity:1;fill-rule:nonzero;stroke:none"
         id="path344"
         inkscape:connector-curvature="0" /><path
         d="m 2862.98,3917.52 -0.52,-0.21 c -7.57,-2.97 -16.2,0.78 -19.18,8.35 l -35.09,89.03 c -2.98,7.57 0.77,16.19 8.34,19.17 l 0.52,0.2 c 7.57,2.98 16.2,-0.77 19.18,-8.34 l 35.09,-89.03 c 2.98,-7.57 -0.77,-16.2 -8.34,-19.17"
         style="fill:#f6bfa0;fill-opacity:1;fill-rule:nonzero;stroke:none"
         id="path346"
         inkscape:connector-curvature="0" /><path
         d="m 2886.01,3940.82 -0.52,-0.2 c -7.57,-2.99 -16.2,0.76 -19.18,8.33 l -29.95,76 c -2.99,7.57 0.77,16.19 8.34,19.17 l 0.52,0.2 c 7.57,2.98 16.2,-0.78 19.18,-8.34 l 29.94,-75.97 c 2.98,-7.57 -0.77,-16.2 -8.33,-19.19"
         style="fill:#f6bfa0;fill-opacity:1;fill-rule:nonzero;stroke:none"
         id="path348"
         inkscape:connector-curvature="0" /><path
         d="m 2907.9,3960.49 -0.53,-0.21 c -7.57,-2.98 -16.19,0.77 -19.17,8.34 l -26.59,67.47 c -2.98,7.56 0.77,16.2 8.33,19.18 l 0.52,0.21 c 7.57,2.98 16.2,-0.77 19.18,-8.34 l 26.6,-67.49 c 2.98,-7.56 -0.77,-16.19 -8.34,-19.16"
         style="fill:#f6bfa0;fill-opacity:1;fill-rule:nonzero;stroke:none"
         id="path350"
         inkscape:connector-curvature="0" /><path
         d="m 2818.7,3958.12 24.64,-19.29 c 8.81,-6.89 10.37,-19.74 3.48,-28.55 l 0,0 c -6.89,-8.8 -19.74,-10.37 -28.55,-3.48 l -24.64,19.3 c -8.81,6.89 -10.37,19.74 -3.48,28.54 l 0,0 c 6.89,8.81 19.74,10.38 28.55,3.48"
         style="fill:#f6bfa0;fill-opacity:1;fill-rule:nonzero;stroke:none"
         id="path352"
         inkscape:connector-curvature="0" /><path
         d="m 2289.84,3564.07 c -0.25,-0.24 1.65,-3.39 2.06,-9.78 0.67,-6.26 0.49,-14.87 -2.31,-24.54 -2.78,-9.67 -8.74,-20.27 -13.81,-33.24 -5.32,-12.84 -10.89,-27.5 -16.1,-43.62 -10.53,-32.14 -19.26,-70.49 -21.4,-109.72 -0.97,-19.57 -0.14,-39.37 3.64,-58.06 1.04,-4.62 1.82,-9.39 3.26,-13.84 1.17,-4.59 2.55,-9.07 4.24,-13.4 1.41,-4.49 3.4,-8.64 5.18,-12.92 l 0.67,-1.61 0.33,-0.8 0.17,-0.4 c -0.57,1.05 1.39,-2.64 -1.26,2.3 l 0.14,-0.26 2.24,-4.12 4.48,-8.24 c 0.87,-1.72 1.21,-1.92 1.68,-2.56 l 1.3,-1.78 c 0.95,-1.27 1.35,-2.35 2.61,-3.9 2.85,-3.07 4.93,-6.63 8.17,-9.53 2.98,-3.05 5.89,-6.19 9.43,-8.94 3.2,-2.98 6.88,-5.66 10.62,-8.31 14.91,-10.6 32.6,-19.52 51.31,-26.33 37.53,-13.63 77.57,-20.34 112.12,-23.87 34.71,-3.56 64.4,-3.82 84.96,-3.78 20.64,0.11 32.1,1.05 31.38,0.93 23.41,3.11 44.91,-13.35 48.02,-36.76 3.11,-23.41 -13.35,-44.91 -36.76,-48.02 0,0 -3.55,-0.57 -10.2,-1.63 -6.31,-0.95 -15.38,-2.22 -26.93,-3.5 -23.09,-2.52 -56.03,-5.11 -96.25,-4.17 -40.17,1.16 -87.84,5.11 -139.59,20.74 -25.78,7.83 -52.81,18.77 -78.78,35.7 -6.5,4.2 -12.95,8.58 -19.17,13.69 -6.38,4.72 -12.37,10.27 -18.31,15.91 -6.11,5.39 -11.35,12.06 -16.96,18.18 -2.77,3.21 -5.7,7.46 -8.46,11.22 l -4.14,5.86 c -1.33,1.91 -2.92,4.18 -3.49,5.25 l -4.81,8.05 -2.41,4.02 -1.98,3.74 -0.65,1.33 -1.28,2.65 c -3.43,7.07 -6.93,14.15 -9.54,21.47 -2.96,7.25 -5.45,14.57 -7.59,21.94 -2.44,7.34 -4.01,14.72 -5.79,22.08 -6.65,29.47 -8.46,58.45 -7.82,85.69 1.32,54.65 13.19,102.29 25.3,141.52 6.18,19.63 12.69,37.2 18.9,52.57 6.46,15.25 11.5,28.85 18.18,38.91 6.66,10.06 14.41,16.72 20.63,20.78 5.95,3.94 11.01,6.19 10.76,5.95 11.83,20.44 37.99,27.42 58.43,15.58 20.44,-11.83 27.41,-38 15.58,-58.43"
         style="fill:#161927;fill-opacity:1;fill-rule:nonzero;stroke:none"
         id="path354"
         inkscape:connector-curvature="0" /><path
         d="m 2503.75,3860.74 -106.85,0 c 1.13,-9.29 4.64,-17.83 9.89,-25.04 9.12,8.69 21.43,14.05 35.02,14.05 18.12,0 33.99,-9.52 42.99,-23.79 10.26,8.55 17.25,20.85 18.95,34.78"
         style="fill:#c52565;fill-opacity:1;fill-rule:nonzero;stroke:none"
         id="path356"
         inkscape:connector-curvature="0" /><path
         d="m 2504.2,3867.34 c 0,3 -0.31,5.92 -0.78,8.79 l -106.19,0 c -0.47,-2.87 -0.78,-5.79 -0.78,-8.79 0,-2.24 0.18,-4.43 0.45,-6.6 l 106.85,0 c 0.27,2.17 0.45,4.36 0.45,6.6"
         style="fill:#ffffff;fill-opacity:1;fill-rule:nonzero;stroke:none"
         id="path358"
         inkscape:connector-curvature="0" /><path
         d="m 2441.81,3849.75 c -13.59,0 -25.9,-5.36 -35.02,-14.05 9.79,-13.45 25.62,-22.23 43.54,-22.23 13.11,0 25.13,4.69 34.47,12.49 -9,14.27 -24.87,23.79 -42.99,23.79"
         style="fill:#ee2879;fill-opacity:1;fill-rule:nonzero;stroke:none"
         id="path360"
         inkscape:connector-curvature="0" /><path
         d="m 2532.13,3089.95 0,0 c -3.51,35.71 22.85,67.8 58.56,71.31 l 27.95,2.74 c 35.71,3.5 67.8,-22.85 71.31,-58.57 l 0,0 c 3.5,-35.71 -22.85,-67.8 -58.57,-71.3 l -27.95,-2.75 c -35.71,-3.5 -67.8,22.86 -71.3,58.57"
         style="fill:#f6bfa0;fill-opacity:1;fill-rule:nonzero;stroke:none"
         id="path362"
         inkscape:connector-curvature="0" /><path
         d="m 2634.73,3148.64 -0.06,0.62 c -0.87,8.88 5.69,16.87 14.57,17.74 l 105.4,10.34 c 8.89,0.88 16.88,-5.68 17.75,-14.57 l 0.06,-0.61 c 0.87,-8.89 -5.69,-16.88 -14.57,-17.75 l -105.4,-10.34 c -8.89,-0.87 -16.88,5.69 -17.75,14.57"
         style="fill:#f6bfa0;fill-opacity:1;fill-rule:nonzero;stroke:none"
         id="path364"
         inkscape:connector-curvature="0" /><path
         d="m 2637.96,3115.71 -0.06,0.61 c -0.87,8.89 5.69,16.88 14.58,17.75 l 104.58,10.26 c 8.88,0.87 16.87,-5.69 17.74,-14.58 l 0.06,-0.61 c 0.87,-8.89 -5.68,-16.87 -14.57,-17.74 l -104.58,-10.27 c -8.89,-0.87 -16.88,5.69 -17.75,14.58"
         style="fill:#f6bfa0;fill-opacity:1;fill-rule:nonzero;stroke:none"
         id="path366"
         inkscape:connector-curvature="0" /><path
         d="m 2648.96,3082.27 -0.06,0.61 c -0.87,8.88 5.69,16.87 14.58,17.74 l 89.26,8.76 c 8.89,0.87 16.87,-5.69 17.74,-14.58 l 0.06,-0.61 c 0.88,-8.88 -5.68,-16.87 -14.57,-17.74 l -89.26,-8.76 c -8.89,-0.87 -16.88,5.69 -17.75,14.58"
         style="fill:#f6bfa0;fill-opacity:1;fill-rule:nonzero;stroke:none"
         id="path368"
         inkscape:connector-curvature="0" /><path
         d="m 2635.06,3050.29 -0.06,0.61 c -0.87,8.89 5.68,16.88 14.57,17.75 l 79.26,7.78 c 8.89,0.87 16.88,-5.69 17.75,-14.58 l 0.06,-0.61 c 0.87,-8.89 -5.69,-16.88 -14.57,-17.75 l -79.27,-7.77 c -8.88,-0.88 -16.87,5.68 -17.74,14.57"
         style="fill:#f6bfa0;fill-opacity:1;fill-rule:nonzero;stroke:none"
         id="path370"
         inkscape:connector-curvature="0" /><path
         d="m 2648.09,3124.16 -34.31,-2.15 c -12.25,-0.77 -22.91,8.63 -23.68,20.89 l 0,0 c -0.77,12.25 8.63,22.91 20.89,23.68 l 34.3,2.16 c 12.25,0.77 22.91,-8.63 23.68,-20.89 l 0,0 c 0.77,-12.26 -8.63,-22.92 -20.88,-23.69"
         style="fill:#f6bfa0;fill-opacity:1;fill-rule:nonzero;stroke:none"
         id="path372"
         inkscape:connector-curvature="0" /><path
         d="m 3161.14,3009.12 c -46.01,0 -89.86,-16.64 -124.52,-47.48 -77.31,-68.78 -84.24,-187.65 -15.45,-264.97 33.32,-37.45 79.23,-59.68 129.28,-62.6 49.94,-2.94 98.23,13.81 135.69,47.14 l 0,0 c 77.31,68.79 84.24,187.66 15.45,264.97 -33.32,37.45 -79.23,59.69 -129.28,62.61 -3.73,0.22 -7.46,0.33 -11.17,0.33 z m 0.57,-440.98 c -5.01,0 -10.04,0.15 -15.09,0.44 -67.53,3.94 -129.49,33.95 -174.46,84.49 -92.83,104.34 -83.48,264.75 20.87,357.58 50.54,44.96 115.48,67.61 183.11,63.62 67.53,-3.94 129.49,-33.94 174.46,-84.49 92.83,-104.34 83.48,-264.75 -20.87,-357.57 l 0,0 c -46.76,-41.62 -105.94,-64.07 -168.02,-64.07"
         style="fill:#e03f2b;fill-opacity:1;fill-rule:nonzero;stroke:none"
         id="path374"
         inkscape:connector-curvature="0" /><path
         d="m 3350.6,2989.78 c -0.16,0.18 -0.33,0.35 -0.49,0.53 l -48.89,-43.75 c 0.12,-0.13 0.26,-0.25 0.37,-0.38 68.79,-77.31 61.86,-196.18 -15.45,-264.97 -37.46,-33.33 -85.75,-50.08 -135.69,-47.14 -49.87,2.91 -95.62,25.02 -128.92,62.23 l -48.88,-43.75 c 44.93,-50.22 106.67,-80.04 173.97,-83.97 5.05,-0.29 10.08,-0.44 15.09,-0.44 62.08,0 121.26,22.45 168.02,64.07 104.35,92.82 113.7,253.23 20.87,357.57"
         style="fill:#ae3f2b;fill-opacity:1;fill-rule:nonzero;stroke:none"
         id="path376"
         inkscape:connector-curvature="0" /><path
         d="m 1774.18,184.492 c 0,-4.383 0.68,-8.101 2.04,-11.183 1.36,-3.071 3.22,-5.379 5.59,-6.938 2.37,-1.551 4.95,-2.34 7.74,-2.34 2.84,0 5.43,0.739 7.78,2.219 2.34,1.469 4.22,3.75 5.61,6.801 1.4,3.051 2.1,6.871 2.1,11.441 0,4.297 -0.7,7.988 -2.1,11.098 -1.39,3.082 -3.28,5.441 -5.67,7.082 -2.39,1.629 -5,2.449 -7.83,2.449 -2.96,0 -5.6,-0.84 -7.93,-2.512 -2.32,-1.668 -4.12,-4.07 -5.4,-7.211 -1.29,-3.136 -1.93,-6.769 -1.93,-10.906 z m 31.75,-23.711 0,1.61 c -2.17,-2.493 -4.31,-4.512 -6.41,-6.059 -2.11,-1.57 -4.4,-2.75 -6.86,-3.551 -2.47,-0.82 -5.15,-1.211 -8.07,-1.211 -3.87,0 -7.44,0.801 -10.73,2.442 -3.29,1.629 -6.14,3.968 -8.54,7.008 -2.41,3.031 -4.23,6.589 -5.47,10.699 -1.24,4.101 -1.87,8.543 -1.87,13.301 0,10.089 2.47,17.96 7.4,23.601 4.92,5.629 11.41,8.438 19.45,8.438 4.64,0 8.57,-0.797 11.76,-2.387 3.19,-1.59 6.31,-4.063 9.34,-7.363 l 0,23.82 c 0,3.32 0.66,5.812 1.98,7.512 1.32,1.699 3.2,2.539 5.65,2.539 2.44,0 4.32,-0.782 5.64,-2.328 1.32,-1.563 1.98,-3.852 1.98,-6.891 l 0,-71.18 c 0,-3.07 -0.7,-5.371 -2.12,-6.922 -1.42,-1.527 -3.25,-2.289 -5.5,-2.289 -2.21,0 -4.03,0.789 -5.47,2.379 -1.44,1.602 -2.16,3.883 -2.16,6.832"
         style="fill:#ffffff;fill-opacity:1;fill-rule:nonzero;stroke:none"
         id="path378"
         inkscape:connector-curvature="0" /><path
         d="m 1845.53,189.57 29.27,0 c -0.39,5.52 -1.89,9.649 -4.47,12.391 -2.58,2.738 -5.97,4.109 -10.19,4.109 -4.02,0 -7.33,-1.39 -9.91,-4.16 -2.58,-2.789 -4.14,-6.898 -4.7,-12.34 z m 31.57,-9.172 -31.57,0 c 0.04,-3.656 0.78,-6.886 2.22,-9.687 1.44,-2.801 3.35,-4.91 5.73,-6.32 2.39,-1.43 5.02,-2.129 7.9,-2.129 1.93,0 3.69,0.218 5.29,0.668 1.6,0.461 3.14,1.172 4.64,2.14 1.5,0.961 2.88,2 4.14,3.102 1.26,1.109 2.89,2.617 4.9,4.5 0.83,0.707 2.02,1.066 3.56,1.066 1.65,0 2.99,-0.457 4.01,-1.367 1.02,-0.922 1.54,-2.18 1.54,-3.84 0,-1.461 -0.57,-3.16 -1.71,-5.109 -1.15,-1.961 -2.88,-3.832 -5.18,-5.621 -2.31,-1.801 -5.2,-3.281 -8.69,-4.461 -3.49,-1.192 -7.5,-1.77 -12.03,-1.77 -10.36,0 -18.43,2.95 -24.18,8.86 -5.75,5.91 -8.63,13.929 -8.63,24.062 0,4.77 0.71,9.199 2.13,13.27 1.42,4.078 3.49,7.578 6.2,10.488 2.72,2.922 6.07,5.148 10.06,6.711 3.98,1.559 8.39,2.328 13.24,2.328 6.3,0 11.71,-1.32 16.22,-3.98 4.52,-2.661 7.9,-6.098 10.14,-10.309 2.24,-4.219 3.37,-8.531 3.37,-12.891 0,-4.07 -1.16,-6.687 -3.48,-7.898 -2.32,-1.199 -5.6,-1.813 -9.82,-1.813"
         style="fill:#ffffff;fill-opacity:1;fill-rule:nonzero;stroke:none"
         id="path380"
         inkscape:connector-curvature="0" /><path
         d="m 1950.64,172.672 c 0,-4.453 -1.08,-8.274 -3.25,-11.453 -2.17,-3.16 -5.37,-5.578 -9.61,-7.207 -4.23,-1.641 -9.39,-2.442 -15.46,-2.442 -5.79,0 -10.76,0.879 -14.9,2.649 -4.13,1.773 -7.19,4 -9.16,6.652 -1.97,2.66 -2.95,5.328 -2.95,8.02 0,1.769 0.62,3.281 1.89,4.55 1.26,1.25 2.86,1.879 4.79,1.879 1.69,0 2.99,-0.41 3.9,-1.238 0.91,-0.832 1.77,-1.992 2.6,-3.48 1.65,-2.891 3.64,-5.02 5.94,-6.454 2.31,-1.418 5.45,-2.128 9.43,-2.128 3.23,0 5.88,0.73 7.95,2.16 2.07,1.449 3.1,3.09 3.1,4.941 0,2.84 -1.07,4.899 -3.22,6.199 -2.15,1.301 -5.68,2.551 -10.61,3.731 -5.56,1.379 -10.08,2.828 -13.57,4.347 -3.49,1.512 -6.27,3.524 -8.36,5.993 -2.09,2.488 -3.13,5.55 -3.13,9.179 0,3.219 0.96,6.27 2.89,9.16 1.93,2.872 4.78,5.168 8.55,6.879 3.76,1.723 8.3,2.582 13.62,2.582 4.18,0 7.94,-0.441 11.26,-1.312 3.33,-0.848 6.12,-2.027 8.34,-3.488 2.23,-1.45 3.92,-3.071 5.08,-4.84 1.16,-1.781 1.74,-3.512 1.74,-5.199 0,-1.86 -0.62,-3.372 -1.85,-4.563 -1.24,-1.168 -3.01,-1.777 -5.3,-1.777 -1.65,0 -3.06,0.476 -4.22,1.429 -1.16,0.938 -2.49,2.368 -3.99,4.25 -1.22,1.571 -2.66,2.84 -4.32,3.789 -1.65,0.942 -3.9,1.411 -6.74,1.411 -2.92,0 -5.34,-0.61 -7.27,-1.86 -1.93,-1.242 -2.9,-2.781 -2.9,-4.633 0,-1.699 0.71,-3.089 2.13,-4.168 1.42,-1.089 3.33,-1.988 5.74,-2.699 2.4,-0.699 5.71,-1.57 9.93,-2.59 5,-1.23 9.09,-2.691 12.26,-4.382 3.17,-1.68 5.58,-3.688 7.22,-6 1.64,-2.309 2.45,-4.938 2.45,-7.887"
         style="fill:#ffffff;fill-opacity:1;fill-rule:nonzero;stroke:none"
         id="path382"
         inkscape:connector-curvature="0" /><path
         d="m 1975.11,208.02 0,-46.641 c 0,-3.238 -0.77,-5.688 -2.3,-7.34 -1.55,-1.648 -3.49,-2.469 -5.86,-2.469 -2.37,0 -4.29,0.828 -5.76,2.539 -1.48,1.692 -2.22,4.121 -2.22,7.27 l 0,46.172 c 0,3.179 0.74,5.59 2.22,7.211 1.47,1.617 3.39,2.429 5.76,2.429 2.37,0 4.31,-0.812 5.86,-2.429 1.53,-1.621 2.3,-3.871 2.3,-6.742 z m -7.98,16.66 c -2.25,0 -4.17,0.699 -5.76,2.082 -1.6,1.367 -2.4,3.32 -2.4,5.859 0,2.277 0.82,4.149 2.45,5.641 1.64,1.48 3.54,2.218 5.71,2.218 2.09,0 3.94,-0.671 5.55,-2.019 1.62,-1.34 2.43,-3.281 2.43,-5.84 0,-2.5 -0.79,-4.43 -2.37,-5.832 -1.57,-1.398 -3.45,-2.109 -5.61,-2.109"
         style="fill:#ffffff;fill-opacity:1;fill-rule:nonzero;stroke:none"
         id="path384"
         inkscape:connector-curvature="0" /><path
         d="m 1999.05,184.898 c 0,-6.539 1.42,-11.488 4.28,-14.839 2.86,-3.348 6.56,-5.02 11.09,-5.02 2.68,0 5.21,0.723 7.59,2.152 2.39,1.438 4.33,3.618 5.83,6.508 1.49,2.903 2.25,6.41 2.25,10.551 0,6.582 -1.45,11.711 -4.35,15.371 -2.9,3.66 -6.71,5.5 -11.44,5.5 -4.62,0 -8.31,-1.75 -11.08,-5.269 -2.78,-3.5 -4.17,-8.493 -4.17,-14.954 z m 46.76,20.461 0,-46.879 c 0,-5.359 -0.57,-9.98 -1.72,-13.839 -1.13,-3.86 -2.97,-7.051 -5.49,-9.571 -2.53,-2.519 -5.83,-4.398 -9.9,-5.621 -4.08,-1.23 -9.16,-1.828 -15.23,-1.828 -5.56,0 -10.52,0.77 -14.9,2.328 -4.37,1.571 -7.74,3.571 -10.11,6.031 -2.36,2.469 -3.55,5 -3.55,7.602 0,1.969 0.68,3.578 2.02,4.809 1.34,1.257 2.96,1.879 4.84,1.879 2.37,0 4.44,-1.059 6.21,-3.141 0.87,-1.059 1.76,-2.149 2.69,-3.227 0.93,-1.093 1.96,-2.011 3.07,-2.781 1.13,-0.762 2.48,-1.332 4.05,-1.711 1.58,-0.371 3.4,-0.558 5.44,-0.558 4.18,0 7.43,0.578 9.73,1.75 2.31,1.16 3.93,2.777 4.85,4.878 0.93,2.071 1.47,4.309 1.63,6.711 0.15,2.379 0.27,6.207 0.35,11.5 -2.49,-3.48 -5.35,-6.121 -8.61,-7.941 -3.24,-1.801 -7.12,-2.711 -11.61,-2.711 -5.4,0 -10.12,1.383 -14.16,4.141 -4.04,2.761 -7.14,6.621 -9.31,11.59 -2.17,4.968 -3.25,10.691 -3.25,17.191 0,4.848 0.66,9.238 1.98,13.129 1.32,3.91 3.21,7.191 5.65,9.879 2.44,2.679 5.26,4.691 8.45,6.062 3.19,1.348 6.7,2.028 10.52,2.028 4.57,0 8.53,-0.879 11.89,-2.618 3.34,-1.769 6.46,-4.511 9.34,-8.25 l 0,2.188 c 0,2.793 0.68,4.961 2.06,6.5 1.39,1.531 3.16,2.312 5.33,2.312 3.11,0 5.18,-1.019 6.2,-3.05 1.03,-2.032 1.54,-4.961 1.54,-8.782"
         style="fill:#ffffff;fill-opacity:1;fill-rule:nonzero;stroke:none"
         id="path386"
         inkscape:connector-curvature="0" /><path
         d="m 2138.08,189.57 29.27,0 c -0.4,5.52 -1.89,9.649 -4.47,12.391 -2.58,2.738 -5.98,4.109 -10.19,4.109 -4.03,0 -7.33,-1.39 -9.91,-4.16 -2.58,-2.789 -4.14,-6.898 -4.7,-12.34 z m 31.57,-9.172 -31.57,0 c 0.05,-3.656 0.78,-6.886 2.22,-9.687 1.44,-2.801 3.35,-4.91 5.74,-6.32 2.37,-1.43 5.01,-2.129 7.88,-2.129 1.94,0 3.7,0.218 5.3,0.668 1.59,0.461 3.14,1.172 4.64,2.14 1.49,0.961 2.87,2 4.14,3.102 1.26,1.109 2.89,2.617 4.9,4.5 0.83,0.707 2.01,1.066 3.55,1.066 1.66,0 3,-0.457 4.02,-1.367 1.03,-0.922 1.54,-2.18 1.54,-3.84 0,-1.461 -0.57,-3.16 -1.72,-5.109 -1.14,-1.961 -2.87,-3.832 -5.17,-5.621 -2.31,-1.801 -5.2,-3.281 -8.69,-4.461 -3.49,-1.192 -7.5,-1.77 -12.03,-1.77 -10.37,0 -18.43,2.95 -24.19,8.86 -5.74,5.91 -8.62,13.929 -8.62,24.062 0,4.77 0.71,9.199 2.12,13.27 1.42,4.078 3.5,7.578 6.22,10.488 2.71,2.922 6.07,5.148 10.04,6.711 3.98,1.559 8.4,2.328 13.25,2.328 6.3,0 11.71,-1.32 16.22,-3.98 4.52,-2.661 7.9,-6.098 10.14,-10.309 2.25,-4.219 3.37,-8.531 3.37,-12.891 0,-4.07 -1.16,-6.687 -3.48,-7.898 -2.33,-1.199 -5.6,-1.813 -9.82,-1.813"
         style="fill:#ffffff;fill-opacity:1;fill-rule:nonzero;stroke:none"
         id="path390"
         inkscape:connector-curvature="0" /><path
         d="m 2203.7,184.492 c 0,-4.383 0.67,-8.101 2.03,-11.183 1.36,-3.071 3.23,-5.379 5.6,-6.938 2.36,-1.551 4.94,-2.34 7.73,-2.34 2.85,0 5.44,0.739 7.78,2.219 2.34,1.469 4.22,3.75 5.61,6.801 1.41,3.051 2.1,6.871 2.1,11.441 0,4.297 -0.69,7.988 -2.1,11.098 -1.39,3.082 -3.28,5.441 -5.67,7.082 -2.39,1.629 -5,2.449 -7.83,2.449 -2.96,0 -5.6,-0.84 -7.92,-2.512 -2.33,-1.668 -4.13,-4.07 -5.41,-7.211 -1.29,-3.136 -1.92,-6.769 -1.92,-10.906 z m 31.74,-23.711 0,1.61 c -2.17,-2.493 -4.3,-4.512 -6.41,-6.059 -2.11,-1.57 -4.39,-2.75 -6.86,-3.551 -2.46,-0.82 -5.15,-1.211 -8.07,-1.211 -3.86,0 -7.44,0.801 -10.73,2.442 -3.29,1.629 -6.14,3.968 -8.54,7.008 -2.41,3.031 -4.23,6.589 -5.47,10.699 -1.24,4.101 -1.86,8.543 -1.86,13.301 0,10.089 2.46,17.96 7.39,23.601 4.92,5.629 11.41,8.438 19.45,8.438 4.65,0 8.57,-0.797 11.76,-2.387 3.19,-1.59 6.31,-4.063 9.34,-7.363 l 0,23.82 c 0,3.32 0.66,5.812 1.98,7.512 1.32,1.699 3.21,2.539 5.65,2.539 2.44,0 4.32,-0.782 5.64,-2.328 1.32,-1.563 1.99,-3.852 1.99,-6.891 l 0,-71.18 c 0,-3.07 -0.71,-5.371 -2.13,-6.922 -1.42,-1.527 -3.25,-2.289 -5.5,-2.289 -2.21,0 -4.03,0.789 -5.47,2.379 -1.44,1.602 -2.16,3.883 -2.16,6.832"
         style="fill:#ffffff;fill-opacity:1;fill-rule:nonzero;stroke:none"
         id="path392"
         inkscape:connector-curvature="0" /><path
         d="m 2370.16,149.551 1.48,3.609 -19.87,50.012 c -1.22,2.867 -1.83,4.969 -1.83,6.269 0,1.379 0.36,2.661 1.06,3.829 0.72,1.199 1.69,2.14 2.93,2.839 1.24,0.723 2.53,1.082 3.87,1.082 2.33,0 4.08,-0.75 5.27,-2.23 1.18,-1.469 2.22,-3.582 3.13,-6.34 l 13.66,-39.73 12.94,36.941 c 1.02,2.988 1.95,5.34 2.78,7.039 0.83,1.688 1.7,2.84 2.63,3.418 0.92,0.602 2.24,0.902 3.93,0.902 1.23,0 2.4,-0.332 3.52,-0.992 1.12,-0.648 1.99,-1.519 2.6,-2.617 0.61,-1.113 0.92,-2.262 0.92,-3.492 -0.16,-0.738 -0.41,-1.809 -0.77,-3.199 -0.36,-1.371 -0.79,-2.782 -1.3,-4.192 l -21.04,-55.097 c -1.82,-4.852 -3.59,-8.641 -5.33,-11.411 -1.73,-2.75 -4.03,-4.882 -6.89,-6.351 -2.86,-1.481 -6.71,-2.219 -11.55,-2.219 -4.73,0 -8.28,0.508 -10.64,1.527 -2.37,1.032 -3.55,2.903 -3.55,5.622 0,1.859 0.56,3.281 1.69,4.289 1.12,1 2.78,1.523 4.99,1.523 0.86,0 1.72,-0.133 2.54,-0.371 1.03,-0.231 1.91,-0.359 2.66,-0.359 1.85,0 3.31,0.277 4.38,0.839 1.06,0.539 2.01,1.5 2.86,2.86 0.85,1.347 1.83,3.359 2.93,6"
         style="fill:#ffffff;fill-opacity:1;fill-rule:nonzero;stroke:none"
         id="path396"
         inkscape:connector-curvature="0" /><path
         d="m 2603.97,215.789 3.85,0 0,4.84 c 0,5.07 0.61,9.07 1.9,12.062 1.27,2.981 3.46,5.141 6.52,6.5 3.06,1.348 7.24,2.028 12.55,2.028 9.46,0 14.14,-2.278 14.14,-6.93 0,-1.48 -0.49,-2.769 -1.48,-3.82 -0.97,-1.059 -2.14,-1.598 -3.48,-1.598 -0.62,0 -1.73,0.109 -3.28,0.371 -1.48,0.199 -2.82,0.34 -3.88,0.34 -2.91,0 -4.77,-0.871 -5.63,-2.582 -0.8,-1.711 -1.22,-4.16 -1.22,-7.371 l 0,-3.84 3.94,0 c 6.17,0 9.22,-1.848 9.22,-5.578 0,-2.602 -0.79,-4.301 -2.45,-5.012 -1.63,-0.699 -3.88,-1.058 -6.77,-1.058 l -3.94,0 0,-42.762 c 0,-3.188 -0.75,-5.609 -2.3,-7.27 -1.5,-1.711 -3.45,-2.539 -5.87,-2.539 -2.28,0 -4.17,0.828 -5.71,2.539 -1.52,1.661 -2.26,4.082 -2.26,7.27 l 0,42.762 -4.45,0 c -2.42,0 -4.25,0.519 -5.56,1.629 -1.3,1.062 -1.96,2.48 -1.96,4.218 0,3.883 2.7,5.801 8.12,5.801"
         style="fill:#ffffff;fill-opacity:1;fill-rule:nonzero;stroke:none"
         id="path398"
         inkscape:connector-curvature="0" /><path
         d="m 2656.81,174.859 0,-13.48 c 0,-3.27 -0.83,-5.731 -2.33,-7.348 -1.53,-1.66 -3.48,-2.461 -5.84,-2.461 -2.37,0 -4.28,0.821 -5.77,2.489 -1.47,1.652 -2.24,4.101 -2.24,7.32 l 0,44.953 c 0,7.25 2.61,10.879 7.85,10.879 2.7,0 4.62,-0.832 5.81,-2.539 1.18,-1.703 1.83,-4.192 1.97,-7.524 1.92,3.332 3.89,5.821 5.91,7.524 2.07,1.707 4.74,2.539 8.15,2.539 3.41,0 6.67,-0.832 9.87,-2.539 3.2,-1.703 4.8,-3.961 4.8,-6.742 0,-1.969 -0.69,-3.61 -2.03,-4.871 -1.37,-1.297 -2.83,-1.938 -4.4,-1.938 -0.62,0 -2.05,0.391 -4.31,1.121 -2.27,0.699 -4.28,1.067 -5.99,1.067 -2.37,0 -4.31,-0.637 -5.8,-1.848 -1.51,-1.281 -2.68,-3.102 -3.51,-5.52 -0.81,-2.461 -1.37,-5.39 -1.7,-8.742 -0.3,-3.367 -0.44,-7.488 -0.44,-12.34"
         style="fill:#ffffff;fill-opacity:1;fill-rule:nonzero;stroke:none"
         id="path400"
         inkscape:connector-curvature="0" /><path
         d="m 2699.42,189.602 29.27,0 c -0.39,5.507 -1.86,9.648 -4.45,12.359 -2.6,2.758 -5.97,4.121 -10.21,4.121 -4.01,0 -7.33,-1.383 -9.9,-4.172 -2.59,-2.769 -4.17,-6.871 -4.71,-12.308 m 31.59,-9.18 -31.59,0 c 0.06,-3.66 0.77,-6.91 2.21,-9.703 1.46,-2.778 3.36,-4.887 5.75,-6.328 2.4,-1.411 5.01,-2.11 7.9,-2.11 1.94,0 3.69,0.199 5.29,0.688 1.58,0.429 3.14,1.152 4.64,2.121 1.5,0.949 2.86,1.992 4.13,3.109 1.26,1.09 2.91,2.59 4.92,4.481 0.84,0.699 2.02,1.082 3.54,1.082 1.67,0 2.99,-0.461 4.04,-1.383 1.03,-0.91 1.51,-2.18 1.51,-3.84 0,-1.457 -0.55,-3.16 -1.66,-5.098 -1.17,-1.98 -2.89,-3.839 -5.2,-5.64 -2.34,-1.77 -5.23,-3.281 -8.71,-4.449 -3.47,-1.18 -7.5,-1.782 -12.02,-1.782 -10.39,0 -18.45,2.95 -24.19,8.852 -5.75,5.93 -8.66,13.957 -8.66,24.078 0,4.781 0.73,9.199 2.16,13.289 1.4,4.09 3.47,7.57 6.22,10.5 2.71,2.93 6.04,5.16 10.03,6.711 3.97,1.559 8.39,2.34 13.25,2.34 6.29,0 11.71,-1.34 16.22,-4.031 4.51,-2.629 7.94,-6.079 10.14,-10.297 2.26,-4.231 3.38,-8.512 3.38,-12.91 0,-4.032 -1.18,-6.661 -3.5,-7.872 -2.32,-1.21 -5.59,-1.808 -9.8,-1.808"
         style="fill:#ffffff;fill-opacity:1;fill-rule:nonzero;stroke:none"
         id="path402"
         inkscape:connector-curvature="0" /><path
         d="m 2766.58,189.602 29.25,0 c -0.39,5.507 -1.89,9.648 -4.45,12.359 -2.62,2.758 -5.98,4.121 -10.22,4.121 -4.02,0 -7.32,-1.383 -9.91,-4.172 -2.57,-2.769 -4.15,-6.871 -4.67,-12.308 m 31.57,-9.18 -31.57,0 c 0.03,-3.66 0.78,-6.91 2.2,-9.703 1.44,-2.778 3.35,-4.887 5.74,-6.328 2.38,-1.411 5,-2.11 7.9,-2.11 1.92,0 3.69,0.199 5.26,0.688 1.62,0.429 3.15,1.152 4.67,2.121 1.51,0.949 2.86,1.992 4.13,3.109 1.24,1.09 2.89,2.59 4.91,4.481 0.84,0.699 2.03,1.082 3.54,1.082 1.67,0 3.01,-0.461 4.05,-1.383 1.02,-0.91 1.49,-2.18 1.49,-3.84 0,-1.457 -0.54,-3.16 -1.7,-5.098 -1.1,-1.98 -2.83,-3.839 -5.17,-5.64 -2.3,-1.77 -5.23,-3.281 -8.68,-4.449 -3.47,-1.18 -7.52,-1.782 -12.04,-1.782 -10.38,0 -18.42,2.95 -24.2,8.852 -5.74,5.93 -8.64,13.957 -8.64,24.078 0,4.781 0.72,9.199 2.17,13.289 1.4,4.09 3.47,7.57 6.2,10.5 2.7,2.93 6.05,5.16 10.04,6.711 3.97,1.559 8.41,2.34 13.25,2.34 6.28,0 11.7,-1.34 16.27,-4.031 4.48,-2.629 7.87,-6.079 10.09,-10.297 2.23,-4.231 3.39,-8.512 3.39,-12.91 0,-4.032 -1.19,-6.661 -3.5,-7.872 -2.33,-1.21 -5.59,-1.808 -9.8,-1.808"
         style="fill:#ffffff;fill-opacity:1;fill-rule:nonzero;stroke:none"
         id="path404"
         inkscape:connector-curvature="0" /><path
         d="m 2865.15,184.68 c 0,4.261 -0.67,7.929 -1.96,10.98 -1.3,3.059 -3.11,5.399 -5.39,7.012 -2.29,1.648 -4.87,2.469 -7.67,2.469 -4.45,0 -8.21,-1.77 -11.26,-5.25 -3.06,-3.532 -4.6,-8.692 -4.6,-15.512 0,-6.399 1.52,-11.418 4.57,-14.988 3.04,-3.559 6.76,-5.34 11.29,-5.34 2.66,0 5.17,0.789 7.46,2.32 2.3,1.57 4.13,3.899 5.49,7.008 1.38,3.133 2.07,6.902 2.07,11.301 m -31.65,23.449 0,-1.93 c 3.03,3.742 6.19,6.492 9.49,8.242 3.23,1.77 6.96,2.661 11.09,2.661 4.95,0 9.56,-1.301 13.74,-3.84 4.18,-2.582 7.46,-6.321 9.89,-11.242 2.43,-4.961 3.65,-10.77 3.65,-17.52 0,-4.949 -0.69,-9.531 -2.09,-13.699 -1.4,-4.16 -3.35,-7.641 -5.78,-10.461 -2.45,-2.801 -5.33,-4.981 -8.65,-6.508 -3.37,-1.5 -6.92,-2.262 -10.76,-2.262 -4.59,0 -8.48,0.93 -11.61,2.789 -3.12,1.813 -6.11,4.563 -8.97,8.121 l 0,-24.23 c 0,-7.059 -2.59,-10.641 -7.74,-10.641 -3.05,0 -5.04,0.911 -6.04,2.743 -0.95,1.859 -1.46,4.5 -1.46,8.039 l 0,69.668 c 0,3.082 0.66,5.339 1.99,6.89 1.34,1.492 3.19,2.262 5.51,2.262 2.3,0 4.14,-0.77 5.58,-2.32 1.46,-1.582 2.16,-3.801 2.16,-6.762"
         style="fill:#ffffff;fill-opacity:1;fill-rule:nonzero;stroke:none"
         id="path406"
         inkscape:connector-curvature="0" /><path
         d="m 2905.61,208.059 0,-46.7 c 0,-3.199 -0.77,-5.648 -2.3,-7.3 -1.56,-1.668 -3.5,-2.489 -5.86,-2.489 -2.38,0 -4.27,0.828 -5.78,2.539 -1.46,1.711 -2.21,4.133 -2.21,7.25 l 0,46.231 c 0,3.172 0.75,5.582 2.21,7.191 1.51,1.641 3.4,2.43 5.78,2.43 2.36,0 4.3,-0.789 5.86,-2.43 1.53,-1.609 2.3,-3.883 2.3,-6.722 m -8,16.671 c -2.25,0 -4.16,0.711 -5.74,2.079 -1.61,1.39 -2.41,3.312 -2.41,5.832 0,2.289 0.81,4.168 2.46,5.668 1.64,1.461 3.53,2.211 5.69,2.211 2.12,0 3.96,-0.661 5.56,-1.989 1.62,-1.351 2.44,-3.32 2.44,-5.89 0,-2.481 -0.79,-4.422 -2.35,-5.821 -1.59,-1.379 -3.45,-2.09 -5.65,-2.09"
         style="fill:#ffffff;fill-opacity:1;fill-rule:nonzero;stroke:none"
         id="path408"
         inkscape:connector-curvature="0" /><path
         d="m 2957.64,158.941 -14.21,23.438 -8.77,-8.27 0,-12.847 c 0,-3.102 -0.83,-5.492 -2.47,-7.153 -1.6,-1.711 -3.52,-2.539 -5.64,-2.539 -2.48,0 -4.45,0.821 -5.86,2.489 -1.41,1.652 -2.14,4.101 -2.14,7.32 l 0,68.851 c 0,3.579 0.71,6.301 2.06,8.18 1.4,1.899 3.4,2.809 5.94,2.809 2.49,0 4.43,-0.848 5.91,-2.559 1.45,-1.68 2.2,-4.18 2.2,-7.48 l 0,-39.168 18.14,19.058 c 2.26,2.352 3.94,3.989 5.15,4.852 1.18,0.867 2.62,1.289 4.29,1.289 2.04,0 3.7,-0.641 5.08,-1.922 1.32,-1.269 1.99,-2.898 1.99,-4.809 0,-2.359 -2.2,-5.531 -6.56,-9.468 l -8.57,-7.864 16.55,-26.039 c 1.2,-1.949 2.11,-3.379 2.64,-4.379 0.52,-1 0.81,-2 0.81,-2.878 0,-2.571 -0.71,-4.582 -2.12,-6.071 -1.4,-1.48 -3.26,-2.211 -5.52,-2.211 -1.97,0 -3.5,0.512 -4.56,1.602 -1.06,1.07 -2.54,3 -4.34,5.769"
         style="fill:#ffffff;fill-opacity:1;fill-rule:nonzero;stroke:none"
         id="path410"
         inkscape:connector-curvature="0" /><path
         d="m 2992.72,151.57 c -2.44,0 -4.53,0.789 -6.31,2.379 -1.77,1.543 -2.67,3.77 -2.67,6.621 0,2.399 0.86,4.481 2.55,6.192 1.71,1.738 3.78,2.609 6.27,2.609 2.48,0 4.58,-0.871 6.37,-2.57 1.74,-1.711 2.62,-3.809 2.62,-6.231 0,-2.82 -0.88,-5.031 -2.62,-6.601 -1.79,-1.61 -3.86,-2.399 -6.21,-2.399"
         style="fill:#ffffff;fill-opacity:1;fill-rule:nonzero;stroke:none"
         id="path412"
         inkscape:connector-curvature="0" /><path
         d="m 3073,171.551 c 0,-1.992 -0.6,-4.16 -1.81,-6.442 -1.19,-2.3 -3.04,-4.461 -5.51,-6.527 -2.46,-2.07 -5.55,-3.742 -9.3,-5 -3.75,-1.262 -7.98,-1.902 -12.65,-1.902 -10,0 -17.79,2.91 -23.39,8.711 -5.56,5.828 -8.37,13.629 -8.37,23.398 0,6.652 1.27,12.492 3.85,17.582 2.54,5.07 6.25,9.008 11.09,11.801 4.85,2.777 10.68,4.168 17.39,4.168 4.19,0 8.02,-0.621 11.53,-1.84 3.49,-1.219 6.43,-2.809 8.87,-4.73 2.41,-1.961 4.27,-4.008 5.54,-6.18 1.28,-2.18 1.91,-4.231 1.91,-6.129 0,-1.93 -0.7,-3.57 -2.13,-4.91 -1.47,-1.34 -3.21,-2.012 -5.22,-2.012 -1.37,0 -2.48,0.352 -3.37,1.031 -0.9,0.692 -1.89,1.801 -2.98,3.371 -1.98,2.981 -4.02,5.239 -6.19,6.719 -2.14,1.512 -4.87,2.25 -8.19,2.25 -4.74,0 -8.61,-1.851 -11.53,-5.59 -2.91,-3.699 -4.38,-8.828 -4.38,-15.269 0,-3.039 0.39,-5.852 1.14,-8.391 0.73,-2.531 1.81,-4.699 3.24,-6.5 1.43,-1.781 3.13,-3.14 5.14,-4.07 2.02,-0.949 4.24,-1.399 6.62,-1.399 3.24,0 6.02,0.739 8.32,2.25 2.34,1.489 4.38,3.778 6.14,6.848 0.98,1.813 2.04,3.223 3.17,4.262 1.13,1.019 2.54,1.551 4.2,1.551 1.97,0 3.61,-0.762 4.9,-2.262 1.31,-1.488 1.97,-3.098 1.97,-4.789"
         style="fill:#ffffff;fill-opacity:1;fill-rule:nonzero;stroke:none"
         id="path414"
         inkscape:connector-curvature="0" /><path
         d="m 3126.45,184.379 c 0,6.59 -1.46,11.703 -4.34,15.363 -2.89,3.707 -6.78,5.539 -11.66,5.539 -3.17,0 -5.96,-0.832 -8.37,-2.461 -2.41,-1.629 -4.24,-4.039 -5.54,-7.25 -1.3,-3.191 -1.96,-6.929 -1.96,-11.191 0,-4.227 0.64,-7.891 1.93,-11.039 1.29,-3.168 3.12,-5.578 5.51,-7.258 2.4,-1.652 5.2,-2.523 8.43,-2.523 4.88,0 8.77,1.851 11.66,5.562 2.88,3.668 4.34,8.777 4.34,15.258 m 16.21,0 c 0,-4.789 -0.76,-9.238 -2.22,-13.309 -1.54,-4.058 -3.68,-7.55 -6.53,-10.449 -2.83,-2.922 -6.24,-5.16 -10.16,-6.719 -3.97,-1.543 -8.4,-2.332 -13.3,-2.332 -4.9,0 -9.3,0.789 -13.21,2.379 -3.88,1.543 -7.29,3.821 -10.12,6.731 -2.87,2.968 -5.04,6.429 -6.55,10.429 -1.42,4.012 -2.18,8.442 -2.18,13.27 0,4.902 0.77,9.371 2.23,13.43 1.51,4.07 3.66,7.55 6.47,10.421 2.8,2.872 6.18,5.079 10.15,6.661 4,1.55 8.4,2.32 13.21,2.32 4.88,0 9.31,-0.77 13.3,-2.371 3.98,-1.57 7.37,-3.828 10.23,-6.719 2.85,-2.949 5,-6.41 6.47,-10.41 1.46,-4.039 2.21,-8.461 2.21,-13.332"
         style="fill:#ffffff;fill-opacity:1;fill-rule:nonzero;stroke:none"
         id="path416"
         inkscape:connector-curvature="0" /><path
         d="m 3204.23,183.191 0,-21.449 c 0,-3.402 -0.75,-5.922 -2.3,-7.633 -1.56,-1.711 -3.56,-2.539 -6.09,-2.539 -2.44,0 -4.44,0.828 -5.92,2.539 -1.54,1.711 -2.31,4.231 -2.31,7.633 l 0,25.707 c 0,4.071 -0.13,7.242 -0.39,9.5 -0.29,2.192 -1.05,4.071 -2.26,5.492 -1.23,1.461 -3.17,2.188 -5.8,2.188 -5.29,0 -8.75,-1.809 -10.43,-5.488 -1.66,-3.582 -2.53,-8.789 -2.53,-15.602 l 0,-21.797 c 0,-3.351 -0.76,-5.89 -2.25,-7.621 -1.55,-1.691 -3.53,-2.551 -6.01,-2.551 -2.46,0 -4.46,0.86 -6.01,2.551 -1.57,1.731 -2.35,4.27 -2.35,7.621 l 0,46.188 c 0,3.031 0.7,5.34 2.1,6.91 1.42,1.601 3.27,2.371 5.53,2.371 2.22,0 4.05,-0.762 5.55,-2.211 1.47,-1.48 2.2,-3.52 2.2,-6.129 l 0,-1.519 c 2.82,3.328 5.82,5.796 8.99,7.347 3.22,1.61 6.74,2.403 10.67,2.403 4.05,0 7.53,-0.821 10.44,-2.43 2.92,-1.613 5.31,-4.07 7.23,-7.32 2.72,3.289 5.65,5.738 8.77,7.347 3.11,1.602 6.56,2.403 10.34,2.403 4.4,0 8.23,-0.891 11.42,-2.61 3.18,-1.73 5.56,-4.23 7.14,-7.441 1.37,-2.942 2.05,-7.531 2.05,-13.801 l 0,-31.508 c 0,-3.402 -0.75,-5.922 -2.28,-7.633 -1.53,-1.711 -3.57,-2.539 -6.09,-2.539 -2.46,0 -4.45,0.86 -6.01,2.551 -1.56,1.731 -2.34,4.27 -2.34,7.621 l 0,27.149 c 0,3.48 -0.15,6.25 -0.43,8.328 -0.3,2.101 -1.11,3.863 -2.38,5.269 -1.33,1.414 -3.31,2.141 -5.93,2.141 -2.13,0 -4.15,-0.668 -6.07,-1.918 -1.91,-1.231 -3.4,-2.969 -4.49,-5.059 -1.15,-2.722 -1.76,-7.55 -1.76,-14.461"
         style="fill:#ffffff;fill-opacity:1;fill-rule:nonzero;stroke:none"
         id="path418"
         inkscape:connector-curvature="0" /><path
         d="m 2452.91,188.289 c -0.01,0.031 -0.01,0.063 -0.01,0.109 0,-0.046 0,-0.078 0.01,-0.109"
         style="fill:#ffffff;fill-opacity:1;fill-rule:nonzero;stroke:none"
         id="path420"
         inkscape:connector-curvature="0" /><path
         d="m 2453.73,183.129 c 0.01,0 0.01,0 0.02,0 -0.31,1.473 -0.55,2.93 -0.74,4.371 0.19,-1.461 0.43,-2.918 0.72,-4.371"
         style="fill:#ffffff;fill-opacity:1;fill-rule:nonzero;stroke:none"
         id="path422"
         inkscape:connector-curvature="0" /><path
         d="m 2459.07,168.148 c -0.04,0.063 -0.07,0.133 -0.1,0.204 0.03,-0.071 0.06,-0.141 0.1,-0.204"
         style="fill:#ffffff;fill-opacity:1;fill-rule:nonzero;stroke:none"
         id="path424"
         inkscape:connector-curvature="0" /><path
         d="m 2458.56,169.148 c -0.14,0.274 -0.27,0.551 -0.41,0.832 0.14,-0.289 0.27,-0.558 0.41,-0.832"
         style="fill:#ffffff;fill-opacity:1;fill-rule:nonzero;stroke:none"
         id="path426"
         inkscape:connector-curvature="0" /><path
         d="m 2455.23,177.359 c 0.79,-2.5 1.74,-4.91 2.84,-7.207 -1.12,2.348 -2.05,4.77 -2.82,7.207 0,0 -0.01,0 -0.02,0"
         style="fill:#ffffff;fill-opacity:1;fill-rule:nonzero;stroke:none"
         id="path428"
         inkscape:connector-curvature="0" /><path
         d="m 2515.39,250.141 c 3.12,0 5.42,-0.25 8.06,-0.7 l 0.75,4.758 c 0,0 -7.29,2.231 -16.87,1.449 l -0.76,2.582 c 2.98,0.629 5.22,3.282 5.22,6.442 0,3.629 -2.95,6.558 -6.58,6.558 -3.63,0 -6.57,-2.929 -6.57,-6.558 0,-3.16 2.23,-5.813 5.2,-6.442 l 0.84,-2.878 c -10.18,-1.403 -18.27,-5.364 -18.27,-5.364 l 1.43,-4.398 c 6.16,2.051 11.49,3.301 16.33,3.832 4.75,0.5 8.31,0.719 11.22,0.719"
         style="fill:#ffffff;fill-opacity:1;fill-rule:nonzero;stroke:none"
         id="path430"
         inkscape:connector-curvature="0" /><path
         d="m 2458.95,226.129 0.04,0.043 c 0.24,0.308 0.47,0.598 0.7,0.887 l -1.95,1.402 -3.03,2.219 c -0.17,-0.239 -4.95,-4.629 -8.73,-12.75 -0.15,0.261 -0.34,0.511 -0.55,0.742 -1.14,1.238 -2.72,1.867 -4.72,1.84 -0.03,0 -0.06,0 -0.1,0 -1.24,0 -2.09,0.41 -2.65,0.91 0.55,0.707 0.89,1.59 0.89,2.566 0,2.293 -1.87,4.172 -4.17,4.172 -2.29,0 -4.16,-1.879 -4.16,-4.172 0,-2.297 1.87,-4.156 4.16,-4.156 0.36,0 0.71,0.059 1.04,0.129 1.02,-1.141 2.65,-2.129 5.03,-2.082 1.22,0.012 2.12,-0.297 2.72,-0.969 0.69,-0.75 0.92,-1.84 0.99,-2.66 0,-0.008 0,-0.031 -0.01,-0.031 -2.71,-7.41 -1.94,-16.617 -1.94,-16.617 l 6.58,-0.262 c 0.13,3.351 0.61,9.219 2.31,13.879 3.28,9.019 7.38,14.66 7.55,14.91"
         style="fill:#ffffff;fill-opacity:1;fill-rule:nonzero;stroke:none"
         id="path432"
         inkscape:connector-curvature="0" /><path
         d="m 2572.65,244.629 c -2.29,0 -4.17,-1.848 -4.17,-4.16 0,-0.348 0.06,-0.688 0.15,-1.028 -1.14,-1.031 -2.13,-2.652 -2.1,-5.043 0.02,-1.226 -0.29,-2.117 -0.96,-2.718 -0.53,-0.461 -1.19,-0.719 -1.83,-0.871 -4.9,6.863 -10.94,11.05 -10.94,11.05 l -4.72,-5.07 c 3.57,-3.238 7.21,-7.309 10.76,-12.391 2.45,-3.5 4.97,-8.019 7.07,-12.527 l 6.37,3.02 c 0,0 -2.91,7.191 -7,13.64 0.71,0.25 1.42,0.641 2.06,1.211 1.25,1.11 1.86,2.707 1.82,4.707 -0.01,1.293 0.42,2.172 0.92,2.75 0.71,-0.551 1.6,-0.89 2.57,-0.89 2.31,0 4.17,1.863 4.17,4.16 0,2.312 -1.86,4.16 -4.17,4.16"
         style="fill:#ffffff;fill-opacity:1;fill-rule:nonzero;stroke:none"
         id="path434"
         inkscape:connector-curvature="0" /></g><path
       style="fill:#ffffff;fill-opacity:1"
       d=""
       id="path4574"
       inkscape:connector-curvature="0"
       transform="matrix(0.8,0,0,-0.8,0,500)" /></g></svg>