<?xml version="1.0" encoding="utf-8"?>
<!-- Generator: Adobe Illustrator 21.0.1, SVG Export Plug-In . SVG Version: 6.00 Build 0)  -->
<svg version="1.1" id="Layer_1" xmlns="http://www.w3.org/2000/svg" xmlns:xlink="http://www.w3.org/1999/xlink" x="0px" y="0px"
	 viewBox="0 0 500 500" style="enable-background:new 0 0 500 500;" xml:space="preserve">
<style type="text/css">
	.st0{fill:#D72D4E;}
	.st1{fill:#F2BF96;}
	.st2{fill:#F2C09E;}
	.st3{fill:#FFDCC5;}
	.st4{fill:#B1C95D;}
	.st5{fill:#E7FFE1;}
	.st6{fill:#6D8467;}
	.st7{fill:#FFFFFF;stroke:#C1272D;stroke-width:3;stroke-miterlimit:10;}
</style>
<g id="_x31_6">
	<g>
		<path class="st0" d="M249.2,2.5c136.9,0,247.8,111,247.8,247.8c0,136.9-111,247.8-247.8,247.8c-136.9,0-247.8-111-247.8-247.8
			C1.4,113.4,112.4,2.5,249.2,2.5z"/>
	</g>
	<path class="st1" d="M230.3,318.8L230.3,318.8c-11.4-1.5-19.9-12.1-18.1-23.4l17.4-108.3c1.8-11.3,12-19.6,23.4-18.1l0,0
		c11.4,1.5,19.6,12,18.1,23.4l-17.4,108.3C251.9,312,241.8,320.2,230.3,318.8z"/>
	<path class="st1" d="M275.6,307.9L275.6,307.9c-11.5,0.4-21.6-8.7-21.6-20.2L253.9,178c0-11.5,8.7-21.2,20.2-21.6l0,0
		c11.5-0.4,21.2,8.7,21.6,20.2l0.1,109.7C295.8,297.8,287.1,307.5,275.6,307.9z"/>
	<polygon class="st2" points="409.3,172.9 284.7,119.3 206.7,195.2 205.1,265.8 378.7,238.4 	"/>
	<path class="st2" d="M322.6,293.2L322.6,293.2c-11,3.5-23.2-2.6-26.3-13.6L266.4,174c-3.1-11.1,2.6-22.8,13.6-26.3l0,0
		c11-3.5,22.8,2.6,26.3,13.6l29.9,105.5C339.4,278,333.6,289.7,322.6,293.2z"/>
	<path class="st3" d="M404.4,148.3c50.4,24.4,69.4,46.2,87.2,50.2c5,20.7,8,54.7,2.8,88.2c-17.1-12.5-71.3-10.8-86.9-7.6
		c-43,8.9-77.1-19-79.1-35.4C326.4,227.3,368.1,172.6,404.4,148.3z"/>
	<path class="st3" d="M431.1,178.7L431.1,178.7c-2.6,11.2-14.8,20.4-25.2,15.6L279,134.8c-10.4-4.9-18.2-14-15.6-25.2l0,0
		c2.6-11.2,14-18.2,25.2-15.6l126.9,59.5C426,158.4,433.7,167.5,431.1,178.7z"/>
	<path class="st3" d="M196.4,186.1L196.4,186.1c-7-9.1-5.1-22.2,3.8-29.4l69.5-57.6c8.8-7.3,22.3-5.3,29.4,3.8l0,0
		c7,9.1,5.3,22.3-3.8,29.4l-69.5,57.6C216.9,197.2,203.4,195.2,196.4,186.1z"/>
	<path class="st3" d="M176.9,302.8L176.9,302.8c-11.2-2.7-18.5-14.1-15.5-25.2l28.9-105.8c3-11.1,14-18.2,25.2-15.5l0,0
		c11.2,2.7,18.1,14,15.5,25.2l-28.9,105.8C199.1,298.4,188.1,305.4,176.9,302.8z"/>
	<path class="st3" d="M265.6,156.8c18.9,5.7,95.7,30.7,61,66.6c-34.7,35.9,89.4,0.2,89.4,0.2l-34-74.4
		C382.1,149.2,276.2,93.8,265.6,156.8z"/>
	<g>
		<rect x="101.7" y="230" class="st4" width="243" height="158.1"/>
		<rect x="121" y="253.2" class="st5" width="123.4" height="38.6"/>
		<path class="st5" d="M316.7,253.3c10.7,0,19.3,8.7,19.3,19.4c0,10.7-8.7,19.4-19.3,19.4s-19.4-8.7-19.4-19.4
			C297.4,261.9,306,253.3,316.7,253.3z"/>
		<path class="st5" d="M296.5,253.3c10.7,0,19.4,8.7,19.4,19.4c0,10.7-8.7,19.4-19.4,19.4c-10.7,0-19.4-8.7-19.4-19.4
			C277.1,261.9,285.8,253.3,296.5,253.3z"/>
		<rect x="101.7" y="341.9" class="st6" width="243" height="27"/>
	</g>
	<path class="st3" d="M363.2,236.8L363.2,236.8c4,12.9-3,27.7-16.2,30.8l-118.7,27.9c-13.1,3.1-26.8-3.3-30.8-16.2l0,0
		c-4-12.9,3.3-26.7,16.2-30.8l118.7-27.9C345.6,217.5,359.2,223.8,363.2,236.8z"/>
	<path class="st3" d="M434.9,216.8L434.9,216.8c4,12.9-3,27.7-16.2,30.8L300,275.5c-13.1,3.1-26.8-3.3-30.8-16.2l0,0
		c-4-12.9,3.3-26.7,16.2-30.8l118.7-27.9C417.3,197.5,430.9,203.8,434.9,216.8z"/>
</g>
<line class="st7" x1="479.3" y1="37.3" x2="45.7" y2="471"/>
</svg>
