<?xml version="1.0" encoding="UTF-8" standalone="no"?>
<svg
   xmlns:dc="http://purl.org/dc/elements/1.1/"
   xmlns:cc="http://creativecommons.org/ns#"
   xmlns:rdf="http://www.w3.org/1999/02/22-rdf-syntax-ns#"
   xmlns:svg="http://www.w3.org/2000/svg"
   xmlns="http://www.w3.org/2000/svg"
   xmlns:sodipodi="http://sodipodi.sourceforge.net/DTD/sodipodi-0.dtd"
   xmlns:inkscape="http://www.inkscape.org/namespaces/inkscape"
   width="386.14993pt"
   height="326.45166pt"
   viewBox="0 0 386.14993 326.45166"
   version="1.1"
   id="svg2"
   inkscape:version="0.91 r13725"
   sodipodi:docname="pricing-one.svg">
  <metadata
     id="metadata322">
    <rdf:RDF>
      <cc:Work
         rdf:about="">
        <dc:format>image/svg+xml</dc:format>
        <dc:type
           rdf:resource="http://purl.org/dc/dcmitype/StillImage" />
        <dc:title></dc:title>
      </cc:Work>
    </rdf:RDF>
  </metadata>
  <sodipodi:namedview
     pagecolor="#ffffff"
     bordercolor="#666666"
     borderopacity="1"
     objecttolerance="10"
     gridtolerance="10"
     guidetolerance="10"
     inkscape:pageopacity="0"
     inkscape:pageshadow="2"
     inkscape:window-width="1366"
     inkscape:window-height="712"
     id="namedview320"
     showgrid="false"
     fit-margin-top="0"
     fit-margin-left="0"
     fit-margin-right="0"
     fit-margin-bottom="0"
     inkscape:zoom="0.95353535"
     inkscape:cx="153.53145"
     inkscape:cy="191.39585"
     inkscape:window-x="0"
     inkscape:window-y="30"
     inkscape:window-maximized="1"
     inkscape:current-layer="surface1" />
  <defs
     id="defs4">
    <clipPath
       id="clip1">
      <path
         d="m 353,387 105,0 0,110 -105,0 z m 0,0"
         id="path7"
         inkscape:connector-curvature="0" />
    </clipPath>
    <clipPath
       id="clip2">
      <path
         d="m 462.89062,434.02344 c 0,34.72265 -28.14843,62.86718 -62.86718,62.86718 -34.72266,0 -62.8711,-28.14453 -62.8711,-62.86718 0,-34.71875 28.14844,-62.86719 62.8711,-62.86719 34.71875,0 62.86718,28.14844 62.86718,62.86719"
         id="path10"
         inkscape:connector-curvature="0" />
    </clipPath>
    <clipPath
       id="clip3">
      <path
         d="m 400.02344,496.89062 c -10.86328,0 -21.07813,-2.7539 -29.99219,-7.60156 l 0.30469,-4.67969 c -15.79297,-33.48828 -16.19532,-65.5664 -16.19532,-65.5664 l 0.46875,-0.008 -0.17187,-1.3086 0.61328,-0.0312 c -0.96875,-2.76172 -1.94141,-6.71484 0.25391,-7.10547 0.0976,-0.0156 0.1914,-0.0234 0.28125,-0.0234 0.80078,0 1.3125,0.66015 1.39843,1.41406 -0.0937,-0.83594 -0.0547,-2.03906 1.01954,-2.19531 0.0781,-0.0117 0.15234,-0.0156 0.22656,-0.0156 1.02734,0 1.53515,1.05859 1.59765,1.66797 -0.043,-0.79688 -0.58203,-2.36719 1.27344,-2.6875 0.0391,-0.008 0.0781,-0.0117 0.1211,-0.0117 0.73828,0 1.7539,1.07422 1.87109,1.85938 -0.24609,-3.46485 -0.92188,-11.44922 1.60156,-11.75 0.0195,-0.004 0.0391,-0.004 0.0625,-0.004 2,0 1.70703,11.94141 1.41797,18.23047 l 0.42578,-0.0234 0.0547,1.76953 0.96484,-0.0195 c 0,0 0.21485,23.01172 7.03516,45.5 0.53906,-11.05078 3.05859,-32.07812 14.05078,-44.20703 -19.8125,-12.51563 -9.41406,-32.32813 -9.41406,-32.32813 5.08594,6.85938 8.74609,9.03125 12.29687,9.03125 3.07032,0 6.05469,-1.625 9.80078,-3.2539 3.74219,-1.625 8.25,-3.25391 14.36329,-3.25391 2.60156,0 5.49218,0.29688 8.73828,1.01172 19.5664,4.29688 18.71875,20.17969 18.71875,20.17969 0.14843,-0.004 0.28906,-0.004 0.43359,-0.004 30.20313,0 1.33984,65.37891 0.76953,65.47656 l 0.53516,0.0664 -0.1211,1.10547 c -11.40234,11.58594 -27.26562,18.76562 -44.80468,18.76562 m 43.4414,-21.10546 c -0.0664,0.39453 -0.125,0.74218 -0.17968,1.03125 l 1.11328,0.13281 c -0.3125,-0.35938 -0.625,-0.75391 -0.9336,-1.16406"
         id="path13"
         inkscape:connector-curvature="0" />
    </clipPath>
    <clipPath
       id="clip4">
      <path
         d="m 351,395 13,0 0,23 -13,0 z m 0,0"
         id="path16"
         inkscape:connector-curvature="0" />
    </clipPath>
    <clipPath
       id="clip5">
      <path
         d="m 462.89062,434.02344 c 0,34.72265 -28.14843,62.86718 -62.86718,62.86718 -34.72266,0 -62.8711,-28.14453 -62.8711,-62.86718 0,-34.71875 28.14844,-62.86719 62.8711,-62.86719 34.71875,0 62.86718,28.14844 62.86718,62.86719"
         id="path19"
         inkscape:connector-curvature="0" />
    </clipPath>
    <clipPath
       id="clip6">
      <path
         d="m 352,413 13,0 0,4 -13,0 z m 0,0"
         id="path22"
         inkscape:connector-curvature="0" />
    </clipPath>
    <clipPath
       id="clip7">
      <path
         d="m 462.89062,434.02344 c 0,34.72265 -28.14843,62.86718 -62.86718,62.86718 -34.72266,0 -62.8711,-28.14453 -62.8711,-62.86718 0,-34.71875 28.14844,-62.86719 62.8711,-62.86719 34.71875,0 62.86718,28.14844 62.86718,62.86719"
         id="path25"
         inkscape:connector-curvature="0" />
    </clipPath>
    <clipPath
       id="clip8">
      <path
         d="m 351,415 33,0 0,78 -33,0 z m 0,0"
         id="path28"
         inkscape:connector-curvature="0" />
    </clipPath>
    <clipPath
       id="clip9">
      <path
         d="m 462.89062,434.02344 c 0,34.72265 -28.14843,62.86718 -62.86718,62.86718 -34.72266,0 -62.8711,-28.14453 -62.8711,-62.86718 0,-34.71875 28.14844,-62.86719 62.8711,-62.86719 34.71875,0 62.86718,28.14844 62.86718,62.86719"
         id="path31"
         inkscape:connector-curvature="0" />
    </clipPath>
    <clipPath
       id="clip10">
      <path
         d="m 352,417 4,0 0,3 -4,0 z m 0,0"
         id="path34"
         inkscape:connector-curvature="0" />
    </clipPath>
    <clipPath
       id="clip11">
      <path
         d="m 462.89062,434.02344 c 0,34.72265 -28.14843,62.86718 -62.86718,62.86718 -34.72266,0 -62.8711,-28.14453 -62.8711,-62.86718 0,-34.71875 28.14844,-62.86719 62.8711,-62.86719 34.71875,0 62.86718,28.14844 62.86718,62.86719"
         id="path37"
         inkscape:connector-curvature="0" />
    </clipPath>
    <clipPath
       id="clip12">
      <path
         d="m 353,421 4,0 0,4 -4,0 z m 0,0"
         id="path40"
         inkscape:connector-curvature="0" />
    </clipPath>
    <clipPath
       id="clip13">
      <path
         d="m 462.89062,434.02344 c 0,34.72265 -28.14843,62.86718 -62.86718,62.86718 -34.72266,0 -62.8711,-28.14453 -62.8711,-62.86718 0,-34.71875 28.14844,-62.86719 62.8711,-62.86719 34.71875,0 62.86718,28.14844 62.86718,62.86719"
         id="path43"
         inkscape:connector-curvature="0" />
    </clipPath>
    <clipPath
       id="clip14">
      <path
         d="m 372,407 71,0 0,68 -71,0 z m 0,0"
         id="path46"
         inkscape:connector-curvature="0" />
    </clipPath>
    <clipPath
       id="clip15">
      <path
         d="m 462.89062,434.02344 c 0,34.72265 -28.14843,62.86718 -62.86718,62.86718 -34.72266,0 -62.8711,-28.14453 -62.8711,-62.86718 0,-34.71875 28.14844,-62.86719 62.8711,-62.86719 34.71875,0 62.86718,28.14844 62.86718,62.86719"
         id="path49"
         inkscape:connector-curvature="0" />
    </clipPath>
    <clipPath
       id="clip16">
      <path
         d="m 365,465 78,0 0,32 -78,0 z m 0,0"
         id="path52"
         inkscape:connector-curvature="0" />
    </clipPath>
    <clipPath
       id="clip17">
      <path
         d="m 462.89062,434.02344 c 0,34.72265 -28.14843,62.86718 -62.86718,62.86718 -34.72266,0 -62.8711,-28.14453 -62.8711,-62.86718 0,-34.71875 28.14844,-62.86719 62.8711,-62.86719 34.71875,0 62.86718,28.14844 62.86718,62.86719"
         id="path55"
         inkscape:connector-curvature="0" />
    </clipPath>
    <clipPath
       id="clip18">
      <path
         d="m 377,466 43,0 0,31 -43,0 z m 0,0"
         id="path58"
         inkscape:connector-curvature="0" />
    </clipPath>
    <clipPath
       id="clip19">
      <path
         d="m 462.89062,434.02344 c 0,34.72265 -28.14843,62.86718 -62.86718,62.86718 -34.72266,0 -62.8711,-28.14453 -62.8711,-62.86718 0,-34.71875 28.14844,-62.86719 62.8711,-62.86719 34.71875,0 62.86718,28.14844 62.86718,62.86719"
         id="path61"
         inkscape:connector-curvature="0" />
    </clipPath>
    <clipPath
       id="clip20">
      <path
         d="m 375,466 21,0 0,31 -21,0 z m 0,0"
         id="path64"
         inkscape:connector-curvature="0" />
    </clipPath>
    <clipPath
       id="clip21">
      <path
         d="m 462.89062,434.02344 c 0,34.72265 -28.14843,62.86718 -62.86718,62.86718 -34.72266,0 -62.8711,-28.14453 -62.8711,-62.86718 0,-34.71875 28.14844,-62.86719 62.8711,-62.86719 34.71875,0 62.86718,28.14844 62.86718,62.86719"
         id="path67"
         inkscape:connector-curvature="0" />
    </clipPath>
    <clipPath
       id="clip22">
      <path
         d="m 395,470 25,0 0,27 -25,0 z m 0,0"
         id="path70"
         inkscape:connector-curvature="0" />
    </clipPath>
    <clipPath
       id="clip23">
      <path
         d="m 462.89062,434.02344 c 0,34.72265 -28.14843,62.86718 -62.86718,62.86718 -34.72266,0 -62.8711,-28.14453 -62.8711,-62.86718 0,-34.71875 28.14844,-62.86719 62.8711,-62.86719 34.71875,0 62.86718,28.14844 62.86718,62.86719"
         id="path73"
         inkscape:connector-curvature="0" />
    </clipPath>
    <clipPath
       id="clip24">
      <path
         d="m 390,470 12,0 0,27 -12,0 z m 0,0"
         id="path76"
         inkscape:connector-curvature="0" />
    </clipPath>
    <clipPath
       id="clip25">
      <path
         d="m 462.89062,434.02344 c 0,34.72265 -28.14843,62.86718 -62.86718,62.86718 -34.72266,0 -62.8711,-28.14453 -62.8711,-62.86718 0,-34.71875 28.14844,-62.86719 62.8711,-62.86719 34.71875,0 62.86718,28.14844 62.86718,62.86719"
         id="path79"
         inkscape:connector-curvature="0" />
    </clipPath>
    <clipPath
       id="clip26">
      <path
         d="m 374,384 82,0 0,90 -82,0 z m 0,0"
         id="path82"
         inkscape:connector-curvature="0" />
    </clipPath>
    <clipPath
       id="clip27">
      <path
         d="m 462.89062,434.02344 c 0,34.72265 -28.14843,62.86718 -62.86718,62.86718 -34.72266,0 -62.8711,-28.14453 -62.8711,-62.86718 0,-34.71875 28.14844,-62.86719 62.8711,-62.86719 34.71875,0 62.86718,28.14844 62.86718,62.86719"
         id="path85"
         inkscape:connector-curvature="0" />
    </clipPath>
    <clipPath
       id="clip28">
      <path
         d="m 389,449 23,0 0,15 -23,0 z m 0,0"
         id="path88"
         inkscape:connector-curvature="0" />
    </clipPath>
    <clipPath
       id="clip29">
      <path
         d="m 462.89062,434.02344 c 0,34.72265 -28.14843,62.86718 -62.86718,62.86718 -34.72266,0 -62.8711,-28.14453 -62.8711,-62.86718 0,-34.71875 28.14844,-62.86719 62.8711,-62.86719 34.71875,0 62.86718,28.14844 62.86718,62.86719"
         id="path91"
         inkscape:connector-curvature="0" />
    </clipPath>
    <clipPath
       id="clip30">
      <path
         d="m 412,436 6,0 0,11 -6,0 z m 0,0"
         id="path94"
         inkscape:connector-curvature="0" />
    </clipPath>
    <clipPath
       id="clip31">
      <path
         d="m 462.89062,434.02344 c 0,34.72265 -28.14843,62.86718 -62.86718,62.86718 -34.72266,0 -62.8711,-28.14453 -62.8711,-62.86718 0,-34.71875 28.14844,-62.86719 62.8711,-62.86719 34.71875,0 62.86718,28.14844 62.86718,62.86719"
         id="path97"
         inkscape:connector-curvature="0" />
    </clipPath>
    <clipPath
       id="clip32">
      <path
         d="m 384,430 6,0 0,10 -6,0 z m 0,0"
         id="path100"
         inkscape:connector-curvature="0" />
    </clipPath>
    <clipPath
       id="clip33">
      <path
         d="m 462.89062,434.02344 c 0,34.72265 -28.14843,62.86718 -62.86718,62.86718 -34.72266,0 -62.8711,-28.14453 -62.8711,-62.86718 0,-34.71875 28.14844,-62.86719 62.8711,-62.86719 34.71875,0 62.86718,28.14844 62.86718,62.86719"
         id="path103"
         inkscape:connector-curvature="0" />
    </clipPath>
  </defs>
  <g
     id="surface1"
     transform="translate(-61.995058,-375.31072)">
    <path
       style="fill:#d1e6d4;fill-opacity:1;fill-rule:nonzero;stroke:none"
       d="m 126.1608,550.5892 c -0.33094,0 -0.59927,-0.26833 -0.59927,-0.59927 l 0,-3.63444 c 0,-0.32795 0.26833,-0.5963 0.59927,-0.5963 0.32797,0 0.59928,0.26835 0.59928,0.5963 l -0.003,3.63742 c 0,0.32796 -0.26833,0.59629 -0.5963,0.59629"
       id="path110"
       inkscape:connector-curvature="0" />
    <path
       style="fill:#d1e6d4;fill-opacity:1;fill-rule:nonzero;stroke:none"
       d="m 178.96466,551.67447 c -0.16101,0 -0.31008,-0.0626 -0.42337,-0.17591 l -2.57005,-2.57004 c -0.1133,-0.11031 -0.1759,-0.26237 -0.1759,-0.42039 0,-0.161 0.0626,-0.31306 0.1759,-0.42337 0.1133,-0.11627 0.26237,-0.1759 0.42337,-0.1759 0.16101,0 0.31008,0.0596 0.42338,0.1759 l 2.57004,2.57004 c 0.11329,0.11032 0.1759,0.26237 0.1759,0.42337 0,0.15802 -0.0626,0.31007 -0.1759,0.42039 -0.1133,0.11329 -0.26238,0.17591 -0.42337,0.17591"
       id="path112"
       inkscape:connector-curvature="0" />
    <path
       style="fill:#d1e6d4;fill-opacity:1;fill-rule:nonzero;stroke:none"
       d="m 173.83948,554.70068 c -0.33095,0 -0.59928,-0.26834 -0.59928,-0.5963 0,-0.33095 0.26833,-0.59929 0.59928,-0.59929 l 3.63443,0 c 0.33094,0 0.59928,0.26834 0.59928,0.59929 0,0.32796 -0.26834,0.5963 -0.59928,0.5963 l -3.63443,0"
       id="path114"
       inkscape:connector-curvature="0" />
    <path
       style="fill:#d1e6d4;fill-opacity:1;fill-rule:nonzero;stroke:none"
       d="m 175.98913,560.46687 c -0.161,0 -0.31007,-0.0626 -0.42337,-0.17591 -0.1133,-0.1133 -0.17591,-0.26536 -0.17591,-0.42337 0,-0.161 0.0626,-0.31007 0.17591,-0.42337 l 2.57004,-2.57005 c 0.1133,-0.11329 0.26238,-0.1759 0.42338,-0.1759 0.16099,0 0.31007,0.0626 0.42336,0.1759 0.1133,0.1133 0.1759,0.26237 0.1759,0.42337 0,0.161 -0.0626,0.31008 -0.1759,0.42338 l -2.57004,2.57004 c -0.1133,0.11328 -0.26237,0.17591 -0.42337,0.17591"
       id="path116"
       inkscape:connector-curvature="0" />
    <path
       style="fill:#d1e6d4;fill-opacity:1;fill-rule:nonzero;stroke:none"
       d="m 125.58538,563.02199 c -0.33095,0 -0.59928,-0.26833 -0.59928,-0.59926 l 0,-3.63444 c 0,-0.32796 0.26833,-0.5963 0.59928,-0.5963 0.33094,0 0.59928,0.26834 0.59928,0.5963 l 0,3.63444 c 0,0.33093 -0.26834,0.59926 -0.59928,0.59926"
       id="path118"
       inkscape:connector-curvature="0" />
    <path
       style="fill:#d1e6d4;fill-opacity:1;fill-rule:nonzero;stroke:none"
       d="m 131.34859,560.87235 c -0.15802,0 -0.31008,-0.0626 -0.42338,-0.17591 l -2.56705,-2.57004 c -0.11627,-0.1133 -0.17592,-0.26237 -0.17592,-0.42337 0,-0.15802 0.0596,-0.31008 0.17592,-0.42338 0.11031,-0.11329 0.26237,-0.1759 0.42038,-0.1759 0.161,0 0.31306,0.0626 0.42338,0.1759 l 2.57004,2.57005 c 0.11329,0.11329 0.1759,0.26535 0.1759,0.42336 0,0.16102 -0.0626,0.31009 -0.1759,0.42338 -0.1133,0.11329 -0.26237,0.17591 -0.42337,0.17591"
       id="path120"
       inkscape:connector-curvature="0" />
    <path
       style="fill:#d1e6d4;fill-opacity:1;fill-rule:nonzero;stroke:none"
       d="m 130.27227,555.27609 c -0.33095,0 -0.59928,-0.26832 -0.59928,-0.59926 0,-0.33096 0.26833,-0.59929 0.59928,-0.59929 l 3.63442,0 c 0.32798,0 0.59631,0.27132 0.59631,0.59929 0,0.33094 -0.26833,0.59926 -0.59631,0.59926 l -3.63442,0"
       id="path122"
       inkscape:connector-curvature="0" />
    <path
       style="fill:#d1e6d4;fill-opacity:1;fill-rule:nonzero;stroke:none"
       d="m 129.18702,552.07995 c -0.16101,0 -0.31008,-0.0596 -0.42338,-0.17293 -0.1133,-0.11329 -0.17591,-0.26535 -0.17591,-0.42337 0,-0.161 0.0626,-0.31008 0.17591,-0.42337 l 2.57004,-2.57004 c 0.1133,-0.1133 0.26237,-0.17591 0.42337,-0.17591 0.15802,0 0.31007,0.0626 0.42337,0.17591 0.23256,0.23255 0.23256,0.61419 0,0.84674 l -2.57004,2.57004 c -0.11329,0.1133 -0.26535,0.17293 -0.42336,0.17293"
       id="path124"
       inkscape:connector-curvature="0" />
    <path
       style="fill:#d1e6d4;fill-opacity:1;fill-rule:nonzero;stroke:none"
       d="m 380.02526,475.03541 c -0.43828,0 -0.79904,-0.3548 -0.79904,-0.79605 l 0,-11.42505 c 0,-0.43828 0.36076,-0.79905 0.79904,-0.79905 0.43827,0 0.79606,0.36077 0.79606,0.79905 l 0,11.42505 c 0,0.44125 -0.35779,0.79605 -0.79606,0.79605"
       id="path126"
       inkscape:connector-curvature="0" />
    <path
       style="fill:#d1e6d4;fill-opacity:1;fill-rule:nonzero;stroke:none"
       d="m 374.31274,469.32289 c -0.43829,0 -0.79606,-0.3548 -0.79606,-0.79606 0,-0.44126 0.35777,-0.79904 0.79606,-0.79904 l 11.42505,0 c 0.43827,0 0.79605,0.35778 0.79605,0.79904 0,0.44126 -0.35778,0.79606 -0.79605,0.79606 l -11.42505,0"
       id="path128"
       inkscape:connector-curvature="0" />
    <path
       style="fill:#d1e6d4;fill-opacity:1;fill-rule:nonzero;stroke:none"
       d="m 162.91235,464.91625 c -0.29816,0 -0.54264,-0.2415 -0.54264,-0.53965 l 0,-7.76974 c 0,-0.30114 0.24448,-0.54264 0.54264,-0.54264 0.30112,0 0.54262,0.2415 0.54262,0.54264 l 0,7.76974 c 0,0.29815 -0.2415,0.53965 -0.54262,0.53965"
       id="path130"
       inkscape:connector-curvature="0" />
    <path
       style="fill:#d1e6d4;fill-opacity:1;fill-rule:nonzero;stroke:none"
       d="m 159.02747,461.03436 c -0.29815,0 -0.54264,-0.24448 -0.54264,-0.54561 0,-0.29815 0.24449,-0.53965 0.54264,-0.53965 l 7.76975,0 c 0.29814,0 0.54263,0.2415 0.54263,0.53965 0,0.30113 -0.24449,0.54561 -0.54263,0.54561 l -7.76975,0"
       id="path132"
       inkscape:connector-curvature="0" />
    <path
       style="fill:#d1e6d4;fill-opacity:1;fill-rule:nonzero;stroke:none"
       d="m 137.79334,384.16573 c -0.29816,0 -0.53966,-0.2415 -0.53966,-0.54263 l 0,-7.76974 c 0,-0.29816 0.2415,-0.54264 0.53966,-0.54264 0.30112,0 0.54262,0.24448 0.54262,0.54264 l 0,7.76974 c 0,0.30113 -0.2415,0.54263 -0.54262,0.54263"
       id="path134"
       inkscape:connector-curvature="0" />
    <path
       style="fill:#d1e6d4;fill-opacity:1;fill-rule:nonzero;stroke:none"
       d="m 133.91144,380.28085 c -0.30113,0 -0.54263,-0.2415 -0.54263,-0.54262 0,-0.29816 0.2415,-0.54264 0.54263,-0.54264 l 7.76677,0 c 0.29815,0 0.54263,0.24448 0.54263,0.54264 0,0.30112 -0.24448,0.54262 -0.54263,0.54262 l -7.76677,0"
       id="path136"
       inkscape:connector-curvature="0" />
    <path
       style="fill:#d1e6d4;fill-opacity:1;fill-rule:nonzero;stroke:none"
       d="m 177.48706,382.31124 c -0.8378,0 -1.51757,0.68276 -1.51757,1.51758 0,0.8378 0.67977,1.52055 1.51757,1.52055 0.8378,0 1.51758,-0.68275 1.51758,-1.52055 0,-0.83482 -0.67978,-1.51758 -1.51758,-1.51758 z m 0,3.95345 c -1.34167,0 -2.43587,-1.0942 -2.43587,-2.43587 0,-1.34167 1.0942,-2.4329 2.43587,-2.4329 1.34167,0 2.43588,1.09123 2.43588,2.4329 0,1.34167 -1.09421,2.43587 -2.43588,2.43587"
       id="path138"
       inkscape:connector-curvature="0" />
    <path
       style="fill:#d1e6d4;fill-opacity:1;fill-rule:nonzero;stroke:none"
       d="m 389.7121,576.62352 c -0.8378,0 -1.52056,0.67979 -1.52056,1.51759 0,0.83779 0.68276,1.51757 1.52056,1.51757 0.83482,0 1.51757,-0.67978 1.51757,-1.51757 0,-0.8378 -0.68275,-1.51759 -1.51757,-1.51759 z m 0,3.95345 c -1.34465,0 -2.43588,-1.09122 -2.43588,-2.43586 0,-1.34168 1.09123,-2.43588 2.43588,-2.43588 1.34167,0 2.43289,1.0942 2.43289,2.43588 0,1.34464 -1.09122,2.43586 -2.43289,2.43586"
       id="path140"
       inkscape:connector-curvature="0" />
    <path
       style="fill:#d1e6d4;fill-opacity:1;fill-rule:nonzero;stroke:none"
       d="m 64.43093,411.30022 c -0.837797,0 -1.517576,0.67978 -1.517576,1.51757 0,0.8378 0.679779,1.51757 1.517576,1.51757 0.837798,0 1.517575,-0.67977 1.517575,-1.51757 0,-0.83779 -0.679777,-1.51757 -1.517575,-1.51757 z m 0,3.95345 c -1.341668,0 -2.435872,-1.09421 -2.435872,-2.43588 0,-1.34167 1.094204,-2.43587 2.435872,-2.43587 1.341668,0 2.432892,1.0942 2.432892,2.43587 0,1.34167 -1.091224,2.43588 -2.432892,2.43588"
       id="path142"
       inkscape:connector-curvature="0" />
    <path
       style="fill:#d1e6d4;fill-opacity:1;fill-rule:nonzero;stroke:none"
       d="m 85.694877,504.9069 c -0.4025,0 -0.733446,-0.32498 -0.733446,-0.72449 0,-0.40549 0.327965,-0.73644 0.730464,-0.73644 0.402501,0 0.730464,0.33095 0.730464,0.73048 0,0.40547 -0.327963,0.73045 -0.727482,0.73045 z m 2.924836,1.20155 c -0.193796,0 -0.375667,-0.0715 -0.512815,-0.20872 -0.283241,-0.28622 -0.286222,-0.7543 -0.003,-1.03756 0.137148,-0.13714 0.322,-0.21168 0.518778,-0.21168 0.193796,0 0.375667,0.0746 0.515798,0.21168 0.280259,0.28326 0.283241,0.74538 0.003,1.0316 -0.143111,0.14014 -0.324982,0.21468 -0.52176,0.21468 z m -5.849672,0.0208 c -0.193797,0 -0.375667,-0.0775 -0.515798,-0.21467 -0.283241,-0.28622 -0.283241,-0.74835 0,-1.03458 0.13715,-0.13714 0.31902,-0.21466 0.515798,-0.21466 0.193797,0 0.378648,0.0776 0.515797,0.21466 0.140128,0.13715 0.214666,0.31903 0.214666,0.51283 0.003,0.19677 -0.07454,0.38162 -0.214666,0.52175 -0.137149,0.13715 -0.319019,0.21467 -0.515797,0.21467 z m 7.075063,2.91888 c -0.402501,0 -0.730464,-0.32797 -0.730464,-0.73345 0,-0.41145 0.324981,-0.74537 0.7245,-0.74537 0.39952,0 0.730464,0.32498 0.736427,0.7245 0,0.42336 -0.322,0.75432 -0.730463,0.75432 z m -8.276602,0.009 c -0.405481,0 -0.733445,-0.32796 -0.733445,-0.73047 0,-0.4025 0.327964,-0.73046 0.730463,-0.73046 0.402501,0 0.730465,0.32499 0.730465,0.72748 0,0.4025 -0.324983,0.73345 -0.727483,0.73345 z m 7.063137,2.91291 c -0.193796,0 -0.378649,-0.0745 -0.515796,-0.21467 -0.283241,-0.28025 -0.283241,-0.74537 0,-1.03159 0.137147,-0.13715 0.322,-0.21168 0.515796,-0.21168 0.196778,0 0.378649,0.0745 0.515796,0.21168 0.140131,0.14012 0.217649,0.32498 0.214668,0.51877 0,0.19678 -0.07752,0.37866 -0.214668,0.5158 -0.134166,0.13715 -0.316036,0.21169 -0.515796,0.21169 z m -5.849673,0.006 c -0.149074,0 -0.289203,-0.0417 -0.411444,-0.12821 l -0.04472,-0.0298 -0.0059,0 -0.05665,-0.0566 c -0.280259,-0.28026 -0.280259,-0.7424 0,-1.02862 0.140131,-0.14012 0.324982,-0.21466 0.518779,-0.21466 0.196778,0 0.378648,0.0746 0.515797,0.21466 0.286222,0.28026 0.286222,0.7424 0.0059,1.02862 -0.146092,0.14012 -0.327962,0.21466 -0.521759,0.21466 z m 2.927819,1.21048 c -0.402501,0 -0.730464,-0.32796 -0.730464,-0.73046 0,-0.40251 0.327963,-0.73047 0.730464,-0.73047 0.4025,0 0.730462,0.32796 0.730462,0.73047 0,0.4025 -0.327962,0.73046 -0.730462,0.73046"
       id="path144"
       inkscape:connector-curvature="0" />
    <path
       style="fill:#d1e6d4;fill-opacity:1;fill-rule:nonzero;stroke:none"
       d="m 351.6624,382.32913 c -0.28921,0 -0.52177,-0.23553 -0.52177,-0.52474 l 0,-2.96657 c 0,-0.28921 0.23256,-0.52176 0.52177,-0.52176 0.28622,0 0.52176,0.23255 0.52176,0.52176 l 0,2.96657 c 0,0.28921 -0.23554,0.52474 -0.52176,0.52474"
       id="path146"
       inkscape:connector-curvature="0" />
    <path
       style="fill:#d1e6d4;fill-opacity:1;fill-rule:nonzero;stroke:none"
       d="m 349.0536,383.21464 c -0.14012,0 -0.27131,-0.0537 -0.36971,-0.15206 l -2.09897,-2.09896 c -0.0984,-0.0984 -0.15204,-0.22957 -0.15204,-0.36972 0,-0.14012 0.0537,-0.27131 0.15204,-0.36969 0.0984,-0.0984 0.22959,-0.15206 0.36972,-0.15206 0.14012,0 0.27131,0.0537 0.36672,0.15206 l 2.09896,2.09896 c 0.20572,0.20273 0.20572,0.53369 0,0.73941 -0.0954,0.0984 -0.22659,0.15206 -0.36672,0.15206"
       id="path148"
       inkscape:connector-curvature="0" />
    <path
       style="fill:#d1e6d4;fill-opacity:1;fill-rule:nonzero;stroke:none"
       d="m 344.8676,385.68629 c -0.28921,0 -0.52475,-0.23555 -0.52475,-0.52177 0,-0.2892 0.23554,-0.52175 0.52475,-0.52175 l 2.96657,0 c 0.28921,0 0.52176,0.23255 0.52176,0.52175 0,0.28622 -0.23255,0.52177 -0.52176,0.52177 l -2.96657,0"
       id="path150"
       inkscape:connector-curvature="0" />
    <path
       style="fill:#d1e6d4;fill-opacity:1;fill-rule:nonzero;stroke:none"
       d="m 346.6207,390.39405 c -0.13714,0 -0.26832,-0.0537 -0.36672,-0.15206 -0.0984,-0.0984 -0.15205,-0.22957 -0.15205,-0.3697 0,-0.14013 0.0537,-0.27132 0.15205,-0.3697 l 2.09897,-2.09897 c 0.0984,-0.0984 0.22957,-0.15206 0.36673,-0.15206 0.14012,0 0.27131,0.0537 0.37268,0.15206 0.19976,0.20274 0.19976,0.53369 0,0.73941 l -2.09896,2.09896 c -0.0984,0.0984 -0.23256,0.15206 -0.3727,0.15206"
       id="path152"
       inkscape:connector-curvature="0" />
    <path
       style="fill:#d1e6d4;fill-opacity:1;fill-rule:nonzero;stroke:none"
       d="m 351.19431,392.48109 c -0.28921,0 -0.52474,-0.23554 -0.52474,-0.52176 l 0,-2.96956 c 0,-0.28622 0.23553,-0.52177 0.52474,-0.52177 0.28622,0 0.52176,0.23555 0.52176,0.52177 l 0,2.96956 c 0,0.28622 -0.23554,0.52176 -0.52176,0.52176"
       id="path154"
       inkscape:connector-curvature="0" />
    <path
       style="fill:#d1e6d4;fill-opacity:1;fill-rule:nonzero;stroke:none"
       d="m 355.90207,390.72499 c -0.14013,0 -0.27131,-0.0537 -0.3697,-0.15205 l -2.09897,-2.09896 c -0.0984,-0.0984 -0.15504,-0.22959 -0.15504,-0.36971 0,-0.14013 0.0566,-0.27131 0.15504,-0.3697 0.0984,-0.0984 0.22958,-0.15206 0.36971,-0.15206 0.13714,0 0.26833,0.0537 0.36671,0.15206 l 2.09897,2.09896 c 0.0984,0.0984 0.15503,0.22957 0.15503,0.3697 0,0.14013 -0.0566,0.27133 -0.15503,0.36971 -0.0984,0.0984 -0.22958,0.15205 -0.36672,0.15205"
       id="path156"
       inkscape:connector-curvature="0" />
    <path
       style="fill:#d1e6d4;fill-opacity:1;fill-rule:nonzero;stroke:none"
       d="m 355.01955,386.15438 c -0.28622,0 -0.52177,-0.23256 -0.52177,-0.52176 0,-0.28622 0.23555,-0.52176 0.52177,-0.52176 l 2.96956,0 c 0.28622,0 0.52176,0.23554 0.52176,0.52176 0,0.2892 -0.23554,0.52176 -0.52176,0.52176 l -2.96956,0"
       id="path158"
       inkscape:connector-curvature="0" />
    <path
       style="fill:#d1e6d4;fill-opacity:1;fill-rule:nonzero;stroke:none"
       d="m 354.13405,383.54557 c -0.14013,0 -0.27132,-0.0537 -0.36971,-0.15205 -0.0984,-0.0984 -0.15204,-0.22957 -0.15204,-0.3697 0,-0.14013 0.0537,-0.27131 0.15204,-0.3697 l 2.09897,-2.09898 c 0.0984,-0.0984 0.22958,-0.15205 0.3697,-0.15205 0.14013,0 0.27132,0.0537 0.36971,0.15205 0.20274,0.20276 0.20274,0.53668 0,0.73942 l -2.09898,2.09896 c -0.0984,0.0984 -0.22957,0.15205 -0.36969,0.15205"
       id="path160"
       inkscape:connector-curvature="0" />
    <path
       style="fill:#f3f5f5;fill-opacity:1;fill-rule:nonzero;stroke:none"
       d="m 230.85861,648.58165 41.09379,0 c 3.55096,0 6.93197,-1.58912 9.1323,-4.37383 23.27645,-29.4213 37.60547,-69.39107 37.60547,-113.45741 0,-54.90702 -22.22399,-103.46646 -56.30534,-133.17098 -6.30286,-5.48892 -15.65577,-5.48892 -21.95566,0 -34.08432,29.70452 -56.30533,78.26396 -56.30533,133.17098 0,44.06634 14.32604,84.03611 37.60249,113.45741 2.20033,2.78471 5.58432,4.37383 9.13228,4.37383"
       id="path162"
       inkscape:connector-curvature="0" />
    <path
       style="fill:#ae3f2b;fill-opacity:1;fill-rule:nonzero;stroke:none"
       d="m 286.79425,638.0749 c 20.36353,0 37.22382,14.95215 40.2232,34.47491 0.42039,2.72507 2.69824,4.77037 5.45611,4.77037 l 0.81991,0 c 2.60581,0 4.87175,-1.82466 5.39351,-4.37682 1.43409,-7.0512 2.20033,-14.34391 2.20033,-21.8185 0,-28.05576 -10.58426,-53.6369 -27.9693,-72.98375 -5.56643,22.39393 -14.96109,42.75448 -27.27164,59.96362 0.38163,-0.012 0.76326,-0.0299 1.14788,-0.0299"
       id="path164"
       inkscape:connector-curvature="0" />
    <path
       style="fill:#ae3f2b;fill-opacity:1;fill-rule:nonzero;stroke:none"
       d="m 215.98399,638.0749 c -20.36354,0 -37.22383,14.95215 -40.22322,34.47491 -0.42038,2.72507 -2.69823,4.77037 -5.45611,4.77037 l -0.81991,0 c -2.60582,0 -4.87472,-1.82466 -5.3935,-4.37682 -1.4341,-7.0512 -2.20033,-14.34391 -2.20033,-21.8185 0,-28.05576 10.58426,-53.6369 27.9693,-72.98375 5.56644,22.39393 14.96109,42.75448 27.27164,59.96362 -0.38163,-0.012 -0.76326,-0.0299 -1.14787,-0.0299"
       id="path166"
       inkscape:connector-curvature="0" />
    <path
       style="fill:#ae3f2b;fill-opacity:1;fill-rule:nonzero;stroke:none"
       d="m 240.50967,397.51383 c -14.9253,12.99033 -27.57276,29.60018 -37.08966,48.77113 l 95.971,0 c -9.5169,-19.17095 -22.16435,-35.7808 -37.08668,-48.77113 -6.24323,-5.43524 -15.5544,-5.43524 -21.79466,0"
       id="path168"
       inkscape:connector-curvature="0" />
    <path
       style="fill:#d1d4d1;fill-opacity:1;fill-rule:nonzero;stroke:none"
       d="m 307.33965,520.28838 c 0,30.89116 -25.04149,55.93563 -55.93265,55.93563 -30.89115,0 -55.93264,-25.04447 -55.93264,-55.93563 0,-30.89117 25.04149,-55.93264 55.93264,-55.93264 30.89116,0 55.93265,25.04147 55.93265,55.93264"
       id="path170"
       inkscape:connector-curvature="0" />
    <path
       style="fill:#e8e8e8;fill-opacity:1;fill-rule:nonzero;stroke:none"
       d="m 307.33965,518.77081 c 0,30.89115 -25.04149,55.93264 -55.93265,55.93264 -30.89115,0 -55.93264,-25.04149 -55.93264,-55.93264 0,-30.89117 25.04149,-55.93265 55.93264,-55.93265 30.89116,0 55.93265,25.04148 55.93265,55.93265"
       id="path172"
       inkscape:connector-curvature="0" />
    <path
       style="fill:#b8b8b8;fill-opacity:1;fill-rule:nonzero;stroke:none"
       d="m 257.25667,469.29307 c -1.00476,-0.10733 -1.72627,-1.02264 -1.61,-2.02741 0.11926,-0.99581 1.02563,-1.72032 2.0304,-1.60106 1.00476,0.11926 1.71733,1.02563 1.60105,2.03039 -0.11032,0.93321 -0.89742,1.61895 -1.80976,1.61895 -0.0745,0 -0.14609,-0.009 -0.21169,-0.0208 m -14.04875,-1.55336 c -0.11926,-0.99581 0.58736,-1.91112 1.59212,-2.03933 1.00476,-0.11627 1.90815,0.5963 2.03635,1.60107 0.1282,0.99581 -0.58437,1.91112 -1.58914,2.03933 -0.0745,0.009 -0.15503,0.009 -0.22957,0.009 -0.90339,0 -1.69944,-0.67679 -1.80976,-1.61 m 25.71232,4.3798 c -0.9511,-0.34884 -1.42515,-1.40726 -1.07036,-2.34941 0.35481,-0.95109 1.40727,-1.42813 2.35837,-1.07035 0.94214,0.35778 1.4162,1.40726 1.0614,2.35835 -0.27429,0.73046 -0.97196,1.17768 -1.71137,1.17768 -0.2087,0 -0.42933,-0.0358 -0.63804,-0.11627 m -37.67701,-0.94215 c -0.36375,-0.94215 0.11031,-2.00058 1.05246,-2.35835 0.94215,-0.36673 2.00058,0.11031 2.35835,1.04948 0.36672,0.94215 -0.11031,2.00356 -1.05246,2.36133 -0.20871,0.0894 -0.43828,0.12522 -0.64699,0.12522 -0.74238,0 -1.43707,-0.44722 -1.71136,-1.17768 m 48.31495,6.49964 c -0.83184,-0.57842 -1.04352,-1.71138 -0.46511,-2.54322 0.56647,-0.83183 1.70839,-1.04948 2.54022,-0.47405 0.83183,0.56648 1.04055,1.7084 0.47406,2.54023 -0.35479,0.52176 -0.93023,0.79605 -1.50864,0.79605 -0.35479,0 -0.72151,-0.11031 -1.04053,-0.31901 m -59.09899,-0.29517 c -0.57542,-0.82289 -0.37567,-1.96479 0.45617,-2.54023 0.82289,-0.57542 1.9648,-0.37566 2.54023,0.45617 0.5784,0.83183 0.37566,1.96777 -0.45617,2.55215 -0.31902,0.21764 -0.68574,0.31902 -1.04054,0.31902 -0.57543,0 -1.15085,-0.2743 -1.49969,-0.78711 m 68.11202,8.22591 c -0.66786,-0.7573 -0.60525,-1.90815 0.14609,-2.58495 0.7573,-0.66784 1.90815,-0.60225 2.58792,0.14611 0.66488,0.75729 0.60227,1.91112 -0.14907,2.58494 -0.34584,0.31305 -0.78711,0.46809 -1.21346,0.46809 -0.50388,0 -1.00775,-0.21168 -1.37148,-0.61419 m -77.11312,0.38461 c -0.76028,-0.66784 -0.83183,-1.82764 -0.15802,-2.57599 0.66786,-0.76029 1.81871,-0.83184 2.57899,-0.16399 0.75729,0.66487 0.83184,1.81573 0.16398,2.576 -0.36673,0.41145 -0.86761,0.62314 -1.38043,0.62314 -0.42933,0 -0.85866,-0.15802 -1.20452,-0.45916 m 83.9765,9.46025 c -0.47406,-0.8855 -0.13715,-2.00058 0.75729,-2.46866 0.88848,-0.47406 2.00357,-0.13714 2.46867,0.75133 0.47703,0.89444 0.13715,2.00058 -0.74836,2.47464 -0.27429,0.14608 -0.56647,0.21168 -0.85867,0.21168 -0.6589,0 -1.29097,-0.34883 -1.61893,-0.96899 m -90.66993,1.04353 c -0.89445,-0.4681 -1.24328,-1.57422 -0.76624,-2.46867 0.46511,-0.89444 1.57124,-1.24329 2.46867,-0.76923 0.8855,0.46809 1.23135,1.57423 0.76624,2.45972 -0.32796,0.6291 -0.96004,0.98688 -1.61895,0.98688 -0.29218,0 -0.57542,-0.0745 -0.84972,-0.2087 m 94.97518,10.1609 c -0.24745,-0.98687 0.34884,-1.97374 1.32378,-2.22122 0.97793,-0.24447 1.97672,0.35779 2.22122,1.33572 0.23851,0.97792 -0.35481,1.96479 -1.33571,2.21226 -0.14311,0.0358 -0.29815,0.0537 -0.44722,0.0537 -0.81097,0 -1.56231,-0.54858 -1.76207,-1.38042 m -98.9495,1.63683 c -0.97793,-0.23852 -1.58018,-1.22539 -1.34465,-2.20332 0.24746,-0.97495 1.23434,-1.58017 2.21226,-1.34166 0.97793,0.23852 1.58019,1.22538 1.34466,2.20033 -0.20275,0.84377 -0.9511,1.40131 -1.77399,1.40131 -0.14609,0 -0.29219,-0.0179 -0.43828,-0.0566 m 100.42832,10.47395 0,-0.19976 c -0.009,-1.0137 0.805,-1.8366 1.82168,-1.8366 1.00478,0 1.82765,0.81395 1.8366,1.81872 l -0.009,0.11925 0.009,0.0984 c 0,1.01668 -0.82288,1.82765 -1.82764,1.82765 -1.01371,0 -1.83064,-0.81097 -1.83064,-1.82765 m -103.27862,0.11031 c 0,-1.00476 0.81096,-1.82764 1.81572,-1.82764 1.01669,0 1.83958,0.81394 1.83958,1.82764 0,1.00476 -0.81395,1.82766 -1.82765,1.82766 -1.00774,0 -1.82765,-0.81395 -1.82765,-1.82766 m 103.18024,14.02193 c -0.97793,-0.23851 -1.57125,-1.23433 -1.33571,-2.21226 0.23852,-0.97793 1.23433,-1.58019 2.21226,-1.34466 0.97793,0.24747 1.58316,1.23434 1.33571,2.21226 -0.20274,0.84078 -0.9511,1.39833 -1.77399,1.39833 -0.14609,0 -0.29218,-0.0179 -0.43827,-0.0537 m -101.61794,-1.23433 c -0.23851,-0.97793 0.35479,-1.97376 1.33272,-2.21228 0.97793,-0.24746 1.97374,0.35779 2.21227,1.33572 0.24746,0.97792 -0.34586,1.97374 -1.33571,2.20927 -0.1461,0.0388 -0.29218,0.0566 -0.43828,0.0566 -0.81991,0 -1.56229,-0.55755 -1.771,-1.38937 m 96.79092,12.71305 c -0.88551,-0.46511 -1.23136,-1.57124 -0.76625,-2.46867 0.47406,-0.89445 1.58019,-1.23136 2.46867,-0.76625 0.89444,0.46512 1.2403,1.57125 0.77518,2.46867 -0.33094,0.62014 -0.96898,0.97793 -1.62789,0.97793 -0.28324,0 -0.57542,-0.0655 -0.84971,-0.21168 m -92.19346,-0.6768 c -0.47705,-0.8855 -0.13716,-1.99163 0.75728,-2.4657 0.89743,-0.47703 2.00058,-0.1282 2.46868,0.75731 0.47404,0.89445 0.1282,2.00057 -0.76028,2.47761 -0.2743,0.1461 -0.56648,0.2087 -0.84973,0.2087 -0.65592,0 -1.29694,-0.35479 -1.61595,-0.97792 m 84.76359,10.66775 c -0.76028,-0.66786 -0.83183,-1.82765 -0.15503,-2.58793 0.66486,-0.74836 1.8187,-0.8229 2.57599,-0.15504 0.76028,0.6768 0.82289,1.82766 0.15505,2.58794 -0.3548,0.39951 -0.85867,0.61119 -1.37149,0.61119 -0.42933,0 -0.85867,-0.14609 -1.20452,-0.45616 m -77.42617,-0.0835 c -0.66784,-0.74836 -0.60225,-1.90815 0.14609,-2.57601 0.76028,-0.6768 1.91113,-0.60523 2.58793,0.1461 0.66786,0.75729 0.60227,1.90815 -0.15504,2.58494 -0.34883,0.31306 -0.77816,0.45617 -1.21644,0.45617 -0.50387,0 -1.00475,-0.19976 -1.36254,-0.6112 m 67.82878,8.01721 c -0.57544,-0.83184 -0.37567,-1.97374 0.45615,-2.54918 0.83184,-0.5784 1.97674,-0.36671 2.55216,0.46513 0.57543,0.83183 0.36373,1.96479 -0.46809,2.54022 -0.31903,0.21765 -0.67382,0.32796 -1.04054,0.32796 -0.57841,0 -1.14489,-0.2743 -1.49968,-0.78413 m -58.17473,0.51878 c -0.83184,-0.57543 -1.04352,-1.71734 -0.46809,-2.54917 0.57542,-0.83183 1.71136,-1.03159 2.54022,-0.46512 0.83183,0.57543 1.04352,1.7084 0.4681,2.54023 -0.35779,0.52176 -0.92427,0.79606 -1.50864,0.79606 -0.35777,0 -0.71258,-0.11031 -1.03159,-0.322 m 46.95837,4.88069 c -0.35479,-0.94811 0.11927,-2.00057 1.06142,-2.35537 0.94215,-0.36672 2.00356,0.10732 2.35835,1.05842 0.36672,0.94215 -0.11031,1.99461 -1.0614,2.35836 -0.20871,0.0835 -0.42934,0.11926 -0.64699,0.11926 -0.73345,0 -1.42813,-0.44723 -1.71138,-1.18067 m -35.54226,1.09718 c -0.9511,-0.3548 -1.42814,-1.4162 -1.07036,-2.35835 0.36374,-0.93917 1.4162,-1.4162 2.35835,-1.05843 0.93917,0.35778 1.42515,1.40727 1.06737,2.35836 -0.28324,0.73046 -0.97793,1.17768 -1.71733,1.17768 -0.2087,0 -0.42934,-0.0358 -0.63803,-0.11926 m 23.35993,1.45496 c -0.11926,-1.00774 0.59331,-1.91112 1.60105,-2.03933 0.99582,-0.11926 1.91114,0.59332 2.02741,1.60107 0.11926,0.99581 -0.59331,1.90815 -1.58913,2.0274 -0.0746,0.009 -0.1461,0.0208 -0.22063,0.0208 -0.91233,0 -1.70839,-0.68574 -1.8187,-1.61001 m -10.84068,1.61001 c -1.00476,-0.12224 -1.71734,-1.03457 -1.59808,-2.03039 0.11926,-1.00476 1.02264,-1.72032 2.02741,-1.60106 1.00774,0.11926 1.72032,1.02563 1.60106,2.03039 -0.11031,0.93321 -0.89743,1.61001 -1.80977,1.61001 -0.0745,0 -0.14608,0 -0.22062,-0.009"
       id="path174"
       inkscape:connector-curvature="0" />
    <path
       style="fill:#8c9194;fill-opacity:1;fill-rule:nonzero;stroke:none"
       d="m 299.39101,518.77081 c 0,26.50241 -21.48457,47.98401 -47.98401,47.98401 -26.50241,0 -47.98699,-21.4816 -47.98699,-47.98401 0,-26.49944 21.48458,-47.98402 47.98699,-47.98402 26.49944,0 47.98401,21.48458 47.98401,47.98402"
       id="path176"
       inkscape:connector-curvature="0" />
    <g
       clip-path="url(#clip1)"
       id="g178"
       transform="matrix(0.76326002,0,0,0.76326002,-53.914891,187.49807)"
       style="clip-rule:nonzero">
      <g
         clip-path="url(#clip2)"
         id="g180"
         style="clip-rule:nonzero">
        <g
           clip-path="url(#clip3)"
           id="g182"
           style="clip-rule:nonzero">
          <path
             style="fill:#70757a;fill-opacity:1;fill-rule:nonzero;stroke:none"
             d="m 353.10937,496.89062 109.78125,0 0,-109.125 -109.78125,0 z m 0,0"
             id="path184"
             inkscape:connector-curvature="0" />
        </g>
      </g>
    </g>
    <g
       clip-path="url(#clip4)"
       id="g186"
       transform="matrix(0.76326002,0,0,0.76326002,-53.914891,187.49807)"
       style="clip-rule:nonzero">
      <g
         clip-path="url(#clip5)"
         id="g188"
         style="clip-rule:nonzero">
        <path
           style="fill:#fad7b0;fill-opacity:1;fill-rule:nonzero;stroke:none"
           d="m 362.30078,395.25391 c -2.52344,0.30078 -1.84766,8.28515 -1.60156,11.75 -0.125,-0.82813 -1.2461,-1.97657 -1.99219,-1.84766 -1.85547,0.32031 -1.31641,1.89062 -1.27344,2.6875 -0.0664,-0.65234 -0.64453,-1.82031 -1.82812,-1.64844 -1.07031,0.15235 -1.10938,1.35547 -1.01563,2.19141 -0.0937,-0.83594 -0.71484,-1.5625 -1.67968,-1.39063 -3.40235,0.60938 0.80859,9.78907 0.80859,9.78907 l 9.85156,0.47265 c 0,0 1.52735,-22.33984 -1.26953,-22.0039"
           id="path190"
           inkscape:connector-curvature="0" />
      </g>
    </g>
    <g
       clip-path="url(#clip6)"
       id="g192"
       transform="matrix(0.76326002,0,0,0.76326002,-53.914891,187.49807)"
       style="clip-rule:nonzero">
      <g
         clip-path="url(#clip7)"
         id="g194"
         style="clip-rule:nonzero">
        <path
           style="fill:#f8f8f8;fill-opacity:1;fill-rule:nonzero;stroke:none"
           d="m 364.27734,415.87109 -0.0703,-2.41406 -12.16406,0.67969 0.29297,2.21875 11.9414,-0.48438"
           id="path196"
           inkscape:connector-curvature="0" />
      </g>
    </g>
    <g
       clip-path="url(#clip8)"
       id="g198"
       transform="matrix(0.76326002,0,0,0.76326002,-53.914891,187.49807)"
       style="clip-rule:nonzero">
      <g
         clip-path="url(#clip9)"
         id="g200"
         style="clip-rule:nonzero">
        <path
           style="fill:#2e2b2b;fill-opacity:1;fill-rule:nonzero;stroke:none"
           d="m 383.78516,485.59766 c -18.14454,-25.69141 -18.5586,-70.38672 -18.5586,-70.38672 l -13.48047,0.24218 c 0,0 0.48828,40.125 22.46875,77.46875 l 9.57032,-7.32421"
           id="path202"
           inkscape:connector-curvature="0" />
      </g>
    </g>
    <g
       clip-path="url(#clip10)"
       id="g204"
       transform="matrix(0.76326002,0,0,0.76326002,-53.914891,187.49807)"
       style="clip-rule:nonzero">
      <g
         clip-path="url(#clip11)"
         id="g206"
         style="clip-rule:nonzero">
        <path
           style="fill:#4c4f4f;fill-opacity:1;fill-rule:nonzero;stroke:none"
           d="m 355.54687,418.60937 c -0.0508,0.71485 -0.67578,1.25391 -1.39453,1.20313 -0.71875,-0.0508 -1.26172,-0.67188 -1.21093,-1.38672 0.0547,-0.71484 0.67578,-1.25391 1.39843,-1.20312 0.71875,0.0508 1.25782,0.67187 1.20703,1.38671"
           id="path208"
           inkscape:connector-curvature="0" />
      </g>
    </g>
    <g
       clip-path="url(#clip12)"
       id="g210"
       transform="matrix(0.76326002,0,0,0.76326002,-53.914891,187.49807)"
       style="clip-rule:nonzero">
      <g
         clip-path="url(#clip13)"
         id="g212"
         style="clip-rule:nonzero">
        <path
           style="fill:#4c4f4f;fill-opacity:1;fill-rule:nonzero;stroke:none"
           d="m 356.00781,423.13281 c -0.0508,0.71875 -0.67578,1.25781 -1.39453,1.20703 -0.71875,-0.0508 -1.26172,-0.67187 -1.21094,-1.39062 0.0508,-0.71485 0.67578,-1.25391 1.39844,-1.20313 0.71875,0.0508 1.25781,0.67188 1.20703,1.38672"
           id="path214"
           inkscape:connector-curvature="0" />
      </g>
    </g>
    <g
       clip-path="url(#clip14)"
       id="g216"
       transform="matrix(0.76326002,0,0,0.76326002,-53.914891,187.49807)"
       style="clip-rule:nonzero">
      <g
         clip-path="url(#clip15)"
         id="g218"
         style="clip-rule:nonzero">
        <path
           style="fill:#fad7b0;fill-opacity:1;fill-rule:nonzero;stroke:none"
           d="m 440.67969,474.34766 c 0,0 12.16797,-58.03125 -24.41797,-66.06641 -46.63281,-10.23828 -44.11328,59.69141 -44.11328,59.69141 l 68.53125,6.375"
           id="path220"
           inkscape:connector-curvature="0" />
      </g>
    </g>
    <g
       clip-path="url(#clip16)"
       id="g222"
       transform="matrix(0.76326002,0,0,0.76326002,-53.914891,187.49807)"
       style="clip-rule:nonzero">
      <g
         clip-path="url(#clip17)"
         id="g224"
         style="clip-rule:nonzero">
        <path
           style="fill:#2e2b2b;fill-opacity:1;fill-rule:nonzero;stroke:none"
           d="m 419.85547,470.67187 -24.47656,25.63282 -17.89454,-30.11328 -8.53515,-0.58985 -3.53125,54.01172 c 0,0 9.70703,3.12109 21.85937,5.39453 5.07813,1.03906 12.90625,1.96875 12.90625,1.96875 7.9961,0.79297 24.85938,1.47656 36.26953,1.5586 l 6.10157,-55.10938 -22.69922,-2.75391"
           id="path226"
           inkscape:connector-curvature="0" />
      </g>
    </g>
    <g
       clip-path="url(#clip18)"
       id="g228"
       transform="matrix(0.76326002,0,0,0.76326002,-53.914891,187.49807)"
       style="clip-rule:nonzero">
      <g
         clip-path="url(#clip19)"
         id="g230"
         style="clip-rule:nonzero">
        <path
           style="fill:#f8f8f8;fill-opacity:1;fill-rule:nonzero;stroke:none"
           d="m 377.48437,466.19141 17.89454,30.11328 24.47656,-25.63282 -42.3711,-4.48046"
           id="path232"
           inkscape:connector-curvature="0" />
      </g>
    </g>
    <g
       clip-path="url(#clip20)"
       id="g234"
       transform="matrix(0.76326002,0,0,0.76326002,-53.914891,187.49807)"
       style="clip-rule:nonzero">
      <g
         clip-path="url(#clip21)"
         id="g236"
         style="clip-rule:nonzero">
        <path
           style="fill:#4c4f4f;fill-opacity:1;fill-rule:nonzero;stroke:none"
           d="m 377.48437,466.19141 -1.50781,11.9414 6.61719,2.07031 -1.88281,9.01563 14.66797,7.08594 -17.89454,-30.11328"
           id="path238"
           inkscape:connector-curvature="0" />
      </g>
    </g>
    <g
       clip-path="url(#clip22)"
       id="g240"
       transform="matrix(0.76326002,0,0,0.76326002,-53.914891,187.49807)"
       style="clip-rule:nonzero">
      <g
         clip-path="url(#clip23)"
         id="g242"
         style="clip-rule:nonzero">
        <path
           style="fill:#4c4f4f;fill-opacity:1;fill-rule:nonzero;stroke:none"
           d="m 395.37891,496.30469 15.48046,-5.65625 0.15625,-6.67969 7.37891,-1.84766 1.46094,-11.44922 -24.47656,25.63282"
           id="path244"
           inkscape:connector-curvature="0" />
      </g>
    </g>
    <g
       clip-path="url(#clip24)"
       id="g246"
       transform="matrix(0.76326002,0,0,0.76326002,-53.914891,187.49807)"
       style="clip-rule:nonzero">
      <g
         clip-path="url(#clip25)"
         id="g248"
         style="clip-rule:nonzero">
        <path
           style="fill:#2e2b2b;fill-opacity:1;fill-rule:nonzero;stroke:none"
           d="m 391.61328,473.57812 2.57422,-3.10546 5.77734,0.38671 1.70313,4.23829 -2.59375,2.47656 1.83203,12.96484 -5.52734,5.76563 -4.75782,-8 3.33594,-11.125 -2.34375,-3.60157"
           id="path250"
           inkscape:connector-curvature="0" />
      </g>
    </g>
    <g
       clip-path="url(#clip26)"
       id="g252"
       transform="matrix(0.76326002,0,0,0.76326002,-53.914891,187.49807)"
       style="clip-rule:nonzero">
      <g
         clip-path="url(#clip27)"
         id="g254"
         style="clip-rule:nonzero">
        <path
           style="fill:#513f3a;fill-opacity:1;fill-rule:nonzero;stroke:none"
           d="m 376.89844,384.17187 c 0,0 -21.08594,40.16797 53.98047,42.25391 l -0.5586,14.89844 c 0,0 6.54688,-5.08985 7.48828,1.80859 1.08203,7.94141 -7.42968,5.0625 -7.42968,5.0625 0,0 5.26171,17.83985 11.63281,25.17188 0.35547,0.41015 29.83984,-66.10938 -1.19531,-65.48047 0,0 0.84375,-15.87891 -18.71875,-20.17969 -27.33985,-6.00781 -29.44922,17.71484 -45.19922,-3.53516"
           id="path256"
           inkscape:connector-curvature="0" />
      </g>
    </g>
    <g
       clip-path="url(#clip28)"
       id="g258"
       transform="matrix(0.76326002,0,0,0.76326002,-53.914891,187.49807)"
       style="clip-rule:nonzero">
      <g
         clip-path="url(#clip29)"
         id="g260"
         style="clip-rule:nonzero">
        <path
           style="fill:#eb617f;fill-opacity:1;fill-rule:nonzero;stroke:none"
           d="m 389.37109,449.99219 c -1.10156,5.99218 2.85938,11.74218 8.85157,12.84765 5.99218,1.10157 11.74218,-2.85937 12.84765,-8.85156 l -21.69922,-3.99609"
           id="path262"
           inkscape:connector-curvature="0" />
      </g>
    </g>
    <g
       clip-path="url(#clip30)"
       id="g264"
       transform="matrix(0.76326002,0,0,0.76326002,-53.914891,187.49807)"
       style="clip-rule:nonzero">
      <g
         clip-path="url(#clip31)"
         id="g266"
         style="clip-rule:nonzero">
        <path
           style="fill:#513f3a;fill-opacity:1;fill-rule:nonzero;stroke:none"
           d="m 412.33984,440.91797 c -0.58593,2.53515 0.004,4.83984 1.31641,5.14062 1.3125,0.30078 2.84766,-1.51172 3.42969,-4.04687 0.58593,-2.53906 -0.008,-4.83985 -1.31641,-5.14063 -1.3125,-0.30468 -2.84766,1.50782 -3.42969,4.04688"
           id="path268"
           inkscape:connector-curvature="0" />
      </g>
    </g>
    <g
       clip-path="url(#clip32)"
       id="g270"
       transform="matrix(0.76326002,0,0,0.76326002,-53.914891,187.49807)"
       style="clip-rule:nonzero">
      <g
         clip-path="url(#clip33)"
         id="g272"
         style="clip-rule:nonzero">
        <path
           style="fill:#513f3a;fill-opacity:1;fill-rule:nonzero;stroke:none"
           d="m 384.84375,434.80078 c -0.58203,2.53906 0.008,4.83984 1.32031,5.14063 1.3086,0.30078 2.84766,-1.51172 3.42969,-4.04688 0.58203,-2.53906 -0.008,-4.83984 -1.31641,-5.14062 -1.3125,-0.30079 -2.84765,1.51171 -3.43359,4.04687"
           id="path274"
           inkscape:connector-curvature="0" />
      </g>
    </g>
    <path
       style="fill:#9c3a28;fill-opacity:1;fill-rule:nonzero;stroke:none"
       d="m 214.08776,443.16335 c -0.59332,0 -1.18662,-0.24747 -1.60702,-0.66786 -0.42933,-0.42933 -0.67679,-1.01371 -0.67679,-1.61895 0,-0.60226 0.24746,-1.19557 0.67679,-1.61596 0.42337,-0.42636 1.01966,-0.63804 1.61299,-0.63804 0.59331,0 1.18662,0.21168 1.61298,0.63804 0.42933,0.42933 0.66785,1.0137 0.66785,1.61596 0,0.60524 -0.23852,1.18962 -0.66785,1.61895 -0.42039,0.42039 -1.0137,0.66786 -1.61895,0.66786"
       id="path276"
       inkscape:connector-curvature="0" />
    <path
       style="fill:#9c3a28;fill-opacity:1;fill-rule:nonzero;stroke:none"
       d="m 226.66367,443.16335 c -1.26117,0 -2.28382,-1.02563 -2.28382,-2.28681 0,-1.26117 1.02265,-2.28382 2.28382,-2.28382 1.26414,0 2.28679,1.02265 2.28679,2.28382 0,1.26118 -1.02265,2.28681 -2.28679,2.28681"
       id="path278"
       inkscape:connector-curvature="0" />
    <path
       style="fill:#9c3a28;fill-opacity:1;fill-rule:nonzero;stroke:none"
       d="m 276.97324,443.16335 c -1.26416,0 -2.28681,-1.02563 -2.28681,-2.28681 0,-1.26117 1.02265,-2.28382 2.28681,-2.28382 1.26116,0 2.28381,1.02265 2.28381,2.28382 0,1.26118 -1.02265,2.28681 -2.28381,2.28681 m -12.57889,0 c -1.26117,0 -2.28382,-1.02563 -2.28382,-2.28681 0,-1.26117 1.02265,-2.28382 2.28382,-2.28382 1.26116,0 2.28382,1.02265 2.28382,2.28382 0,1.26118 -1.02266,2.28681 -2.28382,2.28681 m -12.5759,0 c -1.26118,0 -2.28382,-1.02563 -2.28382,-2.28681 0,-1.26117 1.02264,-2.28382 2.28382,-2.28382 1.26116,0 2.28679,1.02265 2.28679,2.28382 0,1.26118 -1.02563,2.28681 -2.28679,2.28681 m -12.5759,0 c -1.26117,0 -2.28681,-1.02563 -2.28681,-2.28681 0,-1.26117 1.02564,-2.28382 2.28681,-2.28382 1.26116,0 2.28381,1.02265 2.28381,2.28382 0,1.26118 -1.02265,2.28681 -2.28381,2.28681"
       id="path280"
       inkscape:connector-curvature="0" />
    <path
       style="fill:#9c3a28;fill-opacity:1;fill-rule:nonzero;stroke:none"
       d="m 289.54914,443.16335 c -0.60525,0 -1.18962,-0.24747 -1.61895,-0.66786 -0.42039,-0.42933 -0.66488,-1.01371 -0.66488,-1.61895 0,-0.60226 0.24449,-1.18663 0.66488,-1.61596 0.42634,-0.42636 1.02264,-0.63804 1.61895,-0.63804 0.59629,0 1.19259,0.21168 1.61596,0.63804 0.42039,0.42933 0.66785,1.0137 0.66785,1.61596 0,0.60524 -0.24746,1.18962 -0.66785,1.61895 -0.42933,0.42039 -1.01371,0.66786 -1.61596,0.66786"
       id="path282"
       inkscape:connector-curvature="0" />
    <path
       style="fill:#e8e8e8;fill-opacity:1;fill-rule:nonzero;stroke:none"
       d="m 202.61203,447.9039 97.58697,0 c -0.26238,-0.54263 -0.53965,-1.07929 -0.80799,-1.61894 l -95.971,0 c -0.26833,0.53965 -0.54264,1.07631 -0.80798,1.61894"
       id="path284"
       inkscape:connector-curvature="0" />
    <path
       style="fill:#75a687;fill-opacity:1;fill-rule:nonzero;stroke:none"
       d="m 210.22078,638.48635 c -0.003,-0.003 -0.003,-0.006 -0.003,-0.006 1.84852,-0.26238 3.74474,-0.4025 5.66482,-0.40549 -1.92305,0.006 -3.81034,0.14908 -5.66184,0.41146 m 5.68271,-0.41146 c 0.009,0 0.0179,0 0.0268,0 -0.009,0 -0.0179,0 -0.0268,0 m 0.31902,-1.25818 c -0.0149,-0.0179 -0.0268,-0.0388 -0.0388,-0.0566 0.0119,0.0208 0.0238,0.0358 0.0388,0.0566 m -0.0417,-0.0596 c -3.92066,-5.59923 -7.53421,-11.52045 -10.81086,-17.73088 0.18187,0.34585 0.36672,0.69468 0.55455,1.04053 2.58495,4.81808 5.37562,9.46323 8.35412,13.91161 0.006,0.009 0.0119,0.0179 0.0179,0.0268 0.006,0.009 0.0119,0.0179 0.0179,0.0238 0.61419,0.9183 1.23433,1.82765 1.86641,2.72806 m -26.44577,-58.47884 c 0.003,-0.003 0.006,-0.006 0.009,-0.009 -0.003,0.003 -0.006,0.006 -0.009,0.009 m 0.0447,-0.0477 c 0.009,-0.0119 0.0179,-0.0208 0.0268,-0.0298 -0.009,0.009 -0.0179,0.0179 -0.0268,0.0298"
       id="path286"
       inkscape:connector-curvature="0" />
    <path
       style="fill:#dcdcdc;fill-opacity:1;fill-rule:nonzero;stroke:none"
       d="m 216.92912,637.8185 c -0.23553,-0.33095 -0.47406,-0.66785 -0.70662,-1.00178 -0.0149,-0.0209 -0.0268,-0.0358 -0.0388,-0.0566 -0.003,0 -0.003,-0.003 -0.003,-0.003 -0.63207,-0.90041 -1.25222,-1.80976 -1.86641,-2.72806 0.41442,0.62314 0.83482,1.2403 1.25819,1.85449 0.44722,0.64699 0.9004,1.29396 1.35658,1.93499 m -2.63266,-3.81333 c -0.006,-0.009 -0.0119,-0.0179 -0.0179,-0.0268 0.006,0.009 0.0119,0.0179 0.0179,0.0268 m -8.37193,-13.93838 c -0.18783,-0.34585 -0.37268,-0.69469 -0.55455,-1.04054 -5.87352,-11.1269 -10.66775,-23.17806 -14.20976,-35.93285 3.65233,13.1543 8.63737,25.55728 14.76431,36.97339"
       id="path288"
       inkscape:connector-curvature="0" />
    <path
       style="fill:#9c3a28;fill-opacity:1;fill-rule:nonzero;stroke:none"
       d="m 210.21779,638.48038 c -10.63197,-16.53531 -18.8549,-35.46774 -24.03374,-56.02209 1.15085,-1.42217 2.33153,-2.8175 3.55095,-4.18004 0.003,-0.003 0.006,-0.006 0.009,-0.009 0.0119,-0.0149 0.0238,-0.0268 0.0358,-0.0388 0.009,-0.0119 0.0179,-0.0208 0.0268,-0.0298 0.0179,-0.0208 0.0358,-0.0388 0.0537,-0.0596 0.41144,1.66069 0.84673,3.31244 1.29992,4.95225 3.54202,12.75479 8.33624,24.80595 14.20977,35.93285 3.27664,6.21043 6.8902,12.13166 10.81085,17.73089 0,0 0,0.003 0.003,0.003 0.0119,0.0179 0.0238,0.0388 0.0388,0.0566 0.23255,0.33392 0.47107,0.67083 0.70661,1.00178 0.0686,0.0954 0.13715,0.19081 0.20275,0.28323 -0.34587,-0.009 -0.69171,-0.0238 -1.04055,-0.0268 -0.0358,0 -0.0715,0 -0.10733,0 -0.0179,0 -0.0358,0 -0.0537,0 -0.009,0 -0.0179,0 -0.0268,0 -0.006,0 -0.0119,0 -0.0208,0 -1.92008,0.003 -3.8163,0.14311 -5.66482,0.40549"
       id="path290"
       inkscape:connector-curvature="0" />
    <path
       style="fill:#75a687;fill-opacity:1;fill-rule:nonzero;stroke:none"
       d="m 292.59025,638.48933 c -1.84852,-0.26237 -3.7358,-0.40846 -5.65588,-0.41443 1.92008,0.006 3.81034,0.1461 5.65886,0.40847 0,0.003 -0.003,0.003 -0.003,0.006 m -5.65887,-0.41442 c -0.0119,0 -0.0238,0 -0.0358,0 0.0119,0 0.0238,0 0.0358,0 m -0.0596,0 c -0.009,0 -0.0149,0 -0.0238,0 0.009,0 0.0149,0 0.0238,0 m 26.11185,-59.86224 c -0.003,-0.003 -0.003,-0.003 -0.006,-0.006 0,0 0.003,0.003 0.006,0.006"
       id="path292"
       inkscape:connector-curvature="0" />
    <path
       style="fill:#9c3a28;fill-opacity:1;fill-rule:nonzero;stroke:none"
       d="m 292.59323,638.48337 c -1.84852,-0.26237 -3.73878,-0.4025 -5.65886,-0.40847 0,0 0,0 -0.003,0 -0.0119,0 -0.0238,0 -0.0358,0 -0.006,0 -0.0149,0 -0.0238,0 -0.009,0 -0.0149,0 -0.0238,0 -0.0179,0 -0.0358,0 -0.0537,0 -0.0358,0 -0.0715,0 -0.10734,0 -0.33691,0.003 -0.67083,0.0179 -1.00475,0.0269 12.29861,-17.20019 21.69923,-37.55478 27.26269,-59.9338 0.0119,0.0119 0.0208,0.0268 0.0329,0.0388 0.003,0.003 0.003,0.003 0.006,0.006 1.24924,1.39236 2.45973,2.82346 3.63741,4.27843 -5.17883,20.54541 -13.40177,39.46591 -24.02778,55.99228"
       id="path294"
       inkscape:connector-curvature="0" />
    <path
       style="fill:#9ecaa8;fill-opacity:1;fill-rule:nonzero;stroke:none"
       d="m 241.30275,701.76239 c -0.42336,0 -0.76326,-0.34286 -0.76326,-0.76326 l 0,-35.7152 c 0,-0.42039 0.3399,-0.76326 0.76326,-0.76326 0.42039,0 0.76326,0.34287 0.76326,0.76326 l 0,35.7152 c 0,0.4204 -0.34287,0.76326 -0.76326,0.76326"
       id="path298"
       inkscape:connector-curvature="0" />
    <path
       style="fill:#9ecaa8;fill-opacity:1;fill-rule:nonzero;stroke:none"
       d="m 251.73199,699.3623 c -0.42039,0 -0.76326,-0.34287 -0.76326,-0.76326 l 0,-38.76526 c 0,-0.42338 0.34287,-0.76326 0.76326,-0.76326 0.42336,0 0.76325,0.33988 0.76325,0.76326 l 0,38.76526 c 0,0.42039 -0.33989,0.76326 -0.76325,0.76326"
       id="path300"
       inkscape:connector-curvature="0" />
    <path
       style="fill:#9ecaa8;fill-opacity:1;fill-rule:nonzero;stroke:none"
       d="m 262.16121,701.76239 c -0.42038,0 -0.76325,-0.34286 -0.76325,-0.76326 l 0,-28.0826 c 0,-0.42039 0.34287,-0.76325 0.76325,-0.76325 0.42338,0 0.76327,0.34286 0.76327,0.76325 l 0,28.0826 c 0,0.4204 -0.33989,0.76326 -0.76327,0.76326"
       id="path302"
       inkscape:connector-curvature="0" />
    <path
       style="fill:#7dae8c;fill-opacity:1;fill-rule:nonzero;stroke:none"
       d="m 271.9524,648.58165 -41.09379,0 c -3.54796,0 -6.93195,-1.58912 -9.13228,-4.37383 -0.0209,-0.0238 -0.0417,-0.0507 -0.0626,-0.0776 0.0208,0.0268 0.0417,0.0537 0.0626,0.0776 2.20033,2.78471 5.58432,4.37383 9.13228,4.37383 l 41.09379,0 c 3.55096,0 6.93197,-1.58912 9.1323,-4.37383 1.57423,-1.98567 3.1067,-4.02202 4.59447,-6.10609 -1.48777,2.08407 -3.02024,4.12042 -4.59149,6.10609 -2.20331,2.78471 -5.58432,4.37383 -9.13528,4.37383 m -50.31253,-4.48117 c -0.0119,-0.0149 -0.0268,-0.0329 -0.0388,-0.0507 0.0119,0.0178 0.0268,0.0329 0.0388,0.0507 m -0.0656,-0.0835 c -0.0119,-0.0149 -0.0238,-0.0329 -0.0388,-0.0477 0.012,0.0149 0.0269,0.0329 0.0388,0.0477 m -0.0626,-0.0805 c -0.0119,-0.0149 -0.0268,-0.0329 -0.0388,-0.0477 0.0119,0.0149 0.0238,0.0298 0.0388,0.0477 m -0.0656,-0.0805 c -0.0119,-0.0179 -0.0268,-0.0329 -0.0388,-0.0507 0.0119,0.0149 0.0268,0.0329 0.0388,0.0507 m -0.0835,-0.10733 c -0.0149,-0.0179 -0.0238,-0.0329 -0.0388,-0.0478 0.0119,0.0149 0.0268,0.0329 0.0388,0.0478 m -0.0715,-0.0895 c -0.009,-0.0119 -0.0179,-0.0268 -0.0268,-0.0388 0.009,0.0149 0.0179,0.0268 0.0268,0.0388 m -0.0626,-0.0835 c -0.009,-0.009 -0.0179,-0.0208 -0.0268,-0.0329 0.009,0.0119 0.0179,0.0208 0.0268,0.0329 m -0.0626,-0.0805 c -0.009,-0.009 -0.0149,-0.0208 -0.0238,-0.0299 0.009,0.009 0.0149,0.0209 0.0238,0.0299 m -0.0626,-0.0805 c -0.006,-0.006 -0.009,-0.0119 -0.0149,-0.0179 0.006,0.006 0.009,0.0149 0.0149,0.0179 m -0.16398,-0.20872 c -0.006,-0.006 -0.006,-0.009 -0.0119,-0.0149 0.003,0.003 0.009,0.009 0.0119,0.0149 m -0.0596,-0.0746 c -0.003,-0.006 -0.006,-0.0119 -0.009,-0.0149 0.003,0.006 0.006,0.009 0.009,0.0149 m -0.0596,-0.0776 c -0.003,-0.003 -0.003,-0.006 -0.006,-0.009 0,0.003 0.003,0.006 0.006,0.009"
       id="path304"
       inkscape:connector-curvature="0" />
    <path
       style="fill:#e6e8e6;fill-opacity:1;fill-rule:nonzero;stroke:none"
       d="m 271.9524,648.58165 -41.09379,0 c -3.54796,0 -6.93195,-1.58912 -9.13228,-4.37383 -0.0209,-0.0238 -0.0417,-0.0507 -0.0626,-0.0776 -0.009,-0.009 -0.0149,-0.0208 -0.0238,-0.0298 -0.0119,-0.0179 -0.0268,-0.0329 -0.0388,-0.0507 -0.009,-0.009 -0.0179,-0.0209 -0.0268,-0.0329 -0.0119,-0.0149 -0.0268,-0.0329 -0.0388,-0.0477 -0.009,-0.0119 -0.0149,-0.0208 -0.0238,-0.0329 -0.0149,-0.0179 -0.0268,-0.0329 -0.0388,-0.0477 -0.009,-0.0119 -0.0179,-0.0238 -0.0268,-0.0329 -0.0119,-0.0179 -0.0268,-0.0358 -0.0388,-0.0507 -0.0149,-0.0208 -0.0299,-0.0388 -0.0447,-0.0566 -0.0119,-0.0149 -0.0268,-0.0329 -0.0388,-0.0477 -0.009,-0.0149 -0.0208,-0.0298 -0.0329,-0.0417 -0.009,-0.0119 -0.0179,-0.0238 -0.0268,-0.0388 -0.0119,-0.0149 -0.0238,-0.0299 -0.0358,-0.0447 -0.009,-0.0119 -0.0179,-0.0208 -0.0268,-0.0329 -0.0119,-0.0149 -0.0238,-0.0298 -0.0358,-0.0477 -0.009,-0.009 -0.0149,-0.0208 -0.0238,-0.0298 -0.0119,-0.0149 -0.0268,-0.0329 -0.0388,-0.0507 -0.006,-0.003 -0.009,-0.0119 -0.0149,-0.0179 -0.0507,-0.0626 -0.0984,-0.12523 -0.14907,-0.19083 -0.003,-0.006 -0.009,-0.0119 -0.0119,-0.0149 -0.0149,-0.0179 -0.0298,-0.0417 -0.0477,-0.0596 -0.003,-0.006 -0.006,-0.009 -0.009,-0.0149 -0.0179,-0.0208 -0.0358,-0.0417 -0.0507,-0.0626 -0.003,-0.003 -0.006,-0.006 -0.006,-0.009 -1.25222,-1.61597 -2.4806,-3.26472 -3.68213,-4.94032 0,-0.003 0,-0.003 0,-0.003 -0.52474,-0.73345 -1.04352,-1.47286 -1.55931,-2.21823 -16.10002,-23.33608 -26.94666,-52.20579 -30.32469,-83.93475 10.2265,43.62807 22.06895,69.47456 64.29572,69.47456 42.22676,0 60.75967,-33.71165 69.06907,-85.44935 -0.37568,14.63313 -2.33153,28.77729 -5.6678,42.19397 -0.009,-0.009 -0.0179,-0.0179 -0.0268,-0.0268 -0.41145,1.66069 -0.84675,3.31243 -1.29994,4.95225 -5.67674,20.44702 -14.57349,39.07831 -25.9717,55.00839 0,0.003 0,0.003 0,0.003 0.009,0 0.0208,-0.003 0.0329,-0.003 -1.48777,2.08406 -3.02024,4.12041 -4.59447,6.10608 -2.20033,2.78471 -5.58134,4.37383 -9.13229,4.37383"
       id="path306"
       inkscape:connector-curvature="0" />
    <path
       style="fill:#a13d28;fill-opacity:1;fill-rule:nonzero;stroke:none"
       d="m 285.64637,638.10473 c 0.0119,-0.003 0.0238,-0.003 0.0358,-0.003 l -0.003,0 c -0.012,0 -0.0238,0.003 -0.0329,0.003 m 25.97171,-55.01138 c 0.45319,-1.63982 0.88849,-3.29156 1.29993,-4.95224 0.009,0.009 0.0179,0.0179 0.0268,0.0268 -0.009,-0.009 -0.0179,-0.0179 -0.0268,-0.0268 -0.41144,1.66068 -0.84674,3.31242 -1.29993,4.95224"
       id="path308"
       inkscape:connector-curvature="0" />
    <path
       style="fill:#cfd1cf;fill-opacity:1;fill-rule:nonzero;stroke:none"
       d="m 217.13186,638.10173 c -0.0686,-0.0925 -0.13417,-0.18783 -0.20274,-0.28323 -0.45618,-0.64102 -0.90936,-1.288 -1.35658,-1.93499 0.5158,0.74537 1.03458,1.48478 1.55932,2.21822"
       id="path310"
       inkscape:connector-curvature="0" />
    <path
       style="fill:#913526;fill-opacity:1;fill-rule:nonzero;stroke:none"
       d="m 217.13186,638.10173 c -0.0655,-0.0925 -0.13417,-0.18783 -0.20274,-0.28323 0.0686,0.0954 0.13416,0.19081 0.20274,0.28623"
       id="path312"
       inkscape:connector-curvature="0" />
    <path
       style="fill:#cfd1cf;fill-opacity:1;fill-rule:nonzero;stroke:none"
       d="m 285.64637,638.10173 c 11.39821,-15.93006 20.29496,-34.56136 25.9717,-55.00838 -5.67674,20.44702 -14.57349,39.07832 -25.9717,55.01138 0,-0.003 0,-0.003 0,-0.003"
       id="path314"
       inkscape:connector-curvature="0" />
    <path
       style="fill:#913526;fill-opacity:1;fill-rule:nonzero;stroke:none"
       d="m 285.64637,638.10473 c 11.39821,-15.93306 20.29496,-34.56436 25.9717,-55.01138 0.4532,-1.63982 0.88849,-3.29156 1.29994,-4.95224 0.009,0.009 0.0179,0.0179 0.0268,0.0268 -5.56346,22.37902 -14.96408,42.73362 -27.2627,59.93381 -0.0119,0 -0.0238,0 -0.0358,0"
       id="path316"
       inkscape:connector-curvature="0" />
    <path
       style="fill:#c5d9ca;fill-opacity:1;fill-rule:nonzero;stroke:none"
       d="m 231.54436,653.87379 40.40804,0 0,-5.29214 -40.40804,0 z m 0,0"
       id="path318"
       inkscape:connector-curvature="0" />
  </g>
</svg>
