<?xml version="1.0" encoding="UTF-8" standalone="no"?>
<svg
   xmlns:dc="http://purl.org/dc/elements/1.1/"
   xmlns:cc="http://creativecommons.org/ns#"
   xmlns:rdf="http://www.w3.org/1999/02/22-rdf-syntax-ns#"
   xmlns:svg="http://www.w3.org/2000/svg"
   xmlns="http://www.w3.org/2000/svg"
   xmlns:sodipodi="http://sodipodi.sourceforge.net/DTD/sodipodi-0.dtd"
   xmlns:inkscape="http://www.inkscape.org/namespaces/inkscape"
   width="417.25223pt"
   height="639.71399pt"
   viewBox="0 0 417.25223 639.71399"
   version="1.1"
   id="svg2"
   inkscape:version="0.91 r13725"
   sodipodi:docname="pricing-three.svg">
  <metadata
     id="metadata181">
    <rdf:RDF>
      <cc:Work
         rdf:about="">
        <dc:format>image/svg+xml</dc:format>
        <dc:type
           rdf:resource="http://purl.org/dc/dcmitype/StillImage" />
        <dc:title></dc:title>
      </cc:Work>
    </rdf:RDF>
  </metadata>
  <defs
     id="defs179" />
  <sodipodi:namedview
     pagecolor="#ffffff"
     bordercolor="#666666"
     borderopacity="1"
     objecttolerance="10"
     gridtolerance="10"
     guidetolerance="10"
     inkscape:pageopacity="0"
     inkscape:pageshadow="2"
     inkscape:window-width="1366"
     inkscape:window-height="712"
     id="namedview177"
     showgrid="false"
     fit-margin-top="0"
     fit-margin-left="0"
     fit-margin-right="0"
     fit-margin-bottom="-0.5"
     inkscape:zoom="0.23838384"
     inkscape:cx="149.90723"
     inkscape:cy="549.95373"
     inkscape:window-x="0"
     inkscape:window-y="30"
     inkscape:window-maximized="1"
     inkscape:current-layer="surface1" />
  <g
     id="surface1"
     transform="translate(-186.07422,-62.011719)">
    <path
       style="fill:#fad7b5;fill-opacity:1;fill-rule:nonzero;stroke:none"
       d="m 571.82031,187.48437 c -3.35937,-3.35937 -27.82031,19.61329 -30.1289,21.9375 -1.80079,1.8125 -52.1211,47.20313 -101.28907,81.44532 l 9.69141,12.51562 c 55.39453,-37.35156 104.04687,-77.2539 106.24609,-79.03125 2.7461,-2.21875 5.4375,-4.27344 4.78125,-6.70703 -0.4375,-1.64062 -2.05859,-1.84375 -3.23828,-1.08594 1.15235,-1.34765 2.55469,-2.49609 1.10156,-4.4414 -0.65234,-0.86719 -2.23437,-0.85938 -3.14843,-0.15235 1.72265,-1.7539 2.75781,-3.66406 2.04297,-4.98437 -0.76954,-1.41797 -3.04688,-1.89453 -4.22657,-1.14453 1.33594,-1.57813 20.50391,-16.01953 18.16797,-18.35157"
       id="path7"
       inkscape:connector-curvature="0" />
    <path
       style="fill:#f8f8f8;fill-opacity:1;fill-rule:nonzero;stroke:none"
       d="m 440.40234,290.86719 9.69141,12.51562 c 5.92969,-4 11.77344,-8.02734 17.5,-12.03125 l -9.35156,-13.33203 c -5.90625,4.38281 -11.88282,8.69531 -17.83985,12.84766"
       id="path9"
       inkscape:connector-curvature="0" />
    <path
       style="fill:#75a687;fill-opacity:1;fill-rule:nonzero;stroke:none"
       d="m 440.69141,290.66406 c 4.27734,-2.98047 8.5664,-6.05078 12.82812,-9.16797 -4.26172,3.11719 -8.55078,6.1875 -12.82812,9.16797"
       id="path11"
       inkscape:connector-curvature="0" />
    <path
       style="fill:#dedede;fill-opacity:1;fill-rule:nonzero;stroke:none"
       d="m 451.9375,302.13281 c 0.14453,-4.35156 0.36719,-8.53515 0.57812,-12.46875 l -11.82421,1 c 4.27734,-2.98047 8.5664,-6.05078 12.82812,-9.16797 l 3.91016,16.89063 c -1.82422,1.25 -3.65235,2.5 -5.49219,3.74609"
       id="path13"
       inkscape:connector-curvature="0" />
    <path
       style="fill:#f8f8f8;fill-opacity:1;fill-rule:nonzero;stroke:none"
       d="m 291.24609,566.23437 35.23828,43.34375 c 3.04297,3.74219 7.6211,5.94922 12.44532,5.88282 50.99218,-0.67969 105.43359,-19.83985 151.91406,-57.63282 C 548.75391,510.75 580.91406,445.66797 583.01953,384.25 c 0.38672,-11.35547 -7.63281,-21.22266 -18.82812,-23.15625 -60.55469,-10.48047 -130.83204,7.72266 -188.74219,54.80469 -46.47656,37.78906 -76.34766,87.17187 -87.42188,136.95312 -1.05078,4.71094 0.17578,9.63672 3.21875,13.38281"
       id="path15"
       inkscape:connector-curvature="0" />
    <path
       style="fill:#ae3f2b;fill-opacity:1;fill-rule:nonzero;stroke:none"
       d="m 350.35937,616.25391 c 17.46094,21.47656 16.14844,52.08593 -1.87109,71.98828 -2.51562,2.77734 -2.71875,6.9375 -0.35547,9.84375 l 0.70313,0.86328 c 2.23437,2.75 6.10156,3.57812 9.24218,1.9375 8.66797,-4.53125 17.01563,-9.98047 24.89844,-16.39063 29.59375,-24.05859 47.4961,-57.15625 52.9961,-92.08203 -28.39454,13.33203 -57.92188,20.88281 -86.63282,22.65235 0.33985,0.39453 0.6875,0.78125 1.01953,1.1875"
       id="path17"
       inkscape:connector-curvature="0" />
    <path
       style="fill:#ae3f2b;fill-opacity:1;fill-rule:nonzero;stroke:none"
       d="m 289.57031,541.53516 c -17.46094,-21.47657 -47.6875,-26.44141 -70.85156,-12.86329 -3.23438,1.89454 -7.34766,1.24219 -9.70703,-1.66406 l -0.70313,-0.86328 c -2.23828,-2.75 -2.25781,-6.70312 -0.0117,-9.44141 6.20704,-7.55859 13.24219,-14.62109 21.12891,-21.03125 29.58984,-24.05859 65.64453,-34.82812 100.95703,-33.08593 -18.84375,25.07422 -32.26172,52.4414 -39.85547,80.1875 -0.3164,-0.41407 -0.625,-0.83203 -0.95703,-1.23828"
       id="path19"
       inkscape:connector-curvature="0" />
    <path
       style="fill:#ae3f2b;fill-opacity:1;fill-rule:nonzero;stroke:none"
       d="m 564.33203,361.11719 c -26.5,-4.59766 -54.86328,-3.69532 -83.24219,2.70703 l 82.29297,101.22265 c 12.0586,-26.47656 18.73438,-54.05859 19.64063,-80.9414 0.375,-11.24219 -7.60938,-21.0625 -18.69141,-22.98828"
       id="path21"
       inkscape:connector-curvature="0" />
    <path
       style="fill:#9c3a28;fill-opacity:1;fill-rule:nonzero;stroke:none"
       d="m 495.93359,373.54687 c -0.10547,0 -0.21093,-0.004 -0.3164,-0.0156 -0.80078,-0.082 -1.57032,-0.5 -2.08985,-1.13281 -0.50781,-0.62891 -0.75781,-1.46485 -0.67578,-2.26953 0.0859,-0.82032 0.49219,-1.58204 1.12891,-2.10157 0.54687,-0.44531 1.24609,-0.6914 1.94922,-0.6914 0.11328,0 0.22265,0.004 0.33593,0.0195 1.625,0.16797 2.9336,1.77734 2.76563,3.40234 -0.0859,0.82031 -0.49609,1.57422 -1.13281,2.08985 -0.55469,0.45312 -1.25,0.69921 -1.96485,0.69921"
       id="path23"
       inkscape:connector-curvature="0" />
    <path
       style="fill:#9c3a28;fill-opacity:1;fill-rule:nonzero;stroke:none"
       d="m 506.72656,386.80859 c -0.90625,0 -1.80078,-0.39062 -2.41406,-1.14843 -1.08203,-1.32813 -0.87891,-3.28516 0.45312,-4.36719 0.57422,-0.46875 1.26563,-0.69531 1.95313,-0.69531 0.90625,0 1.80078,0.39062 2.41406,1.14453 1.08203,1.33203 0.87891,3.28906 -0.44922,4.37109 -0.57812,0.46875 -1.26953,0.69531 -1.95703,0.69531"
       id="path25"
       inkscape:connector-curvature="0" />
    <path
       style="fill:#9c3a28;fill-opacity:1;fill-rule:nonzero;stroke:none"
       d="m 539.07812,426.60547 c -0.90234,0 -1.79687,-0.39453 -2.41406,-1.14844 -1.07812,-1.32812 -0.8789,-3.28516 0.45313,-4.36719 0.57422,-0.46875 1.26953,-0.69922 1.95703,-0.69922 0.90234,0 1.79687,0.39454 2.41015,1.14844 1.08204,1.32813 0.88282,3.28516 -0.44921,4.36719 -0.57422,0.46875 -1.26563,0.69922 -1.95704,0.69922 m -10.78515,-13.26563 c -0.90235,0 -1.79688,-0.39453 -2.41016,-1.14843 -1.08203,-1.32813 -0.8789,-3.28516 0.44922,-4.36719 0.57422,-0.46875 1.26953,-0.69531 1.95703,-0.69531 0.90235,0 1.80078,0.39062 2.41406,1.14453 1.07813,1.33203 0.87891,3.28906 -0.44921,4.37109 -0.57813,0.46484 -1.26954,0.69531 -1.96094,0.69531 m -10.78125,-13.26562 c -0.90625,0 -1.80078,-0.39063 -2.41406,-1.14453 -1.08204,-1.33203 -0.87891,-3.28907 0.44921,-4.3711 0.57813,-0.46875 1.26954,-0.69531 1.96094,-0.69531 0.90235,0 1.79688,0.39063 2.41016,1.14453 1.08203,1.33203 0.8789,3.28906 -0.44922,4.3711 -0.57813,0.46875 -1.26953,0.69531 -1.95703,0.69531"
       id="path27"
       inkscape:connector-curvature="0" />
    <path
       style="fill:#dedede;fill-opacity:1;fill-rule:nonzero;stroke:none"
       d="M 536.71875,435.73828 478.6875,364.35937 c 0.80078,-0.1875 1.59766,-0.35546 2.40234,-0.53515 l 57.07422,70.20312 c -0.48047,0.57032 -0.96094,1.13672 -1.44531,1.71094"
       id="path29"
       inkscape:connector-curvature="0" />
    <path
       style="fill:#75a687;fill-opacity:1;fill-rule:nonzero;stroke:none"
       d="m 289.51562,541.46484 c -0.004,-0.004 -0.008,-0.0117 -0.0117,-0.0156 0.004,0.004 0.008,0.0117 0.0117,0.0156 m -0.0664,-0.082 c -0.008,-0.008 -0.0156,-0.0156 -0.0195,-0.0234 0.004,0.008 0.0117,0.0156 0.0195,0.0234 m -0.0469,-0.0547 c -1.6289,-1.98437 -3.375,-3.82031 -5.20703,-5.51953 0,-0.004 0.004,-0.008 0.004,-0.008 1.83203,1.69531 3.57422,3.54297 5.20312,5.52734 m 40.97657,-78.74218 c -0.41016,-0.0195 -0.81641,-0.0391 -1.22266,-0.0547 0.40625,0.0156 0.81641,0.0352 1.22266,0.0547"
       id="path31"
       inkscape:connector-curvature="0" />
    <path
       style="fill:#9c3a28;fill-opacity:1;fill-rule:nonzero;stroke:none"
       d="m 290.52734,542.77344 c -0.3164,-0.41407 -0.625,-0.83203 -0.95703,-1.23828 -0.0195,-0.0234 -0.0391,-0.0469 -0.0547,-0.0703 -0.004,-0.004 -0.008,-0.0117 -0.0117,-0.0156 -0.0195,-0.0195 -0.0352,-0.043 -0.0547,-0.0664 -0.008,-0.008 -0.0156,-0.0156 -0.0195,-0.0234 -0.0117,-0.0117 -0.0195,-0.0195 -0.0274,-0.0312 -1.6289,-1.98437 -3.37109,-3.83203 -5.20312,-5.52734 8.32422,-25.39453 21.23828,-50.30078 38.48047,-73.38672 0.1289,0 0.25781,0 0.39062,0 2.03125,0 4.0586,0.0352 6.08594,0.11719 0.40625,0.0156 0.8125,0.0352 1.22266,0.0547 0,0 0.004,0 0.004,0 -17.70312,23.55859 -30.61719,49.13672 -38.41015,75.15234 -0.50391,1.67578 -0.98438,3.35547 -1.44532,5.03516"
       id="path33"
       inkscape:connector-curvature="0" />
    <path
       style="fill:#75a687;fill-opacity:1;fill-rule:nonzero;stroke:none"
       d="m 354.89062,622.72266 c -1.28906,-2.14063 -2.72656,-4.22266 -4.33593,-6.22266 1.60937,2 3.05468,4.07812 4.34375,6.22266 -0.004,0 -0.008,0 -0.008,0 m -4.3789,-6.27735 c 0,0 0,-0.004 0,-0.004 l 0,0.004 m -0.0508,-0.0625 c 0,0 0,-0.004 -0.004,-0.004 0.004,0 0.004,0.004 0.004,0.004 m -0.0508,-0.0625 c 0,0 0,-0.004 -0.004,-0.004 0.004,0 0.004,0.004 0.004,0.004 m 85.52343,-23.64453 c 0,-0.0117 0.004,-0.0273 0.004,-0.0391 0,0.0117 -0.004,0.0234 -0.004,0.0391 m 0.0117,-0.0898 c 0.0117,-0.0547 0.0195,-0.11328 0.0274,-0.17188 -0.008,0.0586 -0.0156,0.11719 -0.0274,0.17188"
       id="path35"
       inkscape:connector-curvature="0" />
    <path
       style="fill:#9c3a28;fill-opacity:1;fill-rule:nonzero;stroke:none"
       d="m 354.89844,622.72266 c -1.28907,-2.14454 -2.73438,-4.22266 -4.34375,-6.22266 -0.0156,-0.0195 -0.0274,-0.0352 -0.043,-0.0547 l 0,-0.004 c -0.0195,-0.0195 -0.0352,-0.0391 -0.0508,-0.0586 0,0 0,-0.004 -0.004,-0.004 -0.0156,-0.0195 -0.0312,-0.0391 -0.0469,-0.0586 0,0 0,-0.004 -0.004,-0.004 -0.0156,-0.0195 -0.0312,-0.043 -0.0469,-0.0625 -0.33203,-0.40625 -0.67578,-0.79297 -1.01562,-1.1836 2.61328,-0.16406 5.23047,-0.375 7.85547,-0.63281 26.21875,-2.56641 52.96484,-9.90625 78.77344,-22.02344 -0.008,0.0586 -0.0156,0.11719 -0.0274,0.17188 0,0.0195 -0.004,0.0351 -0.008,0.0508 0,0.0117 -0.004,0.0273 -0.004,0.0391 -0.39453,2.46875 -0.85937,4.92578 -1.375,7.375 -26.10937,12.15234 -53.11718,19.70703 -79.66015,22.67188"
       id="path37"
       inkscape:connector-curvature="0" />
    <path
       style="fill:#ae3f2b;fill-opacity:1;fill-rule:nonzero;stroke:none"
       d="m 300.59766,653.21875 c -38.34375,31.17578 -114.52344,34.51562 -114.52344,34.51562 0,0 18.82031,-73.88671 57.16797,-105.0625 19.48047,-15.83984 42.33203,-8.1875 58.16797,11.29688 15.83984,19.48047 18.66796,43.41016 -0.8125,59.25"
       id="path39"
       inkscape:connector-curvature="0" />
    <path
       style="fill:#ee9e21;fill-opacity:1;fill-rule:nonzero;stroke:none"
       d="m 297.83984,643.92187 c -15.64843,12.71875 -48.15234,18.08204 -60.87109,2.4375 -12.71875,-15.64453 -0.83203,-46.37109 14.8125,-59.08984 15.64453,-12.72266 32.85547,-5.64844 45.57422,9.99609 12.71875,15.64454 16.1289,33.9375 0.48437,46.65625"
       id="path41"
       inkscape:connector-curvature="0" />
    <path
       style="fill:#f8f8f8;fill-opacity:1;fill-rule:nonzero;stroke:none"
       d="m 296.38672,625.89453 c -9.25781,7.52734 -28.73828,10.90234 -36.26563,1.64063 -7.52734,-9.25782 -0.25,-27.64063 9.01172,-35.16797 9.25781,-7.52344 17.08203,-1.42188 24.60938,7.83593 7.52734,9.25782 11.90234,18.16407 2.64453,25.69141"
       id="path43"
       inkscape:connector-curvature="0" />
    <path
       style="fill:#ae3f2b;fill-opacity:1;fill-rule:nonzero;stroke:none"
       d="m 288.02734,552.85156 c -1.05078,4.71094 0.17578,9.63672 3.21875,13.38281 l 35.23828,43.34375 c 3.04297,3.74219 7.6211,5.94922 12.44532,5.88282 3.45312,-0.0469 6.92578,-0.1836 10.40625,-0.39844 l -58.80469,-72.28516 c -0.91797,3.35547 -1.75781,6.71094 -2.50391,10.07422"
       id="path45"
       inkscape:connector-curvature="0" />
    <path
       style="fill:#dedede;fill-opacity:1;fill-rule:nonzero;stroke:none"
       d="m 295.86328,549.33203 -0.50391,-0.62109 0.50391,0.62109"
       id="path47"
       inkscape:connector-curvature="0" />
    <path
       style="fill:#9c3a28;fill-opacity:1;fill-rule:nonzero;stroke:none"
       d="m 287.70312,557.05859 c -0.0391,-0.70703 -0.0391,-1.42187 0.0234,-2.13672 l 7.63281,-6.21093 0.50391,0.62109 0.53516,0.65625 -8.69532,7.07031"
       id="path49"
       inkscape:connector-curvature="0" />
    <path
       style="fill:#9c3a28;fill-opacity:1;fill-rule:nonzero;stroke:none"
       d="m 290.72656,565.51953 c -0.32422,-0.44922 -0.625,-0.91016 -0.90234,-1.38281 l 10.88281,-8.85547 1.03516,1.27734 -11.01563,8.96094"
       id="path51"
       inkscape:connector-curvature="0" />
    <path
       style="fill:#9c3a28;fill-opacity:1;fill-rule:nonzero;stroke:none"
       d="m 296.03516,572.125 -1.03907,-1.27734 11.05469,-8.99219 1.03906,1.27344 -11.05468,8.99609"
       id="path53"
       inkscape:connector-curvature="0" />
    <path
       style="fill:#9c3a28;fill-opacity:1;fill-rule:nonzero;stroke:none"
       d="m 301.37891,578.69531 -0.0195,-0.0195 -1.01953,-1.25391 11.0586,-8.99609 1.03515,1.27344 -11.05468,8.99609"
       id="path55"
       inkscape:connector-curvature="0" />
    <path
       style="fill:#9c3a28;fill-opacity:1;fill-rule:nonzero;stroke:none"
       d="m 306.72266,585.26953 -0.6836,-0.83984 -0.35547,-0.4375 11.0586,-8.9961 1.03906,1.27735 -11.05859,8.99609"
       id="path57"
       inkscape:connector-curvature="0" />
    <path
       style="fill:#dedede;fill-opacity:1;fill-rule:nonzero;stroke:none"
       d="m 323.10156,582.8125 -1.01172,-1.24609 1.01172,1.24609"
       id="path59"
       inkscape:connector-curvature="0" />
    <path
       style="fill:#9c3a28;fill-opacity:1;fill-rule:nonzero;stroke:none"
       d="m 312.06641,591.84375 -1.03907,-1.27734 11.0625,-9 1.01172,1.24609 0.0274,0.0312 -11.0625,9"
       id="path61"
       inkscape:connector-curvature="0" />
    <path
       style="fill:#9c3a28;fill-opacity:1;fill-rule:nonzero;stroke:none"
       d="m 318.56641,597.38281 c -0.78516,0 -1.46094,-0.13672 -2,-0.40234 l 10.86718,-8.83985 1.03907,1.27344 -9.79297,7.96875 c -0.0352,0 -0.0742,0 -0.11328,0"
       id="path63"
       inkscape:connector-curvature="0" />
    <path
       style="fill:#7fb08f;fill-opacity:1;fill-rule:nonzero;stroke:none"
       d="m 338.72266,615.46484 c -4.75,0 -9.23829,-2.19531 -12.23829,-5.88672 l -10.80078,-13.28515 1.4336,1.76562 0.29297,0.35547 9.07421,11.16406 c 3,3.69141 7.48829,5.88672 12.23829,5.88672 0.0664,0 0.13671,0 0.20703,-0.004 3.45703,-0.0469 6.92578,-0.17578 10.41406,-0.39063 -3.48828,0.21485 -6.95703,0.34375 -10.41406,0.39063 -0.0703,0.004 -0.14063,0.004 -0.20703,0.004"
       id="path65"
       inkscape:connector-curvature="0" />
    <path
       style="fill:#eeeeeb;fill-opacity:1;fill-rule:nonzero;stroke:none"
       d="m 338.92969,615.46094 c 3.45312,-0.0469 6.92578,-0.1836 10.40625,-0.39844 l -4.82813,-5.93359 -1.03515,-1.27735 -5.13672,-6.3125 -0.21094,-0.25781 -4.98047,-6.125 -0.36328,-0.44531 -1.47266,-1.8086 c 37.125,-16.2539 80.82813,-43.34765 124.16407,-78.57812 31.88671,-25.92578 59.51562,-52.95703 81.24609,-78.58594 l 25.64844,31.55078 c 0.35156,-0.74609 0.67578,-1.49609 1.01562,-2.24219 l -25.21875,-31.01953 25.21875,31.01953 c 12.0586,-26.47656 18.73438,-54.05859 19.64063,-80.9414 0,-0.0859 0.004,-0.17188 0.008,-0.26172 -0.004,0.13672 -0.008,0.26953 -0.0117,0.40625 -2.10547,61.41797 -34.26562,126.5 -92.17578,173.57812 -40.96484,33.3086 -88.12109,52.14454 -133.64453,56.60938 -2.625,0.25781 -5.24219,0.46875 -7.85938,0.62891 0.004,0 0.004,0 0.004,0.004 -3.48828,0.21485 -6.95703,0.34375 -10.41406,0.39063"
       id="path67"
       inkscape:connector-curvature="0" />
    <path
       style="fill:#a63d28;fill-opacity:1;fill-rule:nonzero;stroke:none"
       d="m 563.38281,465.04687 -25.21875,-31.01953 c 17.03125,-20.28906 30.33594,-39.66797 39.08203,-56.875 1.85157,-3.63672 2,-6.41015 0.70703,-8.00781 3.27344,4.02734 5.16797,9.17969 5.07813,14.69922 -0.004,0.0898 -0.008,0.17578 -0.008,0.26172 -0.90625,26.88281 -7.58203,54.46484 -19.64063,80.9414 m -2.71094,-18.125 c -0.71875,0 -1.42578,0.24219 -1.98437,0.69532 -0.63672,0.51953 -1.04297,1.28125 -1.13672,2.09375 -0.0742,0.8125 0.16797,1.64062 0.68359,2.27734 0.51954,0.63672 1.28125,1.03906 2.08985,1.13281 0.10156,0.0117 0.19531,0.0156 0.29297,0.0156 0.71875,0 1.42968,-0.24219 1.98828,-0.69922 0.63672,-0.51563 1.03906,-1.27734 1.13281,-2.08984 0.16797,-1.625 -1.14844,-3.2461 -2.77344,-3.41407 -0.0976,-0.008 -0.19531,-0.0117 -0.29297,-0.0117 m -10.8125,-13.26562 c -0.6875,0 -1.38281,0.23047 -1.95703,0.69922 -1.33203,1.08203 -1.53515,3.03515 -0.45312,4.36719 0.61719,0.7539 1.51172,1.14843 2.41406,1.14843 0.6875,0 1.38281,-0.23047 1.95703,-0.69531 1.33203,-1.08203 1.53125,-3.03906 0.44922,-4.37109 -0.61328,-0.75391 -1.50781,-1.14844 -2.41016,-1.14844"
       id="path69"
       inkscape:connector-curvature="0" />
    <path
       style="fill:#943826;fill-opacity:1;fill-rule:nonzero;stroke:none"
       d="m 549.86328,439.87109 c -0.90234,0 -1.79687,-0.39453 -2.41406,-1.14843 -1.08203,-1.33204 -0.87891,-3.28516 0.45312,-4.36719 0.57422,-0.46875 1.26953,-0.69922 1.95703,-0.69922 0.90235,0 1.79688,0.39453 2.41016,1.14844 1.08203,1.33203 0.88281,3.28906 -0.44922,4.37109 -0.57422,0.46484 -1.26953,0.69531 -1.95703,0.69531"
       id="path71"
       inkscape:connector-curvature="0" />
    <path
       style="fill:#943826;fill-opacity:1;fill-rule:nonzero;stroke:none"
       d="m 560.61719,453.13672 c -0.0977,0 -0.19141,-0.004 -0.29297,-0.0156 -0.8086,-0.0937 -1.57031,-0.49609 -2.08985,-1.13281 -0.51562,-0.63672 -0.75781,-1.46484 -0.68359,-2.27734 0.0937,-0.8125 0.5,-1.57422 1.13672,-2.09375 0.55859,-0.45313 1.26562,-0.69532 1.98437,-0.69532 0.0977,0 0.19532,0.004 0.29297,0.0117 1.625,0.16797 2.94141,1.78907 2.77344,3.41407 -0.0937,0.8125 -0.49609,1.57421 -1.13281,2.08984 -0.5586,0.45703 -1.26953,0.69922 -1.98828,0.69922"
       id="path73"
       inkscape:connector-curvature="0" />
    <path
       style="fill:#d4d4d4;fill-opacity:1;fill-rule:nonzero;stroke:none"
       d="m 562.36719,467.28906 -25.64844,-31.55078 c 0.48437,-0.57422 0.96484,-1.14062 1.44531,-1.71094 l 25.21875,31.01953 c -0.33984,0.7461 -0.66406,1.4961 -1.01562,2.24219"
       id="path75"
       inkscape:connector-curvature="0" />
    <path
       style="fill:#943826;fill-opacity:1;fill-rule:nonzero;stroke:none"
       d="m 349.34375,615.07031 c 0,-0.004 0,-0.004 -0.004,-0.004 2.61719,-0.16016 5.23438,-0.3711 7.85938,-0.62891 -2.625,0.25781 -5.24219,0.46875 -7.85547,0.63281"
       id="path77"
       inkscape:connector-curvature="0" />
    <path
       style="fill:#a63d28;fill-opacity:1;fill-rule:nonzero;stroke:none"
       d="m 338.72266,615.46484 c -4.75,0 -9.23829,-2.19531 -12.23829,-5.88672 l -9.07421,-11.16406 1.26953,-1.03125 c 1.28515,-0.0234 2.86328,-0.39062 4.64453,-1.11328 2.625,-1.06641 5.28906,-2.1875 7.98437,-3.36719 l 1.47266,1.8086 -11.06641,9 1.03907,1.27734 11.0625,-9 -0.67188,-0.83203 4.98047,6.125 -11.02734,8.97266 c 0.375,0.41015 0.76562,0.79687 1.17578,1.16406 l 10.89062,-8.85938 -0.82812,-1.01953 5.13672,6.3125 -8.69922,7.07422 c 0.6914,0.18359 1.38672,0.32813 2.10156,0.41406 l 7.63281,-6.21093 4.82813,5.93359 c -3.48047,0.21484 -6.95313,0.35156 -10.40625,0.39844 -0.0703,0.004 -0.14063,0.004 -0.20703,0.004 m -21.60547,-17.40625 -1.4336,-1.76562 c 0.23047,0.28515 0.52735,0.51562 0.88282,0.6875 l -0.19532,0.16015 0.7461,0.91797"
       id="path79"
       inkscape:connector-curvature="0" />
    <path
       style="fill:#70a182;fill-opacity:1;fill-rule:nonzero;stroke:none"
       d="m 317.41016,598.41406 -0.29297,-0.35547 0.29297,0.35547"
       id="path81"
       inkscape:connector-curvature="0" />
    <path
       style="fill:#943826;fill-opacity:1;fill-rule:nonzero;stroke:none"
       d="m 317.41016,598.41406 -0.29297,-0.35547 -0.7461,-0.91797 0.19532,-0.16015 c 0.53906,0.26562 1.21484,0.40234 2,0.40234 0.0391,0 0.0781,0 0.11328,0 l -1.26953,1.03125"
       id="path83"
       inkscape:connector-curvature="0" />
    <path
       style="fill:#d4d4d4;fill-opacity:1;fill-rule:nonzero;stroke:none"
       d="m 333.14453,595.15625 -0.36328,-0.44531 0.36328,0.44531"
       id="path85"
       inkscape:connector-curvature="0" />
    <path
       style="fill:#943826;fill-opacity:1;fill-rule:nonzero;stroke:none"
       d="m 322.75391,604.98828 -1.03907,-1.27734 11.06641,-9 0.36328,0.44531 0.67188,0.83203 -11.0625,9"
       id="path87"
       inkscape:connector-curvature="0" />
    <path
       style="fill:#d4d4d4;fill-opacity:1;fill-rule:nonzero;stroke:none"
       d="m 338.33594,601.53906 -0.21094,-0.25781 0.21094,0.25781"
       id="path89"
       inkscape:connector-curvature="0" />
    <path
       style="fill:#943826;fill-opacity:1;fill-rule:nonzero;stroke:none"
       d="m 328.27344,611.41797 c -0.41016,-0.36719 -0.80078,-0.75391 -1.17578,-1.16406 l 11.02734,-8.97266 0.21094,0.25781 0.82812,1.01953 -10.89062,8.85938"
       id="path91"
       inkscape:connector-curvature="0" />
    <path
       style="fill:#d4d4d4;fill-opacity:1;fill-rule:nonzero;stroke:none"
       d="m 344.50781,609.12891 -1.03515,-1.27735 1.03515,1.27735"
       id="path93"
       inkscape:connector-curvature="0" />
    <path
       style="fill:#943826;fill-opacity:1;fill-rule:nonzero;stroke:none"
       d="m 336.875,615.33984 c -0.71484,-0.0859 -1.41016,-0.23047 -2.10156,-0.41406 l 8.69922,-7.07422 1.03515,1.27735 -7.63281,6.21093"
       id="path95"
       inkscape:connector-curvature="0" />
    <path
       style="fill:#dedede;fill-opacity:1;fill-rule:nonzero;stroke:none"
       d="m 372.35547,502.89453 c -2.15625,0 -4.89453,-1.77734 -7.78516,-4.42578 0.0312,-0.11719 0.0586,-0.23828 0.082,-0.35938 5.375,-24.22656 -16.5664,-24.87109 -16.5664,-24.87109 l 28.09375,-25.6875 -7.69141,-25.79687 c 0.88281,-0.76954 1.77734,-1.53516 2.67578,-2.30079 l 10.89063,25 -24.79297,28.89063 c 0,0 0.42578,-0.0391 1.15625,-0.0391 4.48437,0 20.36719,1.48828 18.29297,22.73047 -0.48047,4.91796 -2.09766,6.85937 -4.35547,6.85937"
       id="path97"
       inkscape:connector-curvature="0" />
    <path
       style="fill:#f8f8f8;fill-opacity:1;fill-rule:nonzero;stroke:none"
       d="m 312.77344,301.51172 139.74218,-11.84766 c -0.99609,18.79688 -2.37109,43.35938 6.55079,64.36328 -17.63672,21.19532 -85.625,63.08203 -111.1836,64.42969 -17.45312,-29.60547 -30.40625,-73.60937 -35.10937,-116.94531"
       id="path99"
       inkscape:connector-curvature="0" />
    <path
       style="fill:#4a3523;fill-opacity:1;fill-rule:nonzero;stroke:none"
       d="m 459.06641,354.02734 -111.1836,64.42969 13.95703,25.27734 -24.73437,30.42579 c 0,0 22.46484,46.86718 27.54687,23.94921 5.375,-24.22656 -16.5664,-24.87109 -16.5664,-24.87109 l 28.09375,-25.6875 -8.20703,-27.52344 c 0,0 40.26562,-27.91797 82.5,-49.55468 l 1.49609,1.87109 c 4.96484,-1.79688 9.94531,-3.41797 14.9375,-4.86719 l -7.83984,-13.44922"
       id="path101"
       inkscape:connector-curvature="0" />
    <path
       style="fill:#fad7b5;fill-opacity:1;fill-rule:nonzero;stroke:none"
       d="m 452.51562,289.66406 c 0,0 9.3086,-141.83203 -101.6914,-108.11719 0,0 -35.44141,41.87891 -38.05078,119.96485 93.62109,24.29297 139.74218,-11.84766 139.74218,-11.84766"
       id="path103"
       inkscape:connector-curvature="0" />
    <path
       style="fill:#4a3523;fill-opacity:1;fill-rule:nonzero;stroke:none"
       d="m 442.21484,114.89844 c 10.37891,39.65234 16.16407,96.02734 -100.04687,102.03125 l -1.39844,30.13672 c 0,0 -13.14062,-10.00782 -15.16406,4.25 -2.03125,14.26562 14.25781,7.26562 14.25781,7.26562 0,0 -12.87891,26.59766 -27.08984,42.92969 -0.85157,0.98047 -61.77735,-123.85547 1.44531,-130.16797 0,0 2.69531,-31.48438 46.81641,-36.81641 40.27734,-4.86718 60.82812,32.01172 81.17968,-19.6289"
       id="path105"
       inkscape:connector-curvature="0" />
    <path
       style="fill:#eb617f;fill-opacity:1;fill-rule:nonzero;stroke:none"
       d="m 387.69531,269.95312 c 0,0 17.5586,-4.76171 41,-6.79296 0,0 2.84766,22.19921 -16.89453,25.46875 -21.76172,3.60546 -24.10547,-18.67579 -24.10547,-18.67579"
       id="path107"
       inkscape:connector-curvature="0" />
    <path
       style="fill:#4a3523;fill-opacity:1;fill-rule:nonzero;stroke:none"
       d="m 379.39453,243.07422 c 1.39844,5.73437 0.39453,10.91015 -2.24609,11.55469 -2.64063,0.64453 -5.91797,-3.48047 -7.32032,-9.21875 -1.40234,-5.73438 -0.39843,-10.90625 2.2461,-11.55469 2.64062,-0.64453 5.91797,3.48437 7.32031,9.21875"
       id="path109"
       inkscape:connector-curvature="0" />
    <path
       style="fill:#4a3523;fill-opacity:1;fill-rule:nonzero;stroke:none"
       d="m 435.42187,229.38672 c 1.40235,5.73437 0.39454,10.90625 -2.24609,11.55078 -2.64062,0.64844 -5.91797,-3.48047 -7.32031,-9.21484 -1.40235,-5.73829 -0.39453,-10.91016 2.24609,-11.55469 2.64063,-0.64453 5.91797,3.48047 7.32031,9.21875"
       id="path111"
       inkscape:connector-curvature="0" />
    <path
       style="fill:#dedede;fill-opacity:1;fill-rule:nonzero;stroke:none"
       d="m 436.52344,410.25 c -1.32422,0 -2.80469,-0.14453 -4.23438,-0.28906 -2.64453,-0.10547 -14.53515,-2.91407 -31.34765,-11.31641 6.73437,-4.15625 14.1914,-8.64062 22.0664,-13.17969 7.8086,3.5 12.53906,4.96094 13.23047,5.0586 2.96484,0.42578 8.88281,1.75 8.13281,4.5 -0.34375,1.26172 -1.1875,1.78125 -2.74609,1.78125 -0.16406,0 -0.33984,-0.008 -0.51953,-0.0195 1.19531,0.45703 2.44531,1.07812 2.36328,2.40625 -0.0703,1.15234 -2.07422,2.07031 -3.42188,2.07421 -0.0351,0 -0.0664,-0.004 -0.10156,-0.004 -0.0117,0 -0.0234,-0.004 -0.0351,-0.004 0.0117,0 0.0234,0.004 0.0351,0.004 1.14453,0.1875 2.42188,1.4375 2.35547,2.52344 -0.0664,1.27343 -1.57812,1.76171 -2.90234,1.76171 -0.16016,0 -0.31641,-0.008 -0.46875,-0.0195 1.20312,0.45313 2.05859,1.14453 1.98437,2.46094 -0.10156,1.78906 -1.98828,2.26172 -4.39062,2.26172 m 3.23437,-9.01563 0,0 m -0.15234,-0.008 c -0.004,0 -0.008,0 -0.0117,0 0.004,0 0.008,0 0.0117,0 m 0.0117,0 c 0.008,0 0.0117,0 0.0195,0 -0.008,0 -0.0117,0 -0.0195,0"
       id="path113"
       inkscape:connector-curvature="0" />
    <path
       style="fill:#dedede;fill-opacity:1;fill-rule:nonzero;stroke:none"
       d="M 391.13672,393.39453 C 370.22656,381.4375 344.03906,361.64062 318.82031,329.8125 l 10.54688,-11.80469 c 33.59375,33.42578 63.98047,52.55078 83.70703,62.67188 l -21.9375,12.71484"
       id="path115"
       inkscape:connector-curvature="0" />
    <path
       style="fill:#423021;fill-opacity:1;fill-rule:nonzero;stroke:none"
       d="m 400.94141,398.64453 c -3.10938,-1.55078 -6.38672,-3.29687 -9.80469,-5.25 l 21.9375,-12.71484 c 3.70312,1.90234 7.03125,3.48437 9.93359,4.78515 -7.875,4.53907 -15.33203,9.02344 -22.0664,13.17969"
       id="path117"
       inkscape:connector-curvature="0" />
    <path
       style="fill:#fad7b5;fill-opacity:1;fill-rule:nonzero;stroke:none"
       d="m 329.27344,317.92187 c 57.32031,56.15235 105.11718,71.36329 107.4375,71.67969 2.96875,0.40235 8.89843,1.67969 8.17187,4.4336 -0.37109,1.40234 -1.36328,1.89453 -3.2539,1.78906 1.19921,0.44922 2.44921,1.05859 2.3789,2.38672 -0.0625,1.18359 -2.16015,2.13672 -3.5039,2.10156 -0.1211,-0.0195 -0.23829,-0.0391 -0.35547,-0.0352 0.11718,-0.004 0.23437,0.0156 0.35547,0.0352 1.14453,0.17969 2.42968,1.41797 2.375,2.50391 -0.0625,1.42187 -1.95313,1.88281 -3.35938,1.76953 1.20703,0.4414 2.07031,1.1289 2.00391,2.44531 -0.13672,2.76953 -5.41016,1.50391 -8.54688,0.72266 -2.51172,-0.625 -52.60547,-16.26954 -114.15625,-77.94532 l 10.45313,-11.88672"
       id="path119"
       inkscape:connector-curvature="0" />
    <path
       style="fill:#f8f8f8;fill-opacity:1;fill-rule:nonzero;stroke:none"
       d="m 329.27344,317.92187 -10.45313,11.89063 c 4.50391,4.50781 8.9375,8.74609 13.30078,12.77734 l 9.99219,-12.625 c -4.21875,-3.79687 -8.49609,-7.78515 -12.83984,-12.04297"
       id="path121"
       inkscape:connector-curvature="0" />
    <path
       style="fill:#eeeeeb;fill-opacity:1;fill-rule:nonzero;stroke:none"
       d="m 402.22266,366.11328 -13.85157,-10.25 10.67578,-12.26953 c 0.22266,0.004 0.44922,0.004 0.66797,0.004 38.15235,0 36.79688,-24.0625 36.79688,-24.0625 l -6.00391,-4.91797 1.15235,-4.65235 10.02734,-4.03515 3.99219,4.19531 -2.08203,6.80469 c 0,0 4.68359,38.75 -41.375,49.18359"
       id="path123"
       inkscape:connector-curvature="0" />
    <path
       style="fill:#4a3523;fill-opacity:1;fill-rule:nonzero;stroke:none"
       d="m 441.6875,305.92969 3.99219,4.19531 -2.08203,6.80469 c 0,0 4.39843,35.23437 -41.66016,45.66797 l -13.85156,-10.2461 10.67578,-12.27344 c 38.83203,0.28516 37.75,-20.54296 37.75,-20.54296 l -6.00391,-4.91797 1.15235,-4.65235 10.02734,-4.03515"
       id="path125"
       inkscape:connector-curvature="0" />
    <path
       style="fill:#e8f3eb;fill-opacity:1;fill-rule:nonzero;stroke:none"
       d="m 277.91016,75.28125 c -1.53907,0 -2.79297,1.25 -2.79297,2.792969 0,1.539062 1.2539,2.789062 2.79297,2.789062 1.53906,0 2.79296,-1.25 2.79296,-2.789062 0,-1.542969 -1.2539,-2.792969 -2.79296,-2.792969 z m 0,7.269531 c -2.46875,0 -4.47657,-2.007812 -4.47657,-4.476562 0,-2.46875 2.00782,-4.480469 4.47657,-4.480469 2.46875,0 4.48046,2.011719 4.48046,4.480469 0,2.46875 -2.01171,4.476562 -4.48046,4.476562"
       id="path147"
       inkscape:connector-curvature="0" />
    <path
       style="fill:#e8f3eb;fill-opacity:1;fill-rule:nonzero;stroke:none"
       d="m 599.28125,324.41016 c -1.42188,-0.043 -2.61328,1.07421 -2.66016,2.49218 -0.0469,1.41797 1.07032,2.61328 2.49219,2.66016 1.41797,0.0469 2.61328,-1.07422 2.65625,-2.49219 0.0469,-1.41797 -1.07031,-2.60937 -2.48828,-2.66015 z m -0.21875,6.70312 c -2.27734,-0.0742 -4.06641,-1.98437 -3.99219,-4.26172 0.0742,-2.27734 1.98438,-4.0664 4.26172,-3.99219 2.27734,0.0742 4.06641,1.98438 3.99219,4.26172 -0.0742,2.27735 -1.98438,4.06641 -4.26172,3.99219"
       id="path149"
       inkscape:connector-curvature="0" />
    <path
       style="fill:#e8f3eb;fill-opacity:1;fill-rule:nonzero;stroke:none"
       d="m 496.55469,70.550781 c -0.61328,0 -1.11328,-0.5 -1.11328,-1.113281 l 0,-6.3125 c 0,-0.613281 0.5,-1.113281 1.11328,-1.113281 0.60937,0 1.10937,0.5 1.10937,1.113281 l 0,6.3125 c 0,0.613281 -0.5,1.113281 -1.10937,1.113281"
       id="path155"
       inkscape:connector-curvature="0" />
    <path
       style="fill:#e8f3eb;fill-opacity:1;fill-rule:nonzero;stroke:none"
       d="m 491.00391,72.4375 c -0.29688,0 -0.57422,-0.117188 -0.78516,-0.328125 l -4.46484,-4.464844 c -0.21485,-0.210937 -0.32813,-0.488281 -0.32813,-0.785156 0,-0.296875 0.11328,-0.574219 0.32813,-0.785156 0.20703,-0.210938 0.48437,-0.324219 0.78125,-0.324219 0.29687,0 0.57812,0.113281 0.78515,0.324219 l 4.46485,4.464843 c 0.43359,0.433594 0.43359,1.136719 0,1.570313 -0.20704,0.210937 -0.48438,0.328125 -0.78125,0.328125"
       id="path157"
       inkscape:connector-curvature="0" />
    <path
       style="fill:#e8f3eb;fill-opacity:1;fill-rule:nonzero;stroke:none"
       d="m 482.09766,77.695312 c -0.61719,0 -1.11329,-0.5 -1.11329,-1.109374 0,-0.613282 0.4961,-1.113282 1.11329,-1.113282 l 6.3125,0 c 0.61328,0 1.10937,0.5 1.10937,1.113282 0,0.609374 -0.49609,1.109374 -1.10937,1.109374 l -6.3125,0"
       id="path159"
       inkscape:connector-curvature="0" />
    <path
       style="fill:#e8f3eb;fill-opacity:1;fill-rule:nonzero;stroke:none"
       d="m 485.83203,87.710938 c -0.29687,0 -0.57422,-0.113282 -0.78516,-0.324219 -0.21093,-0.210938 -0.32421,-0.488281 -0.32421,-0.785157 0,-0.296874 0.11328,-0.578124 0.32421,-0.789062 l 4.46485,-4.460938 c 0.21094,-0.210937 0.48828,-0.328124 0.78515,-0.328124 0.29688,0 0.57422,0.117187 0.78516,0.328124 0.43359,0.429688 0.43359,1.136719 0,1.570313 l -4.46484,4.464844 c -0.21094,0.210937 -0.48828,0.324219 -0.78516,0.324219"
       id="path161"
       inkscape:connector-curvature="0" />
    <path
       style="fill:#e8f3eb;fill-opacity:1;fill-rule:nonzero;stroke:none"
       d="m 495.55469,92.152344 c -0.61328,0 -1.10938,-0.5 -1.10938,-1.113282 l 0,-6.3125 c 0,-0.613281 0.4961,-1.109374 1.10938,-1.109374 0.61328,0 1.11328,0.496093 1.11328,1.109374 l 0,6.3125 c 0,0.613282 -0.5,1.113282 -1.11328,1.113282"
       id="path163"
       inkscape:connector-curvature="0" />
    <path
       style="fill:#e8f3eb;fill-opacity:1;fill-rule:nonzero;stroke:none"
       d="m 505.57031,88.414062 c -0.29687,0 -0.57422,-0.113281 -0.78515,-0.324218 L 500.32031,83.625 c -0.21094,-0.210938 -0.32422,-0.488281 -0.32422,-0.785156 0,-0.296875 0.11328,-0.574219 0.32422,-0.785156 0.21094,-0.210938 0.48828,-0.324219 0.78516,-0.324219 0.29687,0 0.57812,0.113281 0.78515,0.324219 l 4.46485,4.464843 c 0.21094,0.210938 0.32812,0.488281 0.32812,0.785157 0,0.296874 -0.11718,0.578124 -0.32812,0.785156 -0.20703,0.210937 -0.48828,0.324218 -0.78516,0.324218"
       id="path165"
       inkscape:connector-curvature="0" />
    <path
       style="fill:#e8f3eb;fill-opacity:1;fill-rule:nonzero;stroke:none"
       d="m 503.69922,78.691406 c -0.61328,0 -1.11328,-0.496094 -1.11328,-1.109375 0,-0.613281 0.5,-1.113281 1.11328,-1.113281 l 6.3164,0 c 0.60938,0 1.10938,0.5 1.10938,1.113281 0,0.613281 -0.5,1.109375 -1.10938,1.109375 l -6.3164,0"
       id="path167"
       inkscape:connector-curvature="0" />
    <path
       style="fill:#e8f3eb;fill-opacity:1;fill-rule:nonzero;stroke:none"
       d="m 501.8125,73.140625 c -0.29688,0 -0.57422,-0.117187 -0.78516,-0.324219 -0.21093,-0.210937 -0.32812,-0.492187 -0.32812,-0.785156 0,-0.296875 0.11719,-0.578125 0.32812,-0.789062 l 4.46485,-4.460938 c 0.21093,-0.210938 0.48828,-0.328125 0.78515,-0.328125 0.29688,0 0.57422,0.117187 0.78516,0.328125 0.43359,0.429688 0.43359,1.136719 0,1.570312 l -4.46484,4.464844 c -0.21094,0.207032 -0.48829,0.324219 -0.78516,0.324219"
       id="path169"
       inkscape:connector-curvature="0" />
  </g>
</svg>
