<?xml version="1.0" encoding="utf-8"?>
<!-- Generator: Adobe Illustrator 21.0.1, SVG Export Plug-In . SVG Version: 6.00 Build 0)  -->
<svg version="1.1" id="Layer_1" xmlns="http://www.w3.org/2000/svg" xmlns:xlink="http://www.w3.org/1999/xlink" x="0px" y="0px"
	 viewBox="0 0 500 500" style="enable-background:new 0 0 500 500;" xml:space="preserve">
<style type="text/css">
	.st0{fill:#D72D4E;}
	.st1{fill:#F6C358;}
	.st2{fill:#64798A;}
	.st3{fill:#FCD462;}
	.st4{fill:#D5D6DB;}
	.st5{fill:#E1E6E9;}
	.st6{fill:#3A556A;}
	.st7{fill:#2F4859;}
</style>
<g>
	<path class="st0" d="M249.3,0C387,0,498.6,111.6,498.6,249.3S387,498.6,249.3,498.6S0,387,0,249.3C0,111.6,111.6,0,249.3,0z"/>
	<g>
		<path class="st1" d="M249.3,314.3L249.3,314.3L249.3,314.3L249.3,314.3L249.3,314.3L249.3,314.3L249.3,314.3L249.3,314.3
			L249.3,314.3l35.6-23.7l0,0v-29.4c-2.8,1.7-5.1,4-7.9,6.3c-15.8,14.1-31.1,11.9-31.1,11.9c-9,0-22.6-9-28.3-13.6
			c-1.7-1.1-2.8-2.3-4.6-3.4v28.3l0,0L249.3,314.3z"/>
		<polygon class="st1" points="249.3,308.7 249.3,308.7 249.3,308.7 249.3,308.7 238,324.5 238,324.5 		"/>
	</g>
	<path class="st2" d="M211.4,154.3h22c2.3,0,4-0.6,5.7-1.1c4-1.1,10.1-3.4,15.3-5.7c4.6-1.7,9-1.7,13.6,0l23.1,7.9
		c15.8,5.7,17,20.4,17,20.4v41.3c0,0,2.3-14.1,9-25.4c1.7-2.9,2.8-6.3,2.8-9v-35c0,0-2.3-17.6-19.3-21.4c0,0,6.7-14.7-11.3-18.7
		h-66.7l0,0c-24.3,0-44.7,19.8-44.7,44.7v26.6c0,5.7,1.7,11.3,5.7,15.8c2.8,3.4,5.7,9,6.3,17v-35.8
		C194.5,156.1,211.4,154.3,211.4,154.3z"/>
	<path class="st3" d="M246.4,284.9c0,0,15.3,2.3,31.1-11.9c2.3-2.3,5.1-4,7.9-6.3l0.6-0.6c6.7-4.6,20.4-17.5,23.1-48.7v-41.3
		c0,0-1.7-14.7-17-20.4l-24.3-8.4c-4.6-1.7-9-1.7-13.6,0c-5.1,1.7-11.3,4-15.3,5.7c-1.7,0.6-4,1.1-5.7,1.1h-22c0,0-17,2.3-21.4,21.4
		v35v7.9c0,0,0.6,34,23.1,48.7c0,0,0.6,0,0.6,0.6c1.7,1.1,2.8,2.3,4.6,3.4C223.9,275.3,236.9,284.9,246.4,284.9z"/>
	<g>
		<polygon class="st4" points="261.1,322.2 253.8,332.4 260.6,373.1 276.4,343.7 		"/>
		<polygon class="st4" points="238.6,373.1 244.7,332.4 237.4,322.2 222.2,343.7 		"/>
		<polygon class="st4" points="238,324.5 237.4,325.1 249.3,308.7 249.3,308.7 249.3,308.7 		"/>
	</g>
	<g>
		<polygon class="st0" points="261.1,369.7 255.6,334.1 261.7,325.1 261.7,325.1 249.3,308.7 249.3,308.7 249.3,308.7 237.4,325.1 
			237.4,325.1 237.4,325.1 237.4,325.1 243.6,334.1 237.4,370.2 237.4,370.2 249.3,391.2 261.1,370.2 		"/>
		<path class="st0" d="M249.3,391.2l1.1-1.1L249.3,391.2z"/>
		<path class="st0" d="M249.3,391.2l-1.1-1.1L249.3,391.2z"/>
		<path class="st0" d="M249.3,391.2L249.3,391.2L249.3,391.2z"/>
		<path class="st0" d="M249.3,308.7L249.3,308.7L249.3,308.7z"/>
		<path class="st0" d="M249.3,308.7L249.3,308.7L249.3,308.7z"/>
	</g>
	<g>
		<polygon class="st5" points="249.3,308.7 249.3,308.7 249.3,308.7 249.3,308.7 249.3,308.7 249.3,308.7 249.3,308.7 249.3,308.7 
			249.3,308.7 261.7,325.1 275.3,344.3 304.1,291.7 284.9,284.9 284.9,284.9 		"/>
		<polygon class="st5" points="237.4,325.1 237.4,325.1 238,324.5 249.3,308.7 249.3,308.7 249.3,308.7 249.3,308.7 213.7,284.9 
			213.7,284.9 194.5,291.7 223.3,344.3 		"/>
	</g>
	<g>
		<path class="st6" d="M249.3,391.2L249.3,391.2h15.3h114.2c7.9,0,14.7-7.3,13-15.3l-6.3-39c-1.7-10.7-9-19.3-19.3-22.6l-62.1-22.6"
			/>
		<path class="st6" d="M249.3,391.2L249.3,391.2L249.3,391.2z"/>
	</g>
	<g>
		<polygon class="st7" points="261.1,370.2 249.3,391.2 249.3,391.2 249.3,391.2 250.4,390.1 307,338.7 300.1,325.1 320.5,325.1 
			304.1,291.7 275.3,344.3 		"/>
		<path class="st7" d="M249.3,391.2L249.3,391.2L249.3,391.2z"/>
	</g>
	<path class="st6" d="M249.3,391.2L249.3,391.2L249.3,391.2l-54.8-99.5l-62.3,22.6c-10.1,3.4-17.6,12.4-19.3,22.6l-6.3,39
		c-1.1,7.9,5.1,15.3,13,15.3h114.8h9l0,0L249.3,391.2L249.3,391.2L249.3,391.2z"/>
	<polygon class="st7" points="249.3,391.2 249.3,391.2 249.3,391.2 249.3,391.2 237.4,370.2 223.3,344.3 194.5,291.7 178,325.1 
		198.4,325.1 191.6,338.7 248.1,390.1 249.3,391.2 	"/>
</g>
</svg>
