<svg xmlns="http://www.w3.org/2000/svg" viewBox="2064 817 59.2 74.8">
  <defs>
    <style>
      .cls-1 {
        fill: #fff;
      }
    </style>
  </defs>
  <g id="Bulb" transform="translate(1425)">
    <path id="Path_30" data-name="Path 30" class="cls-1" d="M42.2,19.1A17.838,17.838,0,0,0,28.9,14,18.456,18.456,0,0,0,11.4,32.1a18.431,18.431,0,0,0,4.2,11.7,26.475,26.475,0,0,1,6.1,16.8s-.4,2.8,1.6,2.8H35.9c2,0,1.6-2.8,1.6-2.8a27.139,27.139,0,0,1,6.4-17.1,18.131,18.131,0,0,0,4-11.3,18.4,18.4,0,0,0-5.7-13.1Zm-.8,22.4a31.126,31.126,0,0,0-7.1,18.7H24.9a29.874,29.874,0,0,0-6.8-18.5,15.306,15.306,0,0,1-3.5-9.6A15.273,15.273,0,0,1,29,17.1a14.669,14.669,0,0,1,11,4.2,15.169,15.169,0,0,1,1.4,20.2Zm0,0" transform="translate(639 817)"/>
    <path id="Path_31" data-name="Path 31" class="cls-1" d="M50.6,8.7a1.569,1.569,0,0,0-2.2,0l-3.9,3.9a1.556,1.556,0,0,0,2.2,2.2l3.9-3.9a1.569,1.569,0,0,0,0-2.2Zm0,0" transform="translate(639 817)"/>
    <path id="Path_32" data-name="Path 32" class="cls-1" d="M36,65.6H23.3a1.6,1.6,0,1,0,0,3.2H36a1.58,1.58,0,0,0,1.6-1.6A1.721,1.721,0,0,0,36,65.6Zm0,0" transform="translate(639 817)"/>
    <path id="Path_33" data-name="Path 33" class="cls-1" d="M33.6,71.6H25.7a1.6,1.6,0,1,0,0,3.2h7.9a1.58,1.58,0,0,0,1.6-1.6,1.645,1.645,0,0,0-1.6-1.6Zm0,0" transform="translate(639 817)"/>
    <path id="Path_34" data-name="Path 34" class="cls-1" d="M29.6,8.7a1.58,1.58,0,0,0,1.6-1.6V1.6a1.6,1.6,0,0,0-3.2,0V7.1a1.58,1.58,0,0,0,1.6,1.6Zm0,0" transform="translate(639 817)"/>
    <path id="Path_35" data-name="Path 35" class="cls-1" d="M14.8,14.8a1.569,1.569,0,0,0,0-2.2L10.9,8.7a1.556,1.556,0,0,0-2.2,2.2l3.9,3.9a1.569,1.569,0,0,0,2.2,0Zm0,0" transform="translate(639 817)"/>
    <path id="Path_36" data-name="Path 36" class="cls-1" d="M57.6,28H52.1a1.6,1.6,0,0,0,0,3.2h5.5a1.6,1.6,0,0,0,0-3.2Zm0,0" transform="translate(639 817)"/>
    <path id="Path_37" data-name="Path 37" class="cls-1" d="M7.1,28H1.6a1.6,1.6,0,0,0,0,3.2H7.1a1.6,1.6,0,0,0,0-3.2Zm0,0" transform="translate(639 817)"/>
    <path id="Path_38" data-name="Path 38" class="cls-1" d="M34.2,33.5H32.1l-.1-.4a3.506,3.506,0,0,0-.6-1.4l-.6-.7h3.3v-.9H25.4v1.2h1.4q2.55,0,3.3,1.5l.3.7H25.3v.9h5.1l-.2.6a2.333,2.333,0,0,1-1.3,1.6,5.83,5.83,0,0,1-2.5.5H25.3v1.2c1.3,1.4,3.1,3.4,5.3,6h1.8c-2-2.4-3.6-4.3-4.7-5.5l-.6-.7L28,38a4.72,4.72,0,0,0,2.7-1.1,3.248,3.248,0,0,0,1.2-2.2l.1-.4h2.1v-.8Z" transform="translate(639 817)"/>
  </g>
</svg>
